<?xml version="1.0" standalone="no"?>
<!DOCTYPE svg PUBLIC "-//W3C//DTD SVG 1.1//EN" "http://www.w3.org/Graphics/SVG/1.1/DTD/svg11.dtd" >
<svg>
<metadata>
Created by FontForge 20090914 at Fri Feb 24 03:33:15 2012
 By root
2008 Iconian Fonts - www.iconian.com
</metadata>
<defs>
<font id="SPQR" horiz-adv-x="701" >
  <font-face 
    font-family="SPQR"
    font-weight="400"
    font-stretch="normal"
    units-per-em="1000"
    panose-1="0 0 0 0 0 0 0 0 0 0"
    ascent="800"
    descent="-200"
    x-height="686"
    cap-height="686"
    bbox="0 -187 1768 895.8"
    underline-thickness="50"
    underline-position="-75"
    unicode-range="U+0020-U+2122"
  />
<missing-glyph horiz-adv-x="660" 
 />
    <glyph glyph-name=".notdef" horiz-adv-x="660" 
 />
    <glyph glyph-name=".null" horiz-adv-x="0" 
 />
    <glyph glyph-name="nonmarkingreturn" horiz-adv-x="660" 
 />
    <glyph glyph-name="space" unicode=" " horiz-adv-x="612" 
 />
    <glyph glyph-name="space" unicode="&#xa0;" horiz-adv-x="612" 
 />
    <glyph glyph-name="FL0021h" unicode="!" horiz-adv-x="212" 
d="M64 223q8 27 10 62t1 70t-3 67.5t-2 54.5v33q0 25 -1 53t-1 51v34q-4 8 -5 13.5t-3 9.5t-6 5.5t-14 1.5v8l133 -1v-10q-6 -9 -10 -14.5t-6.5 -11t-3.5 -11.5t-1 -15v-31l-2 -369h-86zM92 372q-2 -8 -3.5 -26.5t-3.5 -39t-3 -39t-1 -27.5q6 2 10.5 17t8 34t5 37t1.5 26
q0 3 0.5 9.5t0.5 8.5h-15zM106 420q-7 1 -7 -10q0 -4 1.5 -7t5.5 -1q6 0 6 8q0 7 -6 10zM106 648q-2 4 -3.5 -2.5t-2.5 -20.5t-1 -34v-42v-41q0 -29 1.5 -47.5t5.5 -11.5q3 11 4 39t1 60q0 33 -1 61t-4 39zM128 648v-124l13 135zM92 668q-7 0 -7 -9q0 -11 7 -11q11 0 11 11
q0 9 -11 9zM117 678q-9 0 -9 -10q0 -9 9 -9q8 0 8 9q0 10 -8 10zM106 77q-11 0 -11 -13t11 -13h17q13 0 13 6q7 12 -3.5 20t-26.5 0zM59 51q0 20 17.5 34.5t40.5 14.5q22 0 37.5 -14.5t15.5 -34.5q0 -23 -15.5 -37t-37.5 -14q-23 0 -40.5 14t-17.5 37zM100 41q-10 0 -10 -10
q0 -17 10 -17q11 0 11 14q0 13 -11 13z" />
    <glyph glyph-name="FL0022h" unicode="&#x22;" horiz-adv-x="326" 
d="M220 656q-10 0 -10 -14q0 -13 10 -13h18q13 0 13 7q7 12 -3.5 20t-27.5 0zM174 629q0 22 17 36.5t40 14.5t38 -14.5t16 -36.5q1 -16 -5.5 -37t-16 -39.5t-20.5 -31.5t-17 -13q-7 0 -2.5 18.5t7.5 53.5q1 11 -5 10.5t-17 -0.5q-9 0 -19.5 6.5t-15.5 32.5zM216 620
q-11 0 -11 -11q0 -15 11 -15q10 0 10 13t-10 13zM86 656q-11 0 -11 -14q0 -13 11 -13h17q14 0 14 7q6 12 -4.5 20t-26.5 0zM40 629q0 22 17 36.5t40 14.5t38 -14.5t16 -36.5q1 -16 -6 -37t-16.5 -39.5t-20.5 -31.5t-17 -13q-8 0 -3 18.5t9 53.5q1 11 -5.5 10.5t-17.5 -0.5
q-9 0 -19 6.5t-15 32.5zM80 620q-10 0 -10 -11q0 -15 10 -15q11 0 11 13t-11 13z" />
    <glyph glyph-name="FL0023h" unicode="#" horiz-adv-x="653" 
d="M92 427q0 13 -11 17t-24.5 5.5t-24.5 4.5t-11 16h155v175q-11 25 -18 33t-27 9v15h170v-15q-28 0 -38.5 -5.5t-12 -19t2 -35t3.5 -54.5l1 -103h128v175l-8.5 20t-8 13t-11 7t-16.5 2v15h169v-15q-27 0 -37.5 -5.5t-12 -19t2 -35t3.5 -54.5l2 -103h126l20 -16
q-3 -8 -19 -12t-38 -6.5t-46.5 -4.5t-42.5 -6l-5 -137h129l20 -16q-3 -8 -19 -12t-38.5 -6.5t-47.5 -4.5t-44 -6l6 -157q0 -20 -0.5 -35.5t1.5 -24.5t8.5 -12.5t20.5 0.5v-14h-158l-12 14q20 1 27 9.5t18 33.5l5.5 43t2.5 40v44v53l-83 7q0 5 -1 6q-11 -1 -22.5 -3l-22.5 -4
l5 -157q0 -20 -0.5 -35.5t1.5 -24.5t9 -12.5t21 0.5v-14h-158l-12 14q10 0 16.5 2.5t11 7t8.5 13t9 20.5q4 23 6 43t2 40v44v53l-82 7q0 14 -11 18t-24.5 5.5t-24.5 4.5t-11 16h153l4 130zM302 427q0 3 -1 4q-12 -1 -22.5 -2t-21.5 -4l-4 -137h129l3 130zM194 226
q-2 -12 -3 -33t-2 -44.5t-1.5 -44.5t-0.5 -33v-14h12q2 10 3.5 29t2 40t1 40t0.5 31q0 2 0.5 13t0.5 16h-13zM404 226q-2 -12 -3 -33t-2 -44.5t-1.5 -44.5t-0.5 -33v-14h12q2 10 3.5 29t2 40t1 40t0.5 31q0 2 0.5 13t0.5 16h-13zM211 645q-4 14 -5.5 -17t-1.5 -86v-35t1 -37
h8v12v4v7v14v85q0 17 -0.5 30t-1.5 23zM421 645q-4 14 -5.5 -17t-1.5 -86v-35t1 -37h9v12v4v7v14v85q0 17 -1 30t-2 23zM235 645l-3 -172l14 186zM444 645l-2 -172l15 186zM117 453q17 -11 29.5 -13t29.5 -2v16h-20h-8t-12.5 -0.5t-12.5 -0.5h-6zM113 271q17 -11 30 -13
t29 -2v16h-19h-9q-5 0 -11.5 -0.5t-12.5 -0.5h-7zM433 687q-9 0 -9 -14t9 -14t9 14t-9 14zM223 687q-10 0 -10 -14t10 -14q9 0 9 14t-9 14zM409 673q-9 0 -9 -14t9 -14t9 14t-9 14zM199 673q-9 0 -9 -14t9 -14q10 0 10 14t-10 14zM246 57q-8 0 -8 -13q0 -15 8 -15
q10 0 10 15q0 13 -10 13zM457 57q-9 0 -9 -13q0 -15 9 -15t9 15q0 13 -9 13zM235 114l-12 -57h12v57zM444 114l-11 -57h11v57zM223 29q1 3 -3 4t-9 1q-13 0 -12 -5q2 -8 12 -8t12 8zM433 29q2 3 -2.5 4t-9.5 1q-13 0 -12 -5q2 -8 12 -8q9 0 12 8zM416 297q-7 1 -7 -9h12
q-1 4 -2.5 6t-2.5 3zM206 297q-3 1 -5 -2t-2 -7h12q-1 4 -2.5 6t-2.5 3zM420 374h-5q0 -12 1 -17.5t2 1.5q0 3 1 7t1 9zM210 374h-5q0 -12 1 -17.5t3 1.5q0 3 0.5 7t0.5 9zM385 438v4q-13 -2 -16 -4q4 -1 7.5 -0.5t8.5 0.5zM365 256q5 -1 8.5 -0.5t8.5 0.5v4zM415 447v-7h3
q-1 2 -1.5 3.5t-1.5 3.5zM205 447v-7h4q-3 5 -4 7z" />
    <glyph glyph-name="FL0024h" unicode="$" horiz-adv-x="430" 
d="M121 -32q15 1 20 9t12 28q-11 3 -22.5 4t-18.5 4q-2 0 -10 2t-16.5 4.5t-16.5 4.5t-10 2q-4 0 -13.5 -4.5t-12.5 -8.5v185q8 -60 38.5 -99t86.5 -54q5 64 6.5 139.5t0.5 139.5q-28 18 -52 41.5t-42 50.5t-28.5 56t-10.5 58q0 40 9.5 69.5t26.5 49t40.5 31t52.5 17.5
q-7 21 -11 28.5t-19 8.5v16h127v-16q-20 0 -27.5 -7.5t-8.5 -24.5q25 2 50 1.5t51 -3.5q5 6 17 18t23 12v-195q-6 0 -13.5 16.5t-22.5 37.5t-40 41.5t-64 28.5q1 -14 2.5 -29t1.5 -34v-193q47 -15 84.5 -50t58.5 -78q-2 2 -7 2h-2q0 13 -11 13t-11 -13t11 -13h2
q0 -13 11 -13t11 13v2q17 -42 17 -75q0 -76 -45 -127.5t-120 -62.5q0 -20 4 -30t20 -3v-15h-119zM284 317q-11 0 -11 -13t9 -14h-5q-11 0 -24 2t-26 5v-252v-5q40 4 61 25.5t30 52.5t9.5 67.5t0.5 69.5q-2 0 -3 -2.5t-2 -1.5q-4 3 -13.5 12.5t-12.5 13.5l25 25
q-4 -3 -15 -5.5t-19 -6.5q7 2 7 14q0 13 -11 13zM164 661q-39 -5 -59 -27.5t-20 -67.5q0 -32 11 -52t24.5 -34.5l25 -27.5t11.5 -30h-32q8 -11 11 -15.5t3 -8.5q0 -1 -1.5 -5t-1.5 -12h8q-1 -4 -2 -6t-1 -5q0 -14 11 -14t11 14q0 5 -4 7h6v34v57q0 39 -0.5 82.5t-0.5 81.5
v29zM183 244q-2 -10 -3.5 -36.5t-3 -57.5t-2.5 -61t-1 -48q7 0 11 -1q1 19 2.5 45t2.5 51t1.5 46t0.5 31q0 4 1 15.5t1 15.5h-10zM187 662q0 -20 -0.5 -53t-0.5 -68t0.5 -70.5t0.5 -60.5q2 0 3 -0.5t4 -0.5q2 12 2 25v29v63q0 40 -1 75.5t-2 60.5h-6zM323 686q-11 0 -11 -13
q0 -11 9 -13q-9 -2 -9 -13q0 -13 11 -13t11 13q0 11 -8 13q8 2 8 13q0 13 -11 13zM297 343q-11 0 -11 -13t11 -13h2q0 -13 11 -13t11 13t-11 13h-2q0 13 -11 13zM257 370q-4 -11 -9.5 -22t-16.5 -18h13q3 0 8.5 1.5t12 3.5t12 4t7.5 4zM363 211q-3 5 -5 -6.5t-2 -26.5
q0 -13 2 -25t5 -8q3 5 4.5 13.5t1.5 19.5q0 25 -6 33zM216 660q-3 1 -7 1v-171zM59 66q-11 0 -11 -13t11 -13t11 13t-11 13zM350 251q-11 0 -11 -13q0 -14 11 -14t11 14q0 13 -11 13zM257 330q-11 0 -11 -13t11 -13t11 13t-11 13zM112 409q-11 0 -11 -13t11 -13t11 13
t-11 13zM73 502q-11 0 -11 -14q0 -13 11 -13t11 13q0 14 -11 14zM200 734q-7 0 -7 -15t7 -15t7 15t-7 15zM99 449l-13 -27l26 14zM183 719q-7 0 -7 -15v-6q1 2 4 2q6 0 9 1v3q0 15 -6 15zM200 -15q0 4 -9 4q-5 0 -7.5 -1t-0.5 -3q1 -10 8 -10q8 0 9 10zM211 0q0 -15 7 -15
q6 0 6 15v1q-11 0 -13 -1zM86 462q-2 3 -5.5 2t-6 -4t-3.5 -6.5t2 -4.5q6 -4 11 1t2 12zM337 290q-2 3 -5.5 2t-6 -3.5t-4 -6t1.5 -5.5q7 -3 12 2t2 11zM186 312v-7q0 -17 5 -15t5 15v4q-4 1 -5.5 1.5zM59 528q-6 1 -6 -7q0 -9 6.5 -6.5t6.5 6.5q0 6 -7 7zM193 392l-6 3
q0 -19 2 -23q1 0 1 -1h1q2 4 2 21zM209 75l-5 -37h5v37zM352 264q0 11 9 13q0 -12 -9 -13zM299 317q9 1 9 13q-9 -2 -9 -13zM152 383q-2 0 -8 -2q2 -2 4 -2.5t4 -0.5q5 0 7 -1q-1 6 -7 6zM227 372v-2h4zM374 266l-4 9q1 -3 1.5 -4zM288 290h-3h3zM217 702h1v2z" />
    <glyph glyph-name="FL0025h" unicode="%" horiz-adv-x="882" 
d="M540 671q10 0 6 -13t-13 -12q-7 0 -6 13q5 14 13 12zM513 659q4 0 5.5 -4t1 -9.5t-3.5 -9.5t-9 -4q-9 0 -6 14q3 13 12 13zM499 460l43 171l15 14zM519 632q-1 -8 -3.5 -22.5t-6.5 -33.5t-9.5 -41l-11.5 -44l-10 -42t-10 -39.5t-9.5 -33t-8.5 -22.5q-5 -8 -1.5 12
t11 53.5t18 74.5l19.5 74.5t15.5 53t6.5 10.5zM442 315q5 -4 2.5 -13.5t-8.5 -12.5q-3 -2 -3.5 2.5t0.5 10t3.5 10t5.5 3.5zM389 48l26 55l-13 -55h-13zM414 250h13q0 -4 -3.5 -14.5t-3.5 -13.5q-2 -11 -9.5 -35.5l-16 -52t-17 -51t-12.5 -32.5h-11l4 14q1 10 8.5 36.5
l16.5 56t18 55.5zM414 48q3 0 4 -4t0.5 -9t-3.5 -9t-8 -4q-10 0 -9 13q5 13 16 13zM383 24q-2 -6 -13 -6q-8 0 -11 6q0 5 13 5q4 0 9 -1t2 -4zM250 13l8 -13l237 -7l2 14q-16 -3 -29.5 0t-23.5 12t-14 23.5t0 34.5l117 473q7 30 16.5 53t24 38t34 21.5t47.5 5.5l4 13l-248 6
l-4 -13q21 -2 39 -9.5t23 -30.5l-10 -49q-9 -33 -17.5 -71t-17.5 -73l-11 -46l-18.5 -74.5l-22.5 -91t-26 -94t-30 -83.5q-15 -23 -37.5 -30.5t-42.5 -8.5zM40 513q0 -40 15 -76t41.5 -63t61.5 -43t74 -16q40 0 69 21t48.5 53t29 69.5t9.5 70.5q0 36 -11 69t-32 58t-50.5 40
t-65.5 15q-38 0 -72.5 -16.5t-60.5 -44.5t-41 -63.5t-15 -73.5zM98 510q0 28 6 59t20 57.5t36.5 43.5t56.5 17t58 -15.5t39 -40t22 -55t7 -60.5q0 -28 -6.5 -59.5t-21.5 -58.5t-38.5 -45t-56.5 -18t-56.5 17t-38 43t-21 57t-6.5 58zM99 396q6 0 6 -7t-6 -7q-7 0 -7 7t7 7z
M91 404q7 0 7 -8q0 -7 -7 -7q-5 0 -5 7q0 8 5 8zM365 598q8 -19 12 -39t4 -43q0 -11 -2 -29t-6.5 -36.5t-12 -34t-17.5 -20.5q0 1 3.5 11.5l7.5 23.5l7.5 24.5t3.5 15.5v64v63zM84 410q3 0 3 -2q0 -3 -3.5 -4t-3.5 4q0 3 4 2zM77 427q3 -3 3 -5q0 -3 -3.5 -4t-3.5 4t4 5z
M99 427q6 0 6 -9q0 -8 -6 -8q-7 0 -7 8q0 9 7 9zM343 433q6 0 6 -6q0 -9 -6 -9t-6 9q0 6 6 6zM91 441q7 0 7 -8q0 -6 -7 -6q-5 0 -5 6q0 8 5 8zM53 513q0 14 1 23t8 25q0 -7 1 -21.5t2 -31l2 -31.5t1 -22v-6v-8q-11 15 -13 33.5t-2 38.5zM75 513q0 6 -0.5 17t0.5 23
t4.5 22.5t11.5 14.5v-4v-4q0 -1 -1 -7.5t-2.5 -14t-2.5 -14t-1 -7.5v-49v-49q-4 9 -6.5 17.5t-2.5 17.5v37zM350 463q6 0 6 -8q0 -6 -6 -6t-6 6q0 8 6 8zM358 546q1 -2 2 -4.5t1 -6.5v-16v-16q0 -13 -3.5 -8t-3.5 24q0 12 0.5 20.5t3.5 6.5zM68 582q5 0 5 -2q0 -4 -4 -4.5
t-4 4.5q0 6 3 2zM350 590q4 0 4 -4q0 -3 -3 -4t-3 4q0 8 2 4zM84 613l-7 -15l-1 1.5t-1 2.5l2 3q0 2 2.5 5t4.5 3zM99 613q2 0 2 -5q0 -2 -3 -3.5t-3 3.5q0 7 4 5zM343 613q6 0 6 -8q0 -7 -6 -7t-6 7q0 8 6 8zM358 613q4 0 4 -5q0 -2 -4 -3.5t-4 3.5q0 6 4 5zM335 627
q7 0 7 -7t-7 -7q-5 0 -5 7t5 7zM350 635q4 -2 4 -8q0 -7 -4 -7q-1 -1 -1.5 1.5t-0.5 5.5t0.5 6t1.5 2zM343 649q6 0 6 -7t-6 -7t-6 7t6 7zM113 658q6 0 6 -9q0 -7 -6 -7t-6 7q0 9 6 9zM335 658q7 0 7 -9q0 -7 -7 -7q-5 0 -5 7q0 9 5 9zM329 665q5 0 5 -7q0 -9 -5 -9
q-7 0 -7 9q0 7 7 7zM321 672q5 0 5 -7t-5 -7q-6 0 -6 7t6 7zM312 680q7 0 7 -8q0 -7 -7 -7q-4 0 -4 7q0 8 4 8zM494 177q0 -40 15 -76t41.5 -63t61.5 -43t74 -16q40 0 69.5 21t49 53.5t29 70t9.5 70.5q0 36 -11.5 68.5t-32.5 57.5t-50.5 40t-66.5 15q-38 0 -72 -16.5
t-60 -44.5t-41 -63.5t-15 -73.5zM552 176q0 28 6 59t20 57t36.5 43t56.5 17t58.5 -15.5t39.5 -40t22 -55t7 -61.5q0 -27 -7 -58.5t-22 -58.5t-38.5 -45t-56.5 -18t-56.5 17t-38 43t-21 57t-6.5 59zM553 61q6 0 6 -7q0 -8 -6 -8t-6 8q0 7 6 7zM546 68q6 0 6 -7t-6 -7t-6 7
t6 7zM820 263q14 -39 14 -83q0 -10 -2 -28t-6.5 -36.5t-11 -34t-16.5 -20.5q0 1 3.5 11.5l7.5 23.5l7.5 24.5t3.5 15.5v63v64zM537 75q4 0 4 -2q0 -4 -3 -4.5t-3 4.5q0 6 2 2zM530 91q5 -2 5 -4t-4 -3.5t-4 3.5q0 4 3 4zM553 91q6 0 6 -7q0 -9 -6 -9t-6 9q0 7 6 7zM798 98
q5 0 5 -7t-5 -7q-7 0 -7 7t7 7zM546 106q6 0 6 -8q0 -7 -6 -7t-6 7q0 8 6 8zM507 177q0 15 1 24t8 25q0 -6 1 -21l2 -31.5l2 -31.5t1 -22v-7v-7q-11 14 -13 33t-2 38zM529 177q0 6 -0.5 17.5t0.5 23.5t5 22.5t12 14.5v-4v-5q0 -1 -1.5 -7.5l-3 -13.5l-3 -13.5t-1.5 -7.5v-50
v-48q-3 9 -5.5 18t-2.5 17v36zM804 128q7 0 7 -8q0 -7 -7 -7q-5 0 -5 7q0 8 5 8zM812 210q2 -2 2 -11v-15v-17q0 -12 -3.5 -7.5t-3.5 24.5q0 11 0.5 19.5t4.5 6.5zM522 246q5 0 5 -2q0 -3 -4 -4t-4 4q0 8 3 2zM804 255q3 0 3 -4t-3 -4.5t-3 4.5q0 7 3 4zM537 277l-7 -14
l-0.5 1t-0.5 2l1 3q0 3 3 5.5t4 2.5zM553 277q2 0 2 -4q0 -3 -3 -4t-3 4t4 4zM798 277q5 0 5 -8q0 -6 -5 -6q-7 0 -7 6q0 8 7 8zM812 277q4 0 4 -4q0 -3 -4.5 -4t-4.5 4q0 6 5 4zM790 291q6 0 6 -6q0 -8 -6 -8t-6 8q0 6 6 6zM804 299q3 -2 3 -8t-3 -6q-1 -1 -2 1.5t-1 4.5
q0 4 1 7t2 1zM798 315q5 0 5 -7q0 -9 -5 -9q-7 0 -7 9q0 7 7 7zM568 322q5 0 5 -7t-5 -7q-7 0 -7 7t7 7zM790 322q6 0 6 -7t-6 -7t-6 7t6 7zM783 330q5 0 5 -8q0 -7 -5 -7q-6 0 -6 7q0 8 6 8zM774 337q6 0 6 -7q0 -8 -6 -8t-6 8q0 7 6 7zM767 344q6 0 6 -7t-6 -7t-6 7t6 7z
" />
    <glyph glyph-name="FL0026h" unicode="&#x26;" horiz-adv-x="621" 
d="M371 634h-10q-6 0 -13.5 0.5t-14.5 0.5h-9q-63 0 -94.5 -38t-31.5 -102q0 -42 13 -65.5t36.5 -35.5t55 -14.5t68.5 -2.5l179 4l-75 -58l-13 -84q-7 -42 0.5 -85t13.5 -88q3 -20 14 -30t27 -14.5t33 -5.5t32 -3v-13h-396q-30 0 -55.5 18t-44.5 44t-31 56t-14 54
q-2 22 6 51t24 53t38.5 37t49.5 4l-13 13q4 4 11 8l13.5 7.5t11.5 8t5 9.5q0 9 -12.5 23.5l-28 33t-28 40.5t-12.5 47q0 39 15.5 69t41.5 51.5t59 35.5t68 20.5t68.5 7t61.5 -3.5l16 -2l1 -38h-13zM397 42v37l-26 -26v6q0 45 7 86t7 86v18q0 11 -0.5 25t-0.5 25v18
q-11 11 -20.5 12t-24.5 1q-25 0 -54 -8.5t-54.5 -18.5t-43.5 -18.5t-21 -8.5q-1 0 -4 0.5l-3 0.5l-13.5 13t-12.5 14q-22 -17 -33.5 -31.5t-16 -31t-5 -36t-0.5 -47.5v-14q0 -11 1 -24.5l1 -13.5l25 -25q-5 5 -8 12.5t-3 12.5q0 6 0.5 20.5t1.5 31l2 32t2 21.5v-79
q1 3 4 14.5t6 24.5t6 24.5l4 15.5v27l-13 -14q0 2 -0.5 6t-0.5 8q0 14 5.5 22.5t21.5 16.5q3 -1 7.5 -5.5t5.5 -7.5v-6q0 -26 -7 -50t-7 -51q0 -26 10.5 -50t28.5 -42t42 -28.5t51 -10.5q35 0 66.5 8t66.5 8zM145 502q0 12 0.5 21.5t3.5 18.5t8.5 18t15.5 21l26 -13
q-2 3 -7.5 12t-5.5 14q0 3 5.5 8t7.5 5q-1 5 -11 11t-15 2q-12 -6 -20 -20t-12.5 -30.5t-6.5 -33t-2 -28.5q0 -28 7 -55.5t34 -43.5v7q0 12 -4.5 22t-9.5 19.5t-9.5 20t-4.5 24.5zM437 290h-15q0 -27 2 -61.5l4 -69t4.5 -66.5t4.5 -53h13v13q0 13 -1.5 46.5t-3.5 72t-4.5 72
zM173 541q-3 -4 -4.5 -15t-1.5 -24q0 -14 1.5 -24.5t4.5 -15.5q3 -4 4.5 9.5t1.5 30.5q0 8 -0.5 16t-1 14t-2 8.5t-2.5 0.5zM424 330q-10 0 -10 -13t10 -13q11 0 11 13t-11 13zM199 422q-10 0 -10 -13t10 -13q11 0 11 13t-11 13zM120 119q-10 0 -10 -13q0 -14 10 -14
q11 0 11 14q0 13 -11 13zM226 356q-10 0 -10 -13t10 -13q11 0 11 13t-11 13zM397 660q-10 0 -10 -13t10 -13q11 0 11 13t-11 13zM410 172q-6 -6 -6 -20q0 -16 6 -20q4 -3 5.5 4.5t1.5 15.5t-1.5 14.5t-5.5 5.5zM173 330q2 -7 6 -7q5 0 6.5 7t-6.5 7t-6 -7z" />
    <glyph glyph-name="FL0027h" unicode="'" horiz-adv-x="191" 
d="M86 656q-11 0 -11 -14q0 -13 11 -13h17q14 0 14 7q6 12 -4.5 20t-26.5 0zM40 629q0 22 17 36.5t40 14.5t38 -14.5t16 -36.5q1 -16 -6 -37t-16.5 -39.5t-20.5 -31.5t-17 -13q-8 0 -3 18.5t9 53.5q1 11 -5.5 10.5t-17.5 -0.5q-9 0 -19 6.5t-15 32.5zM80 620q-10 0 -10 -11
q0 -15 10 -15q11 0 11 13t-11 13z" />
    <glyph glyph-name="FL0028h" unicode="(" horiz-adv-x="437" 
d="M40 332q0 -58 18 -108.5t49.5 -93t75.5 -75.5t95 -55h18q12 0 18.5 -0.5t19.5 -0.5h18q9 0 12.5 7t2.5 15.5t-6.5 14t-15.5 2.5q-50 -12 -89 13t-66.5 70.5t-42 103t-14.5 110.5q0 55 8.5 109t31 96.5t63 68.5t103.5 26q33 0 45.5 3t12.5 10q0 8 -14 16t-31 10
q-28 6 -62 -3t-68.5 -31t-67.5 -54.5t-58 -72.5t-40.5 -86t-15.5 -95zM173 132q11 0 11 -13t-11 -13q-10 0 -10 13t10 13zM133 145q11 0 11 -13t-11 -13q-10 0 -10 13t10 13zM92 198q0 3 1 7.5t1 5.5l26 -53v-6v-7q-28 19 -28 53zM146 172q11 0 11 -14q0 -13 -11 -13
q-10 0 -10 13q0 14 10 14zM133 211q7 -2 7 -13t-7 -13q-2 -1 -4 3.5t-2 9.5t2 9.5t4 3.5zM80 264q7 -6 7 -20q0 -13 -7 -20q-2 -3 -4 4t-2 16t2 16t4 4zM92 350q0 43 9 79.5t32 72.5v-7v-7q0 -3 -2 -12.5l-4.5 -20.5l-4.5 -20.5t-2 -12.5q0 -11 -0.5 -39t-0.5 -60
q0 -31 0.5 -59t0.5 -40q-19 29 -23.5 61.5t-4.5 64.5zM67 396q3 -7 4.5 -23.5t1.5 -35.5q0 -20 -1.5 -36.5t-4.5 -23.5q-2 -5 -3.5 3.5t-1.5 23.5v33v33q0 33 5 26zM80 449q4 -1 5.5 -3t1.5 -4q0 -4 -6.5 -6.5t-6.5 6.5t6 7zM120 528l-26 -53v7q0 13 7.5 26t18.5 20z
M146 541q11 0 11 -13t-11 -13q-10 0 -10 13t10 13z" />
    <glyph glyph-name="FL0029h" unicode=")" horiz-adv-x="444" 
d="M405 332q0 -58 -18 -108.5t-50 -93t-75.5 -75.5t-95.5 -55h-16q-14 0 -23.5 -2t-21.5 -2h-19q-9 0 -13 7t-3 15t6.5 14t15.5 3q49 -12 89.5 13.5t69 71.5t44.5 104t16 111q0 55 -9.5 108.5t-33.5 95.5t-65 67.5t-104 25.5q-37 0 -49 5.5t-9 12t16.5 13t28.5 9.5
q28 6 62.5 -3t70 -30.5t69 -53.5t59.5 -72t42 -86t16 -95zM272 132q-10 0 -10 -13t10 -13q11 0 11 13t-11 13zM311 145q-10 0 -10 -13t10 -13q11 0 11 13t-11 13zM352 198q0 3 -0.5 7.5t-0.5 5.5l-27 -53v-6v-7q28 19 28 53zM298 172q-10 0 -10 -14q0 -13 10 -13q11 0 11 13
q0 14 -11 14zM311 211q-6 -2 -6 -13t6 -13q4 -1 5.5 3.5t1.5 9.5t-1.5 9.5t-5.5 3.5zM364 264q-6 -8 -6 -20q0 -7 2 -11.5t4 -8.5q4 -3 5.5 4t1.5 16t-1.5 16t-5.5 4zM352 350q0 43 -9 79.5t-32 72.5v-7v-7q0 -3 2 -12.5l4.5 -20.5l4.5 -20.5t2 -12.5q0 -11 1 -39t1 -60
q0 -31 -1 -59t-1 -40q20 29 24 61.5t4 64.5zM377 396q-2 -7 -3.5 -23.5t-1.5 -35.5q0 -20 1.5 -36.5t3.5 -23.5q4 -5 5 3.5t1 23.5v33v33q0 31 -6 26zM364 449q-6 -2 -6 -7q0 -4 6.5 -6.5t6.5 6.5q0 8 -7 7zM324 528l27 -53v7q0 13 -8 26t-19 20zM298 541q-10 0 -10 -13
t10 -13q11 0 11 13t-11 13z" />
    <glyph glyph-name="FL002Ah" unicode="*" horiz-adv-x="408" 
d="M189 679l4 56q2 21 3 32.5t4 17t9.5 6t19.5 0.5l1 -123l102 29l16 -18q3 -8 -10.5 -11.5l-32.5 -8.5t-38.5 -13t-28.5 -23l101 -109v-26q-8 -4 -25 8t-37 29.5l-40.5 35.5t-36.5 26l-76 -58q-17 -12 -29 -19.5t-21 -10t-16 1t-16 13.5l123 112l-20 8l-92 39
q-5 7 -8.5 10.5t-6.5 7.5q6 0 15 6l119 -29l6 -27l-1 26zM124 565q20 4 32 11.5t27 21.5l1 3l-10 12q-7 -8 -13 -13.5t-9 -7.5l-14.5 -14zM176 634q-11 1 -19 0.5t-12 -0.5h31zM172 672l5 -5l-5 1v4z" />
    <glyph glyph-name="FL002Bh" unicode="+" horiz-adv-x="462" 
d="M216 461q2 21 4 34.5t6.5 22t11.5 11.5t20 3v-163h145l19 -17q-4 -8 -23 -12.5t-44 -7.5l-51.5 -6t-45.5 -8v-149l-15 -19q-9 2 -13.5 22t-7.5 46.5l-6 53.5t-9 44l-96 8l-35 5t-22 6.5t-11 12.5t-3 21h166zM134 351q19 -11 32.5 -12.5t33.5 -1.5h4l1 15q-11 2 -20 1
t-11 -1h-9q-5 0 -11.5 -0.5t-12.5 -0.5h-7zM242 437q-11 -20 -13 -33t-2 -33v-2h16q1 11 0.5 18.5t-0.5 9.5v8q0 6 -0.5 12.5t-0.5 11.5v8z" />
    <glyph glyph-name="FL002Ch" unicode="," horiz-adv-x="191" 
d="M86 77q-11 0 -11 -13t11 -13h17q14 0 14 6q6 12 -4.5 20t-26.5 0zM40 51q0 20 17 34.5t40 14.5t38 -14.5t16 -34.5q1 -17 -6 -38t-16.5 -40t-20.5 -32t-17 -13q-8 0 -3 18.5t9 53.5q1 11 -6 11h-17q-9 0 -19 6t-15 34zM80 41q-10 0 -10 -10q0 -17 10 -17q11 0 11 14
q0 13 -11 13z" />
    <glyph glyph-name="FL002Dh" unicode="-" horiz-adv-x="462" 
d="M111 324l134 -12q14 10 42 13.5t56.5 6.5t51.5 6.5t27 13.5l-19 17h-363q0 -13 3 -21t11 -12.5t22 -6.5zM272 349q22 2 27 1.5t1 -2t-13 -2t-15 2.5zM134 351h7q6 0 12.5 0.5t11.5 0.5h9q1 0 9 1t17.5 0t17 -4t9.5 -11q-3 0 -13 -0.5t-14 -0.5q-20 0 -33.5 1.5
t-32.5 12.5z" />
    <glyph glyph-name="FL002Eh" unicode="." horiz-adv-x="190" 
d="M86 77q16 8 26.5 0t4.5 -20q0 -6 -14 -6h-17q-11 0 -11 13t11 13zM40 51q0 -23 17 -37t40 -14t38.5 14t15.5 37q0 20 -15.5 34.5t-38.5 14.5t-40 -14.5t-17 -34.5zM80 41q11 0 11 -13q0 -14 -11 -14q-10 0 -10 17q0 10 10 10z" />
    <glyph glyph-name="FL002Fh" unicode="/" horiz-adv-x="537" 
d="M40 13q23 1 48 9t42 31q17 37 31.5 84t27 94.5t22.5 91t18 73.5l11 46q9 35 17.5 73t17.5 71l11 48q-5 22 -26 30t-43 9l3 13h277l-3 -13q-63 1 -92 -29t-43 -90l-117 -475q-5 -18 0 -32t16 -23t26.5 -12t32.5 1l-2 -13h-264zM189 26q3 4 -2 5t-10 1t-9.5 -1t-4.5 -5
q1 -6 11 -6q12 0 15 6zM222 53q-10 0 -15 -13q-2 -14 9 -14q10 0 13 14q3 13 -7 13zM218 251l-13 -37t-18 -55l-17 -55.5t-11 -37.5l-3 -13h13q4 9 12 33.5l17 51.5l16.5 51.5t9.5 34.5q2 4 5 13.5t3 13.5h-14zM222 106l-26 -53h13zM246 317q-2 1 -4.5 -3.5t-4 -10
t-0.5 -10.5t5 -3q7 4 9.5 13.5t-5.5 13.5zM326 634q0 9 -6.5 -10.5t-16 -53t-20 -74.5l-18.5 -75t-11 -54t2 -11q8 16 18.5 55l21.5 83q11 45 19.5 84.5t10.5 55.5zM352 634l-43 -172l60 185zM318 660q-9 0 -13 -13q-1 -13 7 -13q11 0 14 13q4 13 -8 13zM349 673
q-9 0 -15 -13q-3 -13 8 -13q12 0 13 13q6 13 -6 13z" />
    <glyph glyph-name="FL0030h" unicode="0" horiz-adv-x="858" 
d="M370 317q-30 -23 -53 -53.5t-43.5 -63.5l-41.5 -66t-46.5 -61t-57.5 -47.5t-75 -25.5h237q-24 7 -32 14t-8 24q0 35 21 65.5t45.5 59.5t45.5 58.5t21 62.5v6q-1 4 -5.5 13.5t-7.5 13.5zM582 33q0 -8 -0.5 -19t-13.5 -14h237l13 13q-25 -4 -45.5 0.5t-39.5 12l-38.5 14.5
t-41.5 7q0 13 3.5 20.5t3.5 12.5t-5.5 11.5t-20.5 14.5q-4 0 -9 -5t-5 -9t-0.5 -13t-0.5 -20t0.5 -19.5t0.5 -13.5l-8 15.5l-12.5 24l-12 24t-6.5 16.5q-1 1 0.5 6.5t1.5 6.5h24v-13q4 1 8 5t5 8v6v7l-26 53l-26 -13q3 0 8 -5t5 -9t-5 -13.5t-8 -12.5l-27 13v-6v-7
q2 -3 8 -15l13 -25.5l12.5 -25l6.5 -13.5q0 -1 0.5 -8.5t0.5 -11.5zM158 26q20 18 38 38t35 41l35 41.5t38 38.5q0 -1 0.5 -3.5t0.5 -3.5q0 -16 -14 -35t-32 -38l-35.5 -36t-25.5 -29q-1 -4 1.5 -5t2.5 -3q3 0 5.5 -3.5t3.5 -2.5q4 4 8 13.5t5 13.5q0 -1 1 -5.5t1 -7.5
q0 -28 -28 -28q-11 0 -20 2.5t-20 11.5zM686 32v-19h-52q3 11 16.5 15t24.5 4h11zM647 79q11 0 11 -13t-11 -13t-11 13t11 13zM634 92q11 0 11 -13t-11 -13t-11 13t11 13zM594 158q11 0 11 -13t-11 -13t-11 13t11 13zM528 172q-11 0 -11 -14q0 -13 11 -13t11 13q0 14 -11 14
zM515 185q-7 1 -7 -7t6.5 -6.5t6.5 6.5t-6 7zM515 211q2 -2 8 -7t12.5 -11.5t11.5 -12.5t7 -8q4 3 8 13t6 13q0 1 1 6.5t1 6.5h-22v22q0 10 -3 16t-11 8.5t-24 2.5q0 6 2.5 12.5t3 12.5t-2 11t-11.5 8q-4 -4 -8 -13.5t-6 -13.5v-6v-7l14 -26v-7v-7l-40 27q0 -1 -0.5 -3.5
t-0.5 -3.5t0.5 -3.5l0.5 -2.5q2 -4 6 -10.5l8 -13l7 -11.5t5 -5q4 -1 13.5 6.5t13.5 6.5zM541 238q11 0 11 -14q0 -13 -11 -13t-11 13q0 14 11 14zM528 251q11 0 11 -13q0 -14 -11 -14t-11 14q0 13 11 13zM343 277q11 0 11 -13t-11 -13t-11 13t11 13zM449 277q-7 1 -7 -6
q0 -8 6.5 -6.5t6.5 6.5q0 4 -6 6zM502 290q11 0 11 -13t-11 -13t-11 13t11 13zM381 370q0 -12 5.5 -23t14 -21.5t18 -19.5l17.5 -16v53h13v-13q7 1 10.5 8.5t4 16t0 17t-1.5 11.5l172 237q12 18 32 27t43 13t45 4.5t38 0.5v8q-13 2 -47 4t-72 4t-72 3.5t-47 1.5h-32
q0 -10 7.5 -14.5t16 -8t16 -8.5t7.5 -15q0 -1 -0.5 -3.5l-0.5 -2.5l-15 -29.5l-22.5 -43t-27 -48l-27.5 -45t-24 -33.5t-16 -13q-4 0 -13.5 7.5t-13.5 6.5q-7 -4 -16.5 -18.5t-9.5 -21.5l26 13v-39h-28zM475 304q-11 0 -11 -14q0 -13 11 -13t11 13q0 14 -11 14zM475 330
q-3 -1 -7.5 -5.5t-5.5 -7.5l-0.5 -3t-0.5 -4t0.5 -3t0.5 -3zM488 330q-11 0 -11 -13t11 -13t11 13t-11 13zM370 396q-11 0 -11 -13t11 -13t11 13t-11 13zM276 508q0 -12 8.5 -27.5t20.5 -31.5t26 -30t25 -23v7v6l-26 53v7v6q3 -3 13 -7.5t13 -5.5q2 0 7.5 1t6.5 1v-15
q11 4 14 17t3 22h-33q0 23 -10.5 41.5t-22.5 35.5t-22.5 34.5t-10.5 40.5q0 6 0.5 12.5t3.5 12t8.5 8t16.5 0.5l-13 13h-264q4 -10 21.5 -17t38.5 -11.5t41 -7t31 -2.5v-41q-2 10 0.5 16t7.5 8.5t11.5 3t12.5 0.5q9 0 19.5 -0.5t14.5 -14.5l13 27q3 -4 8 -13t5 -14
q0 -3 -5 -8t-8 -5q4 -8 7 -11t6 -3t7 1.5t11 1.5q0 -11 -1 -18.5t0 -12t6 -6.5t17 -2v-42l26 13v-7v-6q-1 -4 -5.5 -13.5t-7.5 -13.5l-40 27q0 -1 -0.5 -3.5t-0.5 -3.5zM449 409q11 0 11 -13t-11 -13t-11 13t11 13zM396 449q-3 -1 -7.5 -5.5t-5.5 -7.5l-0.5 -3t-0.5 -4
t0.5 -3t0.5 -4zM343 515q11 0 11 -13q0 -14 -11 -14t-11 14q0 13 11 13zM198 607q11 -23 28.5 -42.5t37.5 -36.5q0 1 0.5 3t0.5 4q0 1 -0.5 3.5l-0.5 2.5q-1 1 -5.5 7.5l-10.5 15l-12.5 17t-11.5 13.5q-3 3 -7.5 8t-5.5 5l-2.5 0.5t-3.5 0.5t-3.5 -0.5t-3.5 -0.5zM317 554
q11 0 11 -13t-11 -13t-11 13t11 13zM634 647q-2 -6 -8.5 -14t-14.5 -16.5t-16.5 -15t-13.5 -7.5q-6 -2 2.5 8.5t20 22t21.5 19.5t9 3zM594 647q7 -2 7 -7q0 -4 -7 -6.5t-7 6.5t7 7zM224 660q-2 -7 -6 -7q-5 0 -6.5 7t6.5 7q9 0 6 -7zM620 673q11 0 11 -13t-11 -13t-11 13
t11 13z" />
    <glyph glyph-name="FL0031h" unicode="1" horiz-adv-x="370" 
d="M40 13l13 -13h264v13q-17 -4 -33.5 -1t-29.5 12t-21.5 23t-8.5 32v475q0 60 21.5 90t84.5 29v13h-277v-13q23 -1 45.5 -8.5t33.5 -30.5v-48q0 -33 0.5 -71t0.5 -73v-46q0 -30 1 -73.5t0 -91t-4 -94.5t-11 -84q-11 -23 -33.5 -31t-45.5 -9zM185 26q-2 -6 -13 -6
q-13 0 -14 6q-1 4 4 5t10 1t9.5 -1t3.5 -5zM211 53q11 0 11 -13q0 -14 -11 -14t-11 14q0 13 11 13zM158 251h15q0 -4 -0.5 -13.5t-0.5 -13.5q0 -10 -1.5 -34.5t-3.5 -51.5t-4.5 -51t-4.5 -34h-13v13q0 11 1.5 37.5t3.5 55.5t4 55t4 37zM198 106v-53h-13zM172 317q6 -2 6 -13
q0 -13 -6 -14q-4 -1 -5.5 4t-1.5 10t1.5 9.5t5.5 3.5zM172 634q3 -16 4 -55.5t1 -84.5q0 -44 -1 -83t-4 -55q-2 -7 -3.5 3t-2.5 30.5t-1 48.5v57v58t1 48t2.5 30t3.5 3zM198 634l13 13l-13 -185v172zM158 660q11 0 11 -13t-11 -13t-11 13t11 13zM185 673q11 0 11 -13
t-11 -13t-11 13t11 13z" />
    <glyph glyph-name="FL0032h" unicode="2" horiz-adv-x="621" 
d="M291 13q23 1 46 9t34 31q8 37 11 84t4 94.5t0 91t-1 73.5v46q0 35 -0.5 73t-0.5 71v48q-11 23 -33.5 30.5t-45.5 8.5v13h277v-13q-62 1 -84 -29t-22 -90v-475q0 -18 8.5 -32t22 -23t30 -12t32.5 1v-13h-264zM437 26q1 4 -3.5 5t-9.5 1t-10 -1t-4 -5q1 -6 14 -6q11 0 13 6
zM463 53q-10 0 -10 -13q0 -14 10 -14q11 0 11 14q0 13 -11 13zM410 251q-1 -11 -3 -37t-4.5 -55t-4 -55.5t-1.5 -37.5v-13h13q2 10 4.5 34t4.5 51t3.5 51.5t1.5 34.5q0 4 0.5 13.5t0.5 13.5h-15zM450 106l-13 -53h13v53zM424 317q-3 1 -5 -3.5t-2 -9.5t2 -10t5 -4q6 1 6 14
q0 11 -6 13zM424 634q-5 9 -6 -15t-1 -66v-58v-57q0 -42 1 -66.5t6 -15.5q3 16 4 55t1 83q0 45 -1 84.5t-4 55.5zM450 634v-172l13 185zM410 660q-10 0 -10 -13t10 -13q11 0 11 13t-11 13zM437 673q-10 0 -10 -13t10 -13q11 0 11 13t-11 13zM40 11q23 1 45.5 9t33.5 31
q8 37 11 84t4 94t0 90.5t-1 74.5v46q0 35 -0.5 73t-0.5 70v48q-11 23 -33.5 30.5t-45.5 9.5v13l238 2v-13q-31 0 -45 -8t-19 -23t-4 -37.5t1 -52.5v-475q0 -37 11 -54.5t43 -9.5v-13l-225 -2zM185 24q1 3 -3.5 4t-9.5 1t-10 -1t-4 -4q1 -6 14 -6q11 0 13 6zM211 51
q-11 0 -11 -14q0 -13 11 -13t11 13q0 14 -11 14zM158 249q-2 -11 -4 -37.5l-4 -55.5t-3.5 -55.5t-1.5 -36.5v-13h13q2 10 4.5 34t4.5 51t3.5 51t1.5 35q0 3 0.5 13t0.5 14h-15zM198 103l-13 -52h13v52zM172 315q-4 1 -5.5 -4t-1.5 -10t1.5 -10t5.5 -3q3 1 4.5 4.5t1.5 8.5
q0 9 -6 14zM172 631q-5 8 -6 -15t-1 -66v-57v-57q0 -44 1 -67.5t6 -14.5q3 16 4 54.5t1 82.5q0 45 -1 84t-4 56zM198 631v-171l13 185zM158 658q-11 0 -11 -13q0 -14 11 -14t11 14q0 13 -11 13zM185 671q-11 0 -11 -13t11 -13t11 13t-11 13z" />
    <glyph glyph-name="FL0033h" unicode="3" horiz-adv-x="858" 
d="M40 13l13 -13h233l3 -2l226 2v13q-33 -8 -43.5 9.5t-10.5 54.5v475q0 30 -1.5 52.5t3.5 37.5t19 23t46 8v13l-198 -2v2h-277v-13q23 -1 45.5 -8.5t33.5 -30.5v-48q0 -33 0.5 -71t0.5 -73v-46q0 -30 1 -73.5t0 -91t-4 -94.5t-11 -84q-11 -23 -33.5 -31t-45.5 -9zM224 79
v475q0 51 14 80t55 37q23 -3 44 -10t32 -30v-48q0 -32 0.5 -70t0.5 -73v-46q0 -31 0.5 -74.5t0 -90.5t-4 -94t-11.5 -84q-11 -20 -28.5 -29t-38.5 -11q-27 2 -45.5 20.5t-18.5 47.5zM528 13l13 -13h264v13q-17 -4 -33 -1t-29.5 12t-21.5 23t-8 32v475q0 60 21.5 90t83.5 29
v13h-277v-13q23 -1 45.5 -8.5t33.5 -30.5v-48q0 -33 0.5 -71t0.5 -73v-46q0 -30 1 -73.5t0 -91t-4 -94.5t-11 -84q-11 -23 -33.5 -31t-45.5 -9zM158 251h15q0 -4 -0.5 -13.5t-0.5 -13.5q0 -10 -1.5 -34.5t-3.5 -51.5t-4.5 -51t-4.5 -34h-13v13q0 11 1.5 37.5t3.5 55.5t4 55
t4 37zM395 249h14q0 -4 -0.5 -14t-0.5 -13q0 -11 -1.5 -35t-4 -51t-4.5 -51t-3 -34h-13v13q0 10 1.5 36.5t3.5 55.5l4 55.5t4 37.5zM647 251h14q0 -4 -0.5 -13.5t-0.5 -13.5q0 -10 -1.5 -34.5t-3.5 -51.5t-4.5 -51l-3.5 -34h-13v13q0 11 1.5 37.5t3.5 55.5t4 55t4 37z
M660 634q3 -16 4 -55.5t1 -84.5q0 -44 -1 -83t-4 -55q-5 -9 -6 15.5t-1 66.5v115q0 42 1 66t6 15zM408 631q2 -17 4 -56t2 -84q0 -44 -2 -82.5t-4 -54.5q-4 -9 -5 14.5t-1 67.5v114q0 43 1 66t5 15zM172 634q3 -16 4 -55.5t1 -84.5q0 -44 -1 -83t-4 -55q-5 -9 -6 15.5
t-1 66.5v57v58q0 42 1.5 66.5t5.5 14.5zM686 462v172l14 13zM435 460v171l13 14zM198 634l13 13l-13 -185v172zM448 51q10 0 10 -14q0 -13 -10 -13q-11 0 -11 13q0 14 11 14zM395 658q10 0 10 -13q0 -14 -10 -14q-11 0 -11 14q0 13 11 13zM673 673q11 0 11 -13t-11 -13
t-11 13t11 13zM700 53q11 0 11 -13q0 -14 -11 -14t-11 14q0 13 11 13zM158 660q11 0 11 -13t-11 -13t-11 13t11 13zM185 673q11 0 11 -13t-11 -13t-11 13t11 13zM211 53q11 0 11 -13q0 -14 -11 -14t-11 14q0 13 11 13zM647 660q11 0 11 -13t-11 -13t-11 13t11 13zM421 671
q10 0 10 -13t-10 -13q-11 0 -11 13t11 13zM198 106v-53h-13zM673 53l13 53v-53h-13zM421 51l14 52v-52h-14zM660 317q7 -2 7 -13q0 -12 -7 -14q-3 -1 -5 4t-2 10t2 9.5t5 3.5zM172 317q6 -2 6 -13q0 -13 -6 -14q-4 -1 -5.5 4t-1.5 10t1.5 9.5t5.5 3.5zM408 315
q2 -2 4.5 -5.5t2.5 -8.5q0 -11 -7 -13q-3 -2 -4.5 3t-1.5 10t1.5 10t4.5 4zM185 26q-2 -6 -13 -6q-13 0 -14 6q-1 4 4 5t10 1t9.5 -1t3.5 -5zM421 24q-2 -6 -13 -6q-5 0 -8.5 1.5t-4.5 4.5t3.5 4t9.5 1t9.5 -1t3.5 -4zM673 26q-2 -6 -13 -6q-12 0 -13 6q-1 4 3.5 5t9.5 1
t9.5 -1t3.5 -5z" />
    <glyph glyph-name="FL0034h" unicode="4" horiz-adv-x="942" 
d="M466 13q-6 17 -17 53l-25.5 82l-30.5 96l-30 96l-25.5 82t-16.5 53q-6 19 -14.5 42t-18.5 46t-21.5 45t-24.5 39q-8 9 -19.5 11.5t-23 4.5t-21.5 6.5t-15 16.5h264v-13q-4 3 -14 2.5t-21 -3t-20 -6t-11 -6.5q-2 0 -3.5 -11.5t-1.5 -19.5q0 -5 1.5 -18.5t3.5 -16.5
l145 -449l-26 27q0 -2 -1.5 -6t-1.5 -8q0 -20 16 -39q51 112 94 222.5l91 226.5q0 4 0.5 19t0.5 20q0 20 -2 32t-9 18.5t-20.5 10t-35.5 5.5l13 13h237l40 -13q-1 -5 -17 -8t-37 -7.5t-43 -13t-35 -24.5q-2 -2 -5.5 -7.5t-8 -11.5t-8 -12t-4.5 -8l-238 -555q-3 -5 -7.5 -15
t-5.5 -11l-2 -0.5t-5 -0.5q-2 0 -4 0.5l-2 0.5q-4 1 -8 5.5t-6 7.5zM480 79q-7 1 -7 -6q0 -9 6.5 -7t6.5 7q0 4 -6 6zM466 119q-3 1 -4.5 -3.5t-1.5 -9.5t1.5 -10t4.5 -4q7 3 7 14t-7 13zM453 158q-6 1 -6 -6q0 -8 6.5 -6.5t6.5 6.5q0 4 -7 6zM440 198q-3 1 -5 -3.5t-2 -9.5
t2 -10t5 -3q7 2 7 13t-7 13zM466 198q-6 1 -6 -7t6.5 -6.5t6.5 6.5t-7 7zM427 224q-7 3 -7 -6q0 -8 6.5 -6.5t6.5 6.5q0 4 -6 6zM453 251q-3 1 -4.5 -3.5t-1.5 -9.5t1.5 -10t4.5 -4q7 3 7 14t-7 13zM414 277q-11 0 -11 -13t11 -13q10 0 10 13t-10 13zM440 277q-7 2 -7 -6
t7 -6.5t7 6.5q0 4 -7 6zM400 317q-3 1 -4.5 -3.5t-1.5 -9.5t1.5 -10t4.5 -4q7 2 7 14q0 11 -7 13zM427 317q-4 1 -5.5 -3.5t-1.5 -9.5t1.5 -10t5.5 -4q6 2 6 14q0 11 -6 13zM387 356q-3 2 -4.5 -3t-1.5 -10t1.5 -9.5t4.5 -3.5q7 2 7 13t-7 13zM414 356q-7 3 -7 -6
q0 -8 6.5 -6.5t6.5 6.5q0 4 -6 6zM374 396q-3 1 -5 -3.5t-2 -9.5t2 -9.5t5 -3.5q7 2 7 13t-7 13zM400 409q-3 1 -4.5 -3.5t-1.5 -9.5t1.5 -9.5t4.5 -3.5q7 2 7 13t-7 13zM361 436q-4 1 -5.5 -4t-1.5 -10t1.5 -9.5t5.5 -3.5q6 2 6 13q0 12 -6 14zM387 436q-6 1 -6 -7
q0 -9 6.5 -6.5t6.5 6.5q0 5 -7 7zM348 475q-7 1 -7 -6q0 -9 6.5 -7t6.5 7q0 4 -6 6zM374 488q-3 2 -5 -3t-2 -10t2 -9.5t5 -3.5q7 2 7 13t-7 13zM361 515q-7 1 -7 -7q0 -9 6.5 -6.5t6.5 6.5q0 5 -6 7zM334 528q-11 0 -11 -13t11 -13q10 0 10 13t-10 13zM321 554q-6 1 -6 -6
q0 -9 6.5 -7t6.5 7q0 4 -7 6zM348 568q-4 1 -5.5 -4t-1.5 -10t1.5 -9.5t5.5 -3.5q6 2 6 13q0 10 -6 14zM308 594q-7 2 -7 -7t7 -6.5t7 6.5q0 5 -7 7zM319 647q0 -4 1 -7t1 -6t1.5 -10.5t3.5 -16t4 -16t4 -10.5v66h-15zM757 647q-13 -9 -26.5 -26t-13.5 -34v-6q11 15 21.5 32
t18.5 34zM282 634l13 -27v27h-13zM717 647q-11 0 -11 -13q0 -14 11 -14q10 0 10 14q0 13 -10 13zM308 660q2 7 -7 7q-8 0 -6.5 -7t6.5 -7q3 0 7 7zM40 13q23 1 45.5 9t33.5 31q8 37 11 84t4 94.5t0 91t-1 73.5v46q0 35 -0.5 73t-0.5 71v48q-11 23 -33.5 30.5t-45.5 8.5v13
h277v-13q-63 1 -84.5 -29t-21.5 -90v-475q0 -18 8.5 -32t21.5 -23t29.5 -12t33.5 1v-13h-264zM185 26q1 4 -3.5 5t-9.5 1t-10 -1t-4 -5q1 -6 14 -6q11 0 13 6zM211 53q-11 0 -11 -13q0 -14 11 -14t11 14q0 13 -11 13zM158 251q-2 -11 -4 -37t-4 -55t-3.5 -55.5t-1.5 -37.5
v-13h13q2 10 4.5 34t4.5 51t3.5 51.5t1.5 34.5q0 4 0.5 13.5t0.5 13.5h-15zM198 106l-13 -53h13v53zM172 317q-4 1 -5.5 -3.5t-1.5 -9.5t1.5 -10t5.5 -4q6 1 6 14q0 11 -6 13zM172 634q-5 9 -6 -15t-1 -66v-58v-57q0 -42 1 -66.5t6 -15.5q3 16 4 55t1 83q0 45 -1 84.5
t-4 55.5zM198 634v-172l13 185zM158 660q-11 0 -11 -13t11 -13t11 13t-11 13zM185 673q-11 0 -11 -13t11 -13t11 13t-11 13z" />
    <glyph glyph-name="FL0035h" unicode="5" horiz-adv-x="818" 
d="M343 13q1 -3 5.5 -7.5t7.5 -5.5l3 -0.5t4 -0.5q3 0 5 0.5l2 0.5q1 1 5 11t8 15l237 555q2 2 5.5 8t8 12t8 11.5t5.5 7.5q13 16 35 24.5t43.5 13l37 7.5t16.5 8l-40 13h-237l-14 -13q22 -2 35.5 -5.5t20.5 -10t9 -18.5t2 -32q0 -5 -0.5 -20t-0.5 -19l-90.5 -226
t-93.5 -223q-9 11 -12 19.5t-3 19.5q0 4 0.5 8t0.5 6l27 -27l-145 449q-1 3 -3 16.5t-2 18.5q0 8 2 19.5t3 11.5q2 3 11 6.5t20 6t21 3t14 -2.5v13h-264q5 -12 15 -16.5t21.5 -6.5t23 -4.5t19.5 -11.5q13 -17 24.5 -39t21.5 -45t18 -46l15 -42q5 -17 16.5 -53l26 -82l30 -96
l30 -96l26 -82t16.5 -53zM356 79q7 -1 7 -6t-6.5 -7t-6.5 7q0 7 6 6zM343 119q4 -1 5.5 -4.5t1.5 -8.5q0 -11 -7 -14q-3 -1 -4.5 4t-1.5 10t1.5 9.5t4.5 3.5zM330 158q7 -2 7 -6q0 -5 -7 -6.5t-7 6.5t7 6zM317 198q6 -2 6 -13q0 -12 -6 -13q-4 -2 -5.5 3t-1.5 10t1.5 9.5
t5.5 3.5zM343 198q7 -1 7 -7q0 -5 -6.5 -6.5t-6.5 6.5t6 7zM304 224q6 -2 6 -6q0 -5 -6.5 -6.5t-6.5 6.5q0 9 7 6zM330 251q7 -2 7 -13t-7 -14q-3 -1 -5 4t-2 10t2 9.5t5 3.5zM290 277q11 0 11 -13t-11 -13t-11 13t11 13zM317 277q6 -2 6 -6q0 -5 -6.5 -6.5t-6.5 6.5
q0 7 7 6zM277 317q4 -1 5.5 -4.5t1.5 -8.5q0 -13 -7 -14q-3 -1 -4.5 4t-1.5 10t1.5 9.5t4.5 3.5zM304 317q6 -2 6 -13q0 -13 -6 -14q-4 -1 -5.5 4t-1.5 10t1.5 9.5t5.5 3.5zM264 356q7 -2 7 -13t-7 -13q-3 -1 -5 3.5t-2 9.5t2 10t5 3zM290 356q7 -1 7 -6t-6.5 -6.5t-6.5 6.5
q0 9 6 6zM251 396q6 -2 6 -13q0 -12 -6 -13q-4 -1 -5.5 3.5t-1.5 9.5t1.5 9.5t5.5 3.5zM277 409q7 -1 7 -13t-7 -13q-3 -1 -4.5 3.5t-1.5 9.5t1.5 9.5t4.5 3.5zM238 436q6 -2 6 -14q0 -5 -1.5 -8.5t-4.5 -4.5q-4 -1 -5.5 3.5t-1.5 9.5t1.5 10t5.5 4zM264 436q7 -2 7 -7
q0 -4 -7 -6.5t-7 6.5t7 7zM224 475q7 -1 7 -6t-6.5 -7t-6.5 7q0 7 6 6zM251 488q6 -2 6 -13q0 -5 -1.5 -8.5t-4.5 -4.5q-4 -1 -5.5 3.5t-1.5 9.5t1.5 10t5.5 3zM238 515q6 -2 6 -7q0 -4 -6.5 -6.5t-6.5 6.5q0 8 7 7zM211 528q11 0 11 -13t-11 -13t-11 13t11 13zM198 554
q7 -2 7 -6q0 -5 -7 -7t-7 7q0 8 7 6zM224 568q7 -3 7 -14q0 -5 -1.5 -8.5t-5.5 -4.5q-3 -1 -4.5 3.5t-1.5 9.5t1.5 10t4.5 4zM185 594q6 -2 6 -7q0 -4 -6.5 -6.5t-6.5 6.5q0 8 7 7zM197 647h14v-66q-2 3 -4 10.5t-4 16t-3.5 16t-1.5 10.5t-0.5 6t-0.5 7zM634 647
q-7 -17 -18 -34t-22 -32v6q0 17 14 34t26 26zM158 634h14v-27zM594 647q11 0 11 -13q0 -14 -11 -14t-11 14q0 13 11 13zM185 660q-2 -7 -7 -7t-6.5 7t6.5 7q9 0 7 -7z" />
    <glyph glyph-name="FL0036h" unicode="6" horiz-adv-x="1009" 
d="M679 13l13 -13h264v13q-17 -4 -33 -1t-29.5 12t-21.5 23t-8 32v475q0 60 21.5 90t83.5 29v13h-467l-14 -13q22 -2 35.5 -5.5t20.5 -10t9 -18.5t2 -32q0 -5 -0.5 -20t-0.5 -19l-85.5 -211l-86.5 -211l-144 448q-1 3 -3 16.5t-2 18.5q0 8 2 19.5t3 11.5q2 3 11 6.5t20 6
t21 3t14 -2.5v13h-264q5 -12 15 -16.5t21.5 -6.5t23 -4.5t19.5 -11.5q13 -17 24.5 -39t21.5 -45t18 -46l15 -42q5 -17 16.5 -53l26 -82l30 -96l30 -96l26 -82t16.5 -53q1 -3 5.5 -7.5t7.5 -5.5l3 -0.5t4 -0.5q3 0 5 0.5l2 0.5q1 1 5 11t8 15l237 555q2 2 5.5 8t8 12t8 11.5
t5.5 7.5q16 20 44.5 28t52.5 13q8 -6 15 -12.5t12 -14.5v-48q0 -33 0.5 -71t0.5 -73v-46q0 -30 1 -73.5t0 -91t-4 -94.5t-11 -84q-11 -23 -34 -31t-45 -9zM798 251h14q0 -4 -0.5 -13.5t-0.5 -13.5q0 -10 -1.5 -34.5t-4 -51.5t-4.5 -51t-3 -34h-14v13q0 11 1.5 37.5t3.5 55.5
t4.5 55t4.5 37zM811 634q2 -16 3.5 -55.5t1.5 -84.5q0 -44 -1.5 -83t-3.5 -55q-5 -9 -6 15.5t-1 66.5v57v58q0 42 1.5 66.5t5.5 14.5zM837 634l13 13l-13 -185v172zM382 145q-4 -7 -6.5 -13l-5.5 -13q-9 11 -12 19.5t-3 19.5q0 4 0.5 8t0.5 6zM634 647q-7 -17 -18 -34
t-22 -32v6q0 17 14 34t26 26zM197 647h14v-66q-2 3 -4 10.5t-4 16t-3.5 16t-1.5 10.5t-0.5 6t-0.5 7zM850 53q10 0 10 -13q0 -14 -10 -14q-11 0 -11 14q0 13 11 13zM594 647q11 0 11 -13q0 -14 -11 -14t-11 14q0 13 11 13zM798 660q9 0 9 -13t-9 -13q-11 0 -11 13t11 13z
M824 673q10 0 10 -13t-10 -13q-11 0 -11 13t11 13zM290 277q11 0 11 -13t-11 -13t-11 13t11 13zM211 528q11 0 11 -13t-11 -13t-11 13t11 13zM837 106v-53h-13zM238 436q6 -2 6 -14q0 -5 -1.5 -8.5t-4.5 -4.5q-4 -1 -5.5 3.5t-1.5 9.5t1.5 10t5.5 4zM264 356q7 -2 7 -13
t-7 -13q-3 -1 -5 3.5t-2 9.5t2 10t5 3zM317 198q6 -2 6 -13q0 -12 -6 -13q-4 -2 -5.5 3t-1.5 10t1.5 9.5t5.5 3.5zM277 409q7 -1 7 -13t-7 -13q-3 -1 -4.5 3.5t-1.5 9.5t1.5 9.5t4.5 3.5zM811 317q6 -2 6 -13q0 -12 -6 -14q-4 -1 -5.5 4t-1.5 10t1.5 9.5t5.5 3.5zM330 251
q7 -2 7 -13t-7 -14q-3 -1 -5 4t-2 10t2 9.5t5 3.5zM251 488q6 -2 6 -13q0 -5 -1.5 -8.5t-4.5 -4.5q-4 -1 -5.5 3.5t-1.5 9.5t1.5 10t5.5 3zM343 119q4 -1 5.5 -4.5t1.5 -8.5q0 -11 -7 -14q-3 -1 -4.5 4t-1.5 10t1.5 9.5t4.5 3.5zM224 568q7 -3 7 -14q0 -5 -1.5 -8.5
t-5.5 -4.5q-3 -1 -4.5 3.5t-1.5 9.5t1.5 10t4.5 4zM251 396q6 -2 6 -13q0 -12 -6 -13q-4 -1 -5.5 3.5t-1.5 9.5t1.5 9.5t5.5 3.5zM277 317q4 -1 5.5 -4.5t1.5 -8.5q0 -13 -7 -14q-3 -1 -4.5 4t-1.5 10t1.5 9.5t4.5 3.5zM304 317q6 -2 6 -13q0 -13 -6 -14q-4 -1 -5.5 4
t-1.5 10t1.5 9.5t5.5 3.5zM824 26q-2 -6 -13 -6q-12 0 -13 6q-2 4 3 5t10 1t9.5 -1t3.5 -5zM158 634h14v-27zM264 436q7 -2 7 -7q0 -4 -7 -6.5t-7 6.5t7 7zM330 158q7 -2 7 -6q0 -5 -7 -6.5t-7 6.5t7 6zM304 224q6 -2 6 -6q0 -5 -6.5 -6.5t-6.5 6.5q0 9 7 6zM238 515
q6 -2 6 -7q0 -4 -6.5 -6.5t-6.5 6.5q0 8 7 7zM185 660q-2 -7 -7 -7t-6.5 7t6.5 7q9 0 7 -7zM343 198q7 -1 7 -7q0 -5 -6.5 -6.5t-6.5 6.5t6 7zM224 475q7 -1 7 -6t-6.5 -7t-6.5 7q0 7 6 6zM198 554q7 -2 7 -6q0 -5 -7 -7t-7 7q0 8 7 6zM317 277q6 -2 6 -6q0 -5 -6.5 -6.5
t-6.5 6.5q0 7 7 6zM356 79q7 -1 7 -6t-6.5 -7t-6.5 7q0 7 6 6zM185 594q6 -2 6 -7q0 -4 -6.5 -6.5t-6.5 6.5q0 8 7 7zM290 356q7 -1 7 -6t-6.5 -6.5t-6.5 6.5q0 9 6 6z" />
    <glyph glyph-name="FL0037h" unicode="7" horiz-adv-x="1230" 
d="M185 660q-2 -7 -7 -7t-6.5 7t6.5 7q9 0 7 -7zM594 647q11 0 11 -13q0 -14 -11 -14t-11 14q0 13 11 13zM172 634v-27l-14 27h14zM634 647q-7 -17 -18 -34t-22 -32v6q0 17 14 34t26 26zM211 647v-66q-2 3 -4 10.5t-4 16t-3.5 16t-1.5 10.5t-0.5 6t-0.5 7h14zM185 594
q6 -2 6 -7q0 -4 -6.5 -6.5t-6.5 6.5q0 8 7 7zM224 568q7 -3 7 -14q0 -5 -1.5 -8.5t-5.5 -4.5q-3 -1 -4.5 3.5t-1.5 9.5t1.5 10t4.5 4zM198 554q7 -2 7 -6q0 -5 -7 -7t-7 7q0 8 7 6zM211 528q11 0 11 -13t-11 -13t-11 13t11 13zM238 515q6 -2 6 -7q0 -4 -6.5 -6.5t-6.5 6.5
q0 8 7 7zM251 488q6 -2 6 -13q0 -5 -1.5 -8.5t-4.5 -4.5q-4 -1 -5.5 3.5t-1.5 9.5t1.5 10t5.5 3zM224 475q7 -1 7 -6t-6.5 -7t-6.5 7q0 7 6 6zM264 436q7 -2 7 -7q0 -4 -7 -6.5t-7 6.5t7 7zM238 436q6 -2 6 -14q0 -5 -1.5 -8.5t-4.5 -4.5q-4 -1 -5.5 3.5t-1.5 9.5t1.5 10
t5.5 4zM277 409q7 -1 7 -13t-7 -13q-3 -1 -4.5 3.5t-1.5 9.5t1.5 9.5t4.5 3.5zM251 396q6 -2 6 -13q0 -12 -6 -13q-4 -1 -5.5 3.5t-1.5 9.5t1.5 9.5t5.5 3.5zM290 356q7 -1 7 -6t-6.5 -6.5t-6.5 6.5q0 9 6 6zM264 356q7 -2 7 -13t-7 -13q-3 -1 -5 3.5t-2 9.5t2 10t5 3z
M304 317q6 -2 6 -13q0 -13 -6 -14q-4 -1 -5.5 4t-1.5 10t1.5 9.5t5.5 3.5zM277 317q4 -1 5.5 -4.5t1.5 -8.5q0 -13 -7 -14q-3 -1 -4.5 4t-1.5 10t1.5 9.5t4.5 3.5zM317 277q6 -2 6 -6q0 -5 -6.5 -6.5t-6.5 6.5q0 7 7 6zM290 277q11 0 11 -13t-11 -13t-11 13t11 13zM330 251
q7 -2 7 -13t-7 -14q-3 -1 -5 4t-2 10t2 9.5t5 3.5zM304 224q6 -2 6 -6q0 -5 -6.5 -6.5t-6.5 6.5q0 9 7 6zM343 198q7 -1 7 -7q0 -5 -6.5 -6.5t-6.5 6.5t6 7zM317 198q6 -2 6 -13q0 -12 -6 -13q-4 -2 -5.5 3t-1.5 10t1.5 9.5t5.5 3.5zM330 158q7 -2 7 -6q0 -5 -7 -6.5t-7 6.5
t7 6zM343 119q4 -1 5.5 -4.5t1.5 -8.5q0 -11 -7 -14q-3 -1 -4.5 4t-1.5 10t1.5 9.5t4.5 3.5zM356 79q7 -1 7 -6t-6.5 -7t-6.5 7q0 7 6 6zM343 13q1 -3 5.5 -7.5t7.5 -5.5l3 -0.5t4 -0.5q3 0 5 0.5l2 0.5q1 1 5 11t8 15l237 555q2 2 5.5 8t8 12t8 11.5t5.5 7.5q13 16 35 24.5
t43.5 13l37 7.5t16.5 8l-40 13h-237l-14 -13q22 -2 35.5 -5.5t20.5 -10t9 -18.5t2 -32q0 -5 -0.5 -20t-0.5 -19l-90.5 -226.5t-93.5 -222.5q-9 11 -12 19.5t-3 19.5q0 4 0.5 8t0.5 6l27 -27l-145 449q-1 3 -3 16.5t-2 18.5q0 8 2 19.5t3 11.5q2 3 11 6.5t20 6t21 3t14 -2.5
v13h-264q5 -12 15 -16.5t21.5 -6.5t23 -4.5t19.5 -11.5q13 -17 24.5 -39t21.5 -45t18 -46l15 -42q5 -17 16.5 -53l26 -82l30 -96l30 -96l26 -82t16.5 -53zM900 15l13 -13h264v13q-16 -4 -32.5 -1t-29.5 12t-21.5 23t-8.5 32v476q0 30 5 52.5t17 37.5t32 22t51 6v14h-277v-14
q23 -1 45.5 -8.5t33.5 -30.5v-48q0 -32 1 -70.5t1 -73.5v-46q0 -30 0.5 -73.5t0 -91t-4 -94.5t-11.5 -84q-11 -23 -33.5 -30.5t-45.5 -9.5zM1045 29q-2 -7 -13 -7q-10 0 -13 7q-1 3 3.5 4t9.5 1t10 -1t3 -4zM1071 55q11 0 11 -13t-11 -13q-10 0 -10 13t10 13zM1019 253h15
q0 -2 -1 -12.5t-1 -13.5q0 -11 -1.5 -35.5t-3.5 -51.5t-4.5 -51l-3.5 -34h-14v13q0 11 1.5 37.5t4 56t4.5 55.5t4 36zM1058 108v-53h-13zM1032 319q6 -2 6 -13q0 -10 -6 -13q-3 -2 -5 3t-2 10t2 10t5 3zM1032 636q3 -16 4 -55.5t1 -84.5q0 -44 -1 -82t-4 -55
q-4 -8 -5.5 15.5t-1.5 66.5v56v58q0 44 1.5 67t5.5 14zM1058 636l13 13l-13 -185v172zM1019 662q11 0 11 -13t-11 -13q-10 0 -10 13t10 13zM1045 675q11 0 11 -13t-11 -13q-10 0 -10 13t10 13zM648 13l13 -13l226 2v13q-32 -8 -43 10t-11 54v475q0 30 -1 52.5t3.5 38t19 23
t45.5 7.5v14l-239 -3v-13q23 -1 45.5 -8.5t33.5 -30.5v-48q0 -33 0.5 -71t0.5 -73v-46q0 -30 1 -73.5t0 -91t-4 -94.5t-11 -84q-11 -23 -33.5 -31t-45.5 -9zM793 26q-2 -6 -13 -6q-12 0 -13 6q-1 4 3.5 5t9.5 1t9.5 -1t3.5 -5zM820 53q11 0 11 -13q0 -14 -11 -14
q-10 0 -10 14q0 13 10 13zM767 251h14q0 -4 -0.5 -13.5t-0.5 -13.5q0 -10 -1.5 -34.5t-3.5 -51.5t-4.5 -51l-3.5 -34h-13v13q0 11 1.5 37.5t3.5 55.5t4 55t4 37zM806 106v-53h-13zM780 317q7 -2 7 -13q0 -12 -7 -14q-2 -1 -4.5 4t-2.5 10t2.5 9.5t4.5 3.5zM780 634
q3 -16 4 -55.5t1 -84.5q0 -44 -1 -83t-4 -55q-5 -9 -6 15.5t-1 66.5v57v58q0 42 1 66t6 15zM806 634l14 13l-14 -185v172zM767 660q11 0 11 -13t-11 -13q-10 0 -10 13t10 13zM793 673q11 0 11 -13t-11 -13q-10 0 -10 13t10 13z" />
    <glyph glyph-name="FL0038h" unicode="8" horiz-adv-x="1467" 
d="M900 15l13 -13h236l2 -1h264v13q-16 -4 -32.5 -1t-30 12t-22 23t-8.5 32v475q0 60 22 90t84 29v13h-238v2h-277v-14q23 -1 45.5 -8.5t33.5 -30.5v-48q0 -32 1 -70.5t1 -73.5v-46q0 -30 0.5 -73.5t0 -91t-4 -94.5t-11.5 -84q-11 -23 -33.5 -30.5t-45.5 -9.5zM648 13
l13 -13l226 2v13q-32 -8 -43 10t-11 54v475q0 30 -1 52.5t3.5 38t19 23t45.5 7.5v14l-239 -3h-159l-14 -13q22 -2 35.5 -5.5t20.5 -10t9 -18.5t2 -32q0 -5 -0.5 -20t-0.5 -19l-85 -211.5l-87 -210.5l-144 448q-1 3 -3 16.5t-2 18.5q0 8 2 19.5t3 11.5q2 3 11 6.5t20 6t21 3
t14 -2.5v13h-264q5 -12 15 -16.5t21.5 -6.5t23 -4.5t19.5 -11.5q13 -17 24.5 -39t21.5 -45t18 -46l15 -42q5 -17 16.5 -53l26 -82l30 -96l30 -96l26 -82t16.5 -53q1 -3 5.5 -7.5t7.5 -5.5l3 -0.5t4 -0.5q3 0 5 0.5l2 0.5q1 1 5 11t8 15l237 555q2 2 5.5 8t8 12t8 11.5
t5.5 7.5q13 15 33 23t41 13q5 -4 10 -10t9 -12v-48q0 -33 0.5 -71t0.5 -73v-46q0 -30 1 -73.5t0 -91t-4 -94.5t-11 -84q-11 -23 -33.5 -31t-45.5 -9zM1159 673q21 -3 40.5 -10.5t30.5 -27.5v-48q0 -33 1 -71t1 -73v-46q0 -30 0.5 -73.5t0 -91t-4 -94.5t-11.5 -84
q-11 -23 -31 -31t-43 -9q-24 5 -41 22.5t-17 44.5v476q0 51 15 80t59 36zM1256 252h16q0 -2 -1.5 -12.5t-1.5 -13.5q0 -11 -1.5 -35.5t-3.5 -51.5t-4 -51t-4 -34h-13v13q0 11 1.5 37.5t4 55.5t4.5 55t3 37zM1019 253h15q0 -2 -1 -12.5t-1 -13.5q0 -11 -1.5 -35.5t-3.5 -51.5
t-4.5 -51l-3.5 -34h-14v13q0 11 1.5 37.5t4 56t4.5 55.5t4 36zM767 251h14q0 -4 -0.5 -13.5t-0.5 -13.5q0 -10 -1.5 -34.5t-3.5 -51.5t-4.5 -51l-3.5 -34h-13v13q0 11 1.5 37.5t3.5 55.5t4 55t4 37zM1032 636q3 -16 4 -55.5t1 -84.5q0 -44 -1 -82t-4 -55q-4 -8 -5.5 15.5
t-1.5 66.5v114q0 44 1.5 67t5.5 14zM780 634q3 -16 4 -55.5t1 -84.5q0 -44 -1 -83t-4 -55q-5 -9 -6 15.5t-1 66.5v115q0 42 1 66t6 15zM1269 635q4 -16 5 -55.5t1 -84.5q0 -44 -1 -83t-5 -54q-3 -10 -4.5 15t-1.5 67v56v58q0 44 2 67.5t4 13.5zM1058 636l13 13l-13 -185v172
zM806 634l14 13l-14 -185v172zM1296 635l13 13l-13 -185v172zM382 145q-4 -7 -6.5 -13l-5.5 -13q-9 11 -12 19.5t-3 19.5q0 4 0.5 8t0.5 6zM634 647q-7 -17 -18 -34t-22 -32v6q0 17 14 34t26 26zM211 647v-66q-2 3 -4 10.5t-4 16t-3.5 16t-1.5 10.5t-0.5 6t-0.5 7h14z
M211 528q11 0 11 -13t-11 -13t-11 13t11 13zM1283 674q11 0 11 -13t-11 -13q-10 0 -10 13t10 13zM1071 55q11 0 11 -13t-11 -13q-10 0 -10 13t10 13zM1256 661q11 0 11 -13t-11 -13q-10 0 -10 13t10 13zM594 647q11 0 11 -13q0 -14 -11 -14t-11 14q0 13 11 13zM290 277
q11 0 11 -13t-11 -13t-11 13t11 13zM1019 662q11 0 11 -13t-11 -13q-10 0 -10 13t10 13zM1045 675q11 0 11 -13t-11 -13q-10 0 -10 13t10 13zM820 53q11 0 11 -13q0 -14 -11 -14q-10 0 -10 14q0 13 10 13zM767 660q11 0 11 -13t-11 -13q-10 0 -10 13t10 13zM793 673
q11 0 11 -13t-11 -13q-10 0 -10 13t10 13zM1309 54q11 0 11 -13t-11 -13q-10 0 -10 13t10 13zM1058 108v-53h-13zM806 106v-53h-13zM1296 107v-53h-13zM251 396q6 -2 6 -13q0 -12 -6 -13q-4 -1 -5.5 3.5t-1.5 9.5t1.5 9.5t5.5 3.5zM224 568q7 -3 7 -14q0 -5 -1.5 -8.5
t-5.5 -4.5q-3 -1 -4.5 3.5t-1.5 9.5t1.5 10t4.5 4zM264 356q7 -2 7 -13t-7 -13q-3 -1 -5 3.5t-2 9.5t2 10t5 3zM304 317q6 -2 6 -13q0 -13 -6 -14q-4 -1 -5.5 4t-1.5 10t1.5 9.5t5.5 3.5zM330 251q7 -2 7 -13t-7 -14q-3 -1 -5 4t-2 10t2 9.5t5 3.5zM277 317q4 -1 5.5 -4.5
t1.5 -8.5q0 -13 -7 -14q-3 -1 -4.5 4t-1.5 10t1.5 9.5t4.5 3.5zM1032 319q6 -2 6 -13q0 -10 -6 -13q-3 -2 -5 3t-2 10t2 10t5 3zM277 409q7 -1 7 -13t-7 -13q-3 -1 -4.5 3.5t-1.5 9.5t1.5 9.5t4.5 3.5zM251 488q6 -2 6 -13q0 -5 -1.5 -8.5t-4.5 -4.5q-4 -1 -5.5 3.5
t-1.5 9.5t1.5 10t5.5 3zM317 198q6 -2 6 -13q0 -12 -6 -13q-4 -2 -5.5 3t-1.5 10t1.5 9.5t5.5 3.5zM780 317q7 -2 7 -13q0 -12 -7 -14q-2 -1 -4.5 4t-2.5 10t2.5 9.5t4.5 3.5zM1269 318q4 -1 5.5 -4.5t1.5 -8.5q0 -11 -7 -14q-2 -1 -4 4t-2 10t2 9.5t4 3.5zM343 119
q4 -1 5.5 -4.5t1.5 -8.5q0 -11 -7 -14q-3 -1 -4.5 4t-1.5 10t1.5 9.5t4.5 3.5zM238 436q6 -2 6 -14q0 -5 -1.5 -8.5t-4.5 -4.5q-4 -1 -5.5 3.5t-1.5 9.5t1.5 10t5.5 4zM1283 28q-4 -7 -14 -7t-13 7q-1 3 3.5 4t9.5 1t10.5 -1t3.5 -4zM793 26q-2 -6 -13 -6q-12 0 -13 6
q-1 4 3.5 5t9.5 1t9.5 -1t3.5 -5zM1045 29q-2 -7 -13 -7q-10 0 -13 7q-1 3 3.5 4t9.5 1t10 -1t3 -4zM172 634v-27l-14 27h14zM343 198q7 -1 7 -7q0 -5 -6.5 -6.5t-6.5 6.5t6 7zM317 277q6 -2 6 -6q0 -5 -6.5 -6.5t-6.5 6.5q0 7 7 6zM290 356q7 -1 7 -6t-6.5 -6.5t-6.5 6.5
q0 9 6 6zM304 224q6 -2 6 -6q0 -5 -6.5 -6.5t-6.5 6.5q0 9 7 6zM185 660q-2 -7 -7 -7t-6.5 7t6.5 7q9 0 7 -7zM330 158q7 -2 7 -6q0 -5 -7 -6.5t-7 6.5t7 6zM356 79q7 -1 7 -6t-6.5 -7t-6.5 7q0 7 6 6zM224 475q7 -1 7 -6t-6.5 -7t-6.5 7q0 7 6 6zM238 515q6 -2 6 -7
q0 -4 -6.5 -6.5t-6.5 6.5q0 8 7 7zM185 594q6 -2 6 -7q0 -4 -6.5 -6.5t-6.5 6.5q0 8 7 7zM264 436q7 -2 7 -7q0 -4 -7 -6.5t-7 6.5t7 7zM198 554q7 -2 7 -6q0 -5 -7 -7t-7 7q0 8 7 6z" />
    <glyph glyph-name="FL0039h" unicode="9" horiz-adv-x="1081" 
d="M499 508q0 -12 8.5 -27.5t20.5 -31.5t26 -30t26 -23v13l-27 53v13q3 -3 13 -7.5t14 -5.5q1 0 6.5 1t6.5 1v-15q11 4 13.5 17t2.5 22h-33q0 4 -1 4v3q-2 -7 -9 -7q-11 0 -11 14q0 13 11 13q5 0 7 -2q-5 16 -15.5 31l-21 29.5t-18.5 30.5t-8 36q0 6 1 12.5t4 12t9 8t16 0.5
l-13 13h-264q0 -2 1 -2h-211v-13q23 -2 45.5 -9.5t33.5 -30.5v-48q0 -32 0.5 -70t0.5 -73v-46q0 -31 1 -74.5t0 -90.5t-4 -94t-11 -84q-11 -23 -33.5 -31t-45.5 -9l13 -13h264v2h197q-24 7 -32.5 14t-8.5 24q0 35 21 65.5t45.5 59.5t45.5 58.5t21 62.5v6q-1 4 -6 13.5
l-7 13.5q-41 -32 -70 -77l-57.5 -90.5t-63 -84t-85.5 -56.5v2q-17 -4 -33.5 -1t-29.5 11.5t-21.5 23t-8.5 32.5v475q0 48 13.5 76.5t51.5 38.5q11 -5 26.5 -9t30.5 -6t28.5 -3t20.5 -1v-27q2 11 12.5 12.5t19.5 1.5q8 0 19.5 -0.5t14.5 -14.5l13 27q2 -4 7.5 -13t5.5 -14
q0 -3 -5.5 -8t-7.5 -5q4 -8 6.5 -11t5.5 -3t7.5 1.5t10.5 1.5q0 -11 -1 -18.5t0 -12t6.5 -6.5t17.5 -2v-42l26 13v-13q-1 -4 -6 -13.5l-7 -13.5l-39 27q0 -1 -1 -3.5t-1 -3.5zM603 370q0 -12 6 -23t14.5 -21.5t18 -19.5l17.5 -16v53h13v-13q7 1 10.5 8.5t4 16t0 17
t-1.5 11.5l172 237q12 18 32 27t42.5 13t45 4.5t38.5 0.5v8q-13 2 -46.5 4t-72 4t-72 3.5t-46.5 1.5h-32q0 -10 7 -14.5t16 -8t16 -8.5t7 -15q0 -1 -0.5 -3.5l-0.5 -2.5l-14.5 -29.5t-22.5 -43l-27.5 -48l-27.5 -45t-23.5 -33.5t-16.5 -13q-2 0 -6 2.5l-8 5t-8 4.5t-5 2
q-7 -4 -16.5 -18.5t-9.5 -21.5l26 13v-39h-29zM857 92q10 0 10 -13h3q9 0 10 -9q2 5 2.5 7.5l0.5 2.5q0 5 -5 11.5t-21 14.5q-3 0 -8 -5t-5 -9t-0.5 -13t-0.5 -20t0.5 -19.5t0.5 -13.5q-3 4 -9 15.5l-12.5 24l-12 24t-6.5 16.5q-1 1 0.5 6.5t1.5 6.5h25v-13q2 1 7 5t6 8v13
l-27 53l-26 -13q2 0 7.5 -5t5.5 -9t-5.5 -13.5t-7.5 -12.5l-26 13v-13q1 -3 7 -15l12.5 -25.5l12.5 -25l7 -13.5q0 -1 0.5 -8.5t0.5 -11.5q0 -8 -1 -19t-13 -14h237l14 13q-25 -4 -45.5 0.5t-40 12l-38.5 14.5t-41 7v7q-1 -1 -7 -1q-11 0 -11 13h-2q-11 0 -11 13t11 13z
M382 26q20 18 37.5 38l35 41l35 41.5t37.5 38.5q0 -1 0.5 -3.5t0.5 -3.5q0 -16 -14 -35t-32 -38l-35.5 -36t-25.5 -29q-1 -4 1.5 -5t2.5 -3q3 0 5.5 -3.5t4.5 -2.5q2 4 5.5 13t7.5 13q0 -1 0.5 -5t0.5 -7q0 -28 -28 -28q-12 0 -20 2.5t-19 11.5zM751 251q10 0 10 -13h4
q-2 0 6 -3q-1 13 -7.5 19t-29.5 6q0 6 2 12.5t3 12.5t-2 11t-12 8q-3 -4 -7.5 -13.5t-5.5 -13.5v-13l13 -26v-14l-40 27q0 -1 -0.5 -3.5t-0.5 -3.5t0.5 -3.5l0.5 -2.5q2 -4 6 -10.5l8 -13t7.5 -11.5t5.5 -5q1 0 4.5 2l8 4.5l8 4.5t5.5 2q3 -2 8.5 -7t12 -11.5l12 -12.5
t7.5 -8q2 3 7 13t6 13q0 1 1 6.5t1 6.5h-22v1q-1 -1 -6 -1q-11 0 -11 13h-3q-11 0 -11 14q0 13 11 13zM158 249h15q0 -4 -0.5 -14t-0.5 -13q0 -11 -1.5 -35t-3.5 -51t-4.5 -51t-4.5 -34h-13v13q0 10 1.5 36.5t3.5 55.5l4 55.5t4 37.5zM172 631q3 -17 4 -56t1 -84
q0 -44 -1 -82.5t-4 -54.5q-5 -9 -6 15.5t-1 66.5v57v57q0 43 1.5 67t5.5 14zM421 607q12 -23 29 -42.5t37 -36.5q0 1 0.5 3t0.5 4q0 1 -0.5 3.5l-0.5 2.5q-1 1 -5.5 7.5l-10.5 15l-12.5 17l-10.5 13.5q-4 3 -8 8t-5 5l-3 0.5t-4 0.5t-3.5 -0.5t-3.5 -0.5zM198 631l13 14
l-13 -185v171zM910 32v-19h-53q2 11 16.5 15t25.5 4h11zM857 647q-2 -6 -8.5 -14t-14.5 -16.5t-16.5 -15t-13.5 -7.5q-5 -2 3 8.5t19.5 22t21.5 19.5t9 3zM185 671q11 0 11 -13t-11 -13t-11 13t11 13zM844 673q10 0 10 -13t-10 -13q-11 0 -11 13t11 13zM817 158q10 0 10 -13
t-10 -13q-11 0 -11 13t11 13zM698 304q-11 0 -11 -14q0 -13 11 -13q10 0 10 13q0 14 -10 14zM211 51q11 0 11 -14q0 -13 -11 -13t-11 13q0 14 11 14zM712 330q-11 0 -11 -13t11 -13q10 0 10 13t-10 13zM158 658q11 0 11 -13q0 -14 -11 -14t-11 14q0 13 11 13zM593 396
q-11 0 -11 -13t11 -13q10 0 10 13t-10 13zM751 172q-11 0 -11 -14q0 -13 11 -13q10 0 10 13q0 14 -10 14zM725 290q10 0 10 -13t-10 -13q-11 0 -11 13t11 13zM672 409q10 0 10 -13t-10 -13q-11 0 -11 13t11 13zM566 277q10 0 10 -13t-10 -13q-11 0 -11 13t11 13zM540 554
q10 0 10 -13t-10 -13q-11 0 -11 13t11 13zM198 103v-52h-13zM172 315q6 -5 6 -14q0 -5 -1.5 -8.5t-4.5 -4.5q-4 -2 -5.5 3t-1.5 10t1.5 10t5.5 4zM185 24q-2 -6 -13 -6q-13 0 -14 6q-1 3 4 4t10 1t9.5 -1t3.5 -4zM817 647q7 -2 7 -7q0 -4 -6.5 -6.5t-6.5 6.5q0 8 6 7z
M448 660q-2 -7 -7 -7t-6.5 7t6.5 7q9 0 7 -7zM738 185q-6 1 -6 -7t6.5 -6.5t6.5 6.5t-7 7zM672 277q-7 2 -7 -6t7 -6.5t7 6.5q0 4 -7 6zM698 330q-3 -1 -7.5 -5.5t-5.5 -7.5l-0.5 -3t-0.5 -4t0.5 -3t0.5 -3zM619 449q-3 -1 -7.5 -5.5t-5.5 -7.5l-0.5 -3t-0.5 -4t0.5 -3
t0.5 -4zM774 224q0 8 -3 11v-23q3 6 3 12zM754 224q7 3 7 14q-7 -2 -7 -14zM859 66q8 1 8 13q-8 -2 -8 -13zM877 54q3 4 3 12v4q-1 -4 -2 -7.5t-1 -8.5zM575 495q1 1 1 7q0 5 -3 11l1.5 -12t0.5 -6zM395 607v14q-2 -5 0 -14z" />
    <glyph glyph-name="FL003Ah" unicode=":" horiz-adv-x="191" 
d="M87 77q-10 0 -10 -13t10 -13h18q13 0 13 6q7 12 -4 20t-27 0zM41 51q0 20 17 34.5t40 14.5t38.5 -14.5t15.5 -34.5q0 -23 -15.5 -37t-38.5 -14t-40 14t-17 37zM81 41q-10 0 -10 -10q0 -17 10 -17q11 0 11 14q0 13 -11 13zM86 484q-11 0 -11 -13t11 -13h17q14 0 14 6
q6 13 -4.5 20.5t-26.5 -0.5zM40 458q0 21 17 35.5t40 14.5t38.5 -14.5t15.5 -35.5q0 -23 -15.5 -36.5t-38.5 -13.5t-40 13.5t-17 36.5zM80 449q-10 0 -10 -11q0 -16 10 -16q11 0 11 14q0 13 -11 13z" />
    <glyph glyph-name="FL003Bh" unicode=";" horiz-adv-x="204" 
d="M86 484q-11 0 -11 -13t11 -13h17q14 0 14 6q6 13 -4.5 20.5t-26.5 -0.5zM40 458q0 21 17 35.5t40 14.5t38.5 -14.5t15.5 -35.5q0 -23 -15.5 -36.5t-38.5 -13.5t-40 13.5t-17 36.5zM80 449q-10 0 -10 -11q0 -16 10 -16q11 0 11 14q0 13 -11 13zM98 77q-11 0 -11 -13
t11 -13h16q14 0 14 6q7 12 -3.5 20t-26.5 0zM52 51q0 20 16.5 34.5t39.5 14.5t38 -14.5t17 -34.5q1 -17 -6 -38t-16.5 -40t-20.5 -32t-17 -13q-7 0 -2 18.5t7 53.5q2 11 -5 11h-17q-9 0 -19 6t-15 34zM92 41q-11 0 -11 -10q0 -17 11 -17t11 14q0 13 -11 13z" />
    <glyph glyph-name="FL003Ch" unicode="&#x3c;" horiz-adv-x="475" 
d="M253 33q0 -8 -0.5 -19t-13.5 -14l183 4l14 14q-25 -4 -37 0t-21 10.5t-20.5 12.5t-33.5 6q0 13 3.5 20.5t3.5 12.5t-5 11.5t-21 14.5q-3 0 -8.5 -5t-5.5 -9t-0.5 -13t-0.5 -20t0.5 -19.5t0.5 -13.5l-8 15.5l-12.5 24l-12 24t-6.5 16.5q-1 1 1 6.5t2 6.5h23v-13q4 1 8 5
t5 8v6v7l-26 53l-26 -13q3 0 8 -5t5 -9t-5 -13.5t-8 -12.5l-27 13v-6v-7q2 -3 8 -15l13 -25.5l12.5 -25l6.5 -13.5q0 -1 0.5 -8.5t0.5 -11.5zM358 32v-19h-53q3 11 17 15t26 4h10zM318 79q11 0 11 -13t-11 -13q-10 0 -10 13t10 13zM305 92q11 0 11 -13t-11 -13q-10 0 -10 13
t10 13zM265 158q11 0 11 -13t-11 -13q-10 0 -10 13t10 13zM199 172q-10 0 -10 -14q0 -13 10 -13q11 0 11 13q0 14 -11 14zM186 185q-7 2 -7 -7q0 -8 7 -6.5t7 6.5t-7 7zM186 211q3 -2 9 -7t12.5 -11.5t11.5 -12.5t7 -8q3 3 7.5 13t5.5 13q0 1 1.5 6.5t1.5 6.5h-23v22
q0 10 -3 16t-10.5 8.5t-22.5 2.5q0 6 2 12.5t2.5 12.5t-2.5 11t-12 8q-3 -4 -7.5 -13.5l-6.5 -13.5v-6v-7l14 -26v-7v-7l-40 27q0 -1 -0.5 -3.5t-0.5 -3.5t0.5 -3.5l0.5 -2.5q2 -4 6 -10.5l8 -13t7.5 -11.5t4.5 -5q2 0 6 2t8.5 4.5l8 4.5t4.5 2zM212 238q11 0 11 -14
q0 -13 -11 -13q-10 0 -10 13q0 14 10 14zM199 251q11 0 11 -13q0 -14 -11 -14q-10 0 -10 14q0 13 10 13zM120 277q-7 2 -7 -6t7 -6.5t7 6.5q0 4 -7 6zM173 290q11 0 11 -13t-11 -13q-10 0 -10 13t10 13zM41 355l66 -65v53h13v-13q7 1 10.5 8.5t4.5 16t0 17t-2 11.5l172 237
q12 18 24 27.5t24.5 14.5t26 6t29.5 1v9q-13 1 -35.5 2.5t-47.5 2.5t-47.5 1.5t-35.5 0.5h-32q0 -11 4.5 -15.5t10 -7.5t10 -7t4.5 -15q0 -1 -0.5 -3.5l-0.5 -2.5q-4 -10 -12 -27l-18 -37.5l-20.5 -42t-21 -40t-20 -32t-15.5 -17.5q-3 -3 -11.5 -13.5l-19 -24t-22 -26.5
t-20.5 -21.5t-14.5 -9t-3.5 11.5zM146 304q-10 0 -10 -14q0 -13 10 -13q11 0 11 13q0 14 -11 14zM146 330q-2 -1 -7 -5.5t-6 -7.5l-0.5 -3t-0.5 -4t0.5 -3t0.5 -3zM159 330q-9 0 -9 -13t9 -13q11 0 11 13t-11 13zM120 409q11 0 11 -13t-11 -13q-10 0 -10 13t10 13zM305 647
q-2 -6 -8.5 -14t-14.5 -16.5t-16.5 -15t-13.5 -7.5q-5 -2 3 8.5t19.5 22t21.5 19.5t9 3zM265 647q7 -2 7 -7q0 -4 -7 -6.5t-7 6.5t7 7zM291 673q11 0 11 -13t-11 -13q-9 0 -9 13t9 13z" />
    <glyph glyph-name="FL003Dh" unicode="=" horiz-adv-x="463" 
d="M111 344l134 -12q14 10 42 13.5t56.5 6t51.5 6.5t27 14l-19 16h-363q0 -13 11 -16t24.5 -4.5t24.5 -5.5t11 -18zM272 369q22 2 27 1.5t1 -2t-13 -2t-15 2.5zM134 371h7q6 0 12.5 0.5t11.5 0.5h9q1 0 9 0.5t17.5 0t17 -4t9.5 -10.5q-3 0 -13 -1t-14 -1q-20 0 -33.5 2
t-32.5 13zM112 222l134 -12q14 9 42 13t57 6.5t52 6.5t27 14l-20 15h-363q0 -13 11 -16t24.5 -4.5t24.5 -5.5t11 -17zM273 245q22 3 27 2.5t1 -2t-13 -2t-15 1.5zM136 249h7q6 0 12.5 0.5t11.5 0.5h9q1 0 9 0.5t17 0t17 -4t10 -11.5q-4 0 -14 -1t-13 -1q-20 0 -33.5 2
t-32.5 14z" />
    <glyph glyph-name="FL003Eh" unicode="&#x3e;" horiz-adv-x="475" 
d="M222 33q0 -8 0.5 -19t14.5 -14l-184 4l-13 14q25 -4 37 0t21 10.5t19.5 12.5t33.5 6q0 13 -3.5 20.5t-3.5 12.5t5.5 11.5t20.5 14.5q3 0 8.5 -5t5.5 -9t0.5 -13t0.5 -20t-0.5 -19.5t-0.5 -13.5l8 15.5l12.5 24t11.5 24t7 16.5q1 1 -1 6.5t-2 6.5h-23v-13q-3 1 -7.5 5
t-5.5 8v6v7l26 53l27 -13q-4 0 -9 -5t-5 -9t5 -13.5t9 -12.5l26 13v-6v-7q-2 -3 -8 -15l-13 -25.5l-12.5 -25l-6.5 -13.5q0 -1 -0.5 -8.5t-0.5 -11.5zM118 32v-19h52q-3 11 -17 15t-25 4h-10zM157 79q-11 0 -11 -13t11 -13q10 0 10 13t-10 13zM170 92q-11 0 -11 -13t11 -13
q10 0 10 13t-10 13zM210 158q-11 0 -11 -13t11 -13q10 0 10 13t-10 13zM276 172q10 0 10 -14q0 -13 -10 -13q-11 0 -11 13q0 14 11 14zM289 185q7 2 7 -7q0 -8 -6.5 -6.5t-6.5 6.5t6 7zM289 211q-2 -2 -8 -7t-12.5 -11.5l-12 -12.5t-6.5 -8q-4 3 -8 13t-5 13q0 1 -2 6.5
t-2 6.5h23v22q0 10 3 16t11 8.5t23 2.5q0 6 -2 12.5t-3 12.5t2 11t12 8q3 -4 8 -13.5t6 -13.5v-6v-7l-14 -26v-7v-7l40 27q0 -1 0.5 -3.5t0.5 -3.5t-0.5 -3.5l-0.5 -2.5q-2 -4 -6 -10.5l-8 -13t-7.5 -11.5t-4.5 -5q-2 0 -6 2t-8 4.5t-8 4.5t-5 2zM263 238q-11 0 -11 -14
q0 -13 11 -13q10 0 10 13q0 14 -10 14zM276 251q-11 0 -11 -13q0 -14 11 -14q10 0 10 14q0 13 -10 13zM355 277q7 2 7 -6t-6.5 -6.5t-6.5 6.5q0 4 6 6zM302 290q-11 0 -11 -13t11 -13q10 0 10 13t-10 13zM435 355l-66 -65v53h-14v-13q-8 1 -11 8.5t-4 16t0 17t2 11.5
l-172 237q-23 35 -48 42t-56 7v9q13 1 35.5 2.5t47.5 2.5t47.5 1.5t35.5 0.5h32q0 -11 -4.5 -15.5t-10 -7.5t-10 -7t-4.5 -15q0 -1 1 -3.5l1 -2.5q6 -15 20 -45l30 -61.5t31.5 -57.5t24.5 -32q3 -3 11.5 -13.5l19 -24t22 -26.5t21 -21.5t15 -9t3.5 11.5zM329 304
q10 0 10 -14q0 -13 -10 -13q-11 0 -11 13q0 14 11 14zM329 330q2 -1 7 -5.5t6 -7.5l0.5 -3t0.5 -4t-0.5 -3t-0.5 -3zM316 330q10 0 10 -13t-10 -13q-11 0 -11 13t11 13zM355 409q-11 0 -11 -13t11 -13q10 0 10 13t-10 13zM170 647q1 -6 7.5 -14t15 -16.5t17 -15t13.5 -7.5
q6 -2 -2.5 8.5t-20 22t-22 19.5t-8.5 3zM210 647q-6 -2 -6 -7q0 -4 6.5 -6.5t6.5 6.5t-7 7zM184 673q-11 0 -11 -13t11 -13q10 0 10 13t-10 13z" />
    <glyph glyph-name="FL003Fh" unicode="?" horiz-adv-x="410" 
d="M79 686q11 0 11 -13t-11 -13t-11 13t11 13zM79 660q11 0 11 -13t-11 -13t-11 13t11 13zM343 528q7 1 7 -7q0 -9 -6.5 -6.5t-6.5 6.5q0 5 6 7zM330 502q11 0 11 -14q0 -13 -11 -13t-11 13q0 14 11 14zM317 462q1 3 4.5 1.5t6 -4t4 -6t-1.5 -4.5q-7 -4 -12 1t-1 12z
M290 436l14 13l13 -27zM290 409q11 0 11 -13t-11 -13t-11 13t11 13zM251 383q11 0 11 -13q0 -14 -11 -14t-11 14q0 13 11 13zM224 370q11 0 11 -14q0 -13 -11 -13t-11 13q0 14 11 14zM218 378q2 0 1 -4t-3.5 -9.5t-4.5 -11.5t-2 -10q0 -3 2 -2t4.5 3.5t3.5 5t-1 2.5
q-11 0 -11 13t11 13zM125 365q11 0 11 -13t-11 -13t-11 13t11 13zM139 365l26 27q4 -11 9.5 -21.5t16.5 -18.5h-6h-7q-5 1 -20 6t-19 7zM112 352q11 0 11 -13t-11 -13t-11 13t11 13zM165 352q11 0 11 -13t-11 -13t-11 13t11 13zM139 339q11 0 11 -13q0 -14 -11 -14t-11 14
q0 13 11 13zM73 312q11 0 11 -13t-11 -13t-11 13t11 13zM86 312q1 3 4.5 2t6 -4t4 -6t-1.5 -5q-7 -2 -12 2.5t-1 10.5zM59 299q11 0 11 -13t-11 -13t-11 13t11 13zM55 279q3 0 8.5 -0.5t11.5 -1.5t10.5 -3.5t4.5 -5.5q0 -4 2.5 -13.5l5 -19.5t4 -17.5t-1.5 -7.5
q-4 0 -14.5 -2.5t-18.5 -2.5q-3 0 -3 4q0 3 -2 14.5l-4 24l-3.5 22t0.5 9.5zM224 410l-129 -133q2 0 2.5 -2.5t1.5 -1.5q5 3 14 13t12 13l-26 27q2 -2 7.5 -3.5t12 -3.5t12 -4t8.5 -3h6q44 0 84.5 18.5t72 49t50.5 70t19 80.5q0 66 -24.5 102.5t-65 53t-93.5 17.5t-109 -3
q-5 6 -16.5 18t-22.5 12v-195q6 0 15 20t27.5 43.5t50 43.5t83.5 20q48 0 75 -22.5t27 -73.5q0 -32 -11.5 -52t-25 -34.5l-25 -27.5t-11.5 -30h32q-8 -11 -10.5 -15.5t-2.5 -8.5q0 -1 1 -5t1 -12q-11 0 -17.5 1.5t-12.5 4t-13 4t-18 1.5h-14l47 17q-1 0 -5.5 0.5t-8.5 0.5z
M105 77q15 8 26 0t3 -20q0 -6 -13 -6h-16q-11 0 -11 13t11 13zM58 51q0 -23 17 -37t39 -14q23 0 39 14t16 37q0 20 -16 34.5t-39 14.5q-22 0 -39 -14.5t-17 -34.5zM99 41q11 0 11 -13q0 -14 -11 -14t-11 17q0 10 11 10z" />
    <glyph glyph-name="FL0040h" unicode="@" horiz-adv-x="631" 
d="M158 515q7 0 9 6q-2 -51 -12.5 -102t-10.5 -103q0 -59 14 -109.5t43 -88t74 -59t107 -21.5q76 0 124 36t62 111h13v-230q-8 0 -13 5q-4 4 -8.5 13.5t-5.5 13.5q-3 3 -7.5 8t-5.5 5h-251q-37 0 -70 17t-61 45t-50.5 64.5t-38 74.5t-24 75t-8.5 67q0 29 6 56t22 50
q-1 -23 -1.5 -45.5t-0.5 -47.5q0 -37 3.5 -74t14 -71t29 -64.5t47.5 -54.5l-9 20.5l-9 20.5q1 -1 5 -1q11 0 11 13t-11 13t-11 -13v-1l-21 41t-18 41.5t-12.5 45t-4.5 51.5q0 22 4.5 43t9.5 41.5l9.5 40.5t4.5 40v14l-27 -40q0 1 -0.5 5.5t-0.5 7.5q0 30 15.5 57.5t41.5 51
t59 42.5t67.5 32.5t68 20.5t59.5 7q24 0 52 -4.5t55 -14t49.5 -24.5t35.5 -36q0 -9 -0.5 -33t-0.5 -52q-6 -50 -8 -78.5t-10.5 -49t-29 -39.5t-63.5 -50q-8 -39 -30.5 -58.5t-69.5 -19.5q-29 0 -54 10t-44 27.5t-30 40t-11 47.5t8.5 47.5t24.5 38.5t38.5 25.5t50.5 9.5
q51 0 81 -30t35 -73q6 6 11.5 13.5t8.5 12.5q2 8 4.5 26.5t4.5 39.5t3.5 39.5t1.5 26.5q0 33 -9.5 53.5t-26 32.5t-39.5 16.5t-51 4.5q-42 0 -72.5 -14t-54 -30.5l-42.5 -30.5t-38 -14v-14q-3 9 -11 9q-11 0 -11 -13t11 -13zM285 350q0 -17 4 -35t13.5 -33.5t24.5 -25.5
t37 -10q20 0 34 8.5t21.5 23t10 32t-0.5 35.5t-8 36.5t-14 33.5t-23 24t-35 9q-22 0 -35 -9t-19.5 -23.5t-8 -32t-1.5 -33.5zM92 317q0 -26 9 -53.5l18 -52.5v225q-19 -24 -23 -57t-4 -62zM554 396q4 11 5 39t1 60t-1 60t-5 39q-3 8 -4 -6.5t-1 -38.5v-55v-54q0 -24 1 -38
t4 -6zM515 594q11 0 11 13q0 11 -9 13q9 2 9 14q0 13 -11 13t-11 -13t9 -14q-9 -2 -9 -13q0 -13 11 -13zM117 517q11 0 20.5 -4.5t20.5 -10.5l-26 39q-15 -5 -15 -24zM239 352q0 -11 2 -22t10 -22v9l-6 67q-5 -11 -5.5 -16t-0.5 -16zM255 352v-22q0 -9 7 -22v62q0 3 2 14
t2 13v6q-8 -5 -9.5 -17t-1.5 -23v-11zM528 568q11 0 11 13t-11 13t-11 -13t11 -13zM172 106q11 0 11 13t-11 13t-11 -13t11 -13zM515 383q11 0 11 13t-11 13t-11 -13t11 -13zM185 581q11 0 11 13t-11 13t-11 -13t11 -13zM528 475q11 0 11 13q0 14 -11 14t-11 -14
q0 -13 11 -13zM541 607q11 0 11 13q0 14 -11 14t-11 -14q0 -13 11 -13zM475 634q11 0 11 13t-11 13t-11 -13t11 -13zM132 172q11 0 11 13t-11 13t-11 -13t11 -13zM145 541q11 0 11 13q0 14 -11 14t-11 -14q0 -13 11 -13zM554 370q-6 6 -19 6q-14 0 -20 -6q-4 -4 3 -5t17 -1
q9 0 16 1t3 5zM451 323v-2q0 -3 -2.5 -11l-5 -16t-5 -14.5t-2.5 -7.5q9 5 14.5 21t9.5 31q-2 -1 -9 -1zM414 453q-4 0 -4 -4q0 -6 4 -6h1q0 -3 5 -3q0 -3 8 -1t10 2h2q0 -3 -6 -7t-4 -4q0 -5 6 -5q4 0 4 5t-4 5h-1q0 5 -5 5h-1q0 3 -4 3h-1q0 6 -4 6h-2q0 4 -4 4zM451 402
v-48l10 9q-1 10 -4 19.5zM541 26v14l-39 -14h39zM185 568q3 6 -2 11t-11 2q-3 -2 -2 -5.5t3.5 -6t6 -3.5t5.5 2zM554 53q7 1 7 6t-6.5 7t-6.5 -7q0 -8 6 -6zM132 462q7 2 7 7t-7 6.5t-7 -6.5q0 -9 7 -7zM528 515q7 2 7 6q0 5 -7 6.5t-7 -6.5t7 -6zM266 284q-3 0 -3 -6
q0 -3 3 -3h2q0 -6 4 -6t4 6q0 3 -4 3q0 6 -6 6zM447 367q-2 3 -3 -2.5t-1 -13.5v-7l5 5v2v10q0 4 -1 6zM436 296q-6 0 -6 -5t6 -5q4 0 4 5t-4 5zM436 410q-6 0 -6 -5q0 -3 6 -3q4 0 4 3q0 5 -4 5zM266 308q-3 0 -3 -6q0 -4 3 -4q6 0 6 4q0 6 -6 6zM272 298q-4 0 -4 -5t4 -5
t4 5t-4 5zM269 440q-3 0 3 1.5t6 -0.5q0 -4 5 -4q3 0 3 4q0 2 -7 0.5t-10 -1.5zM430 420q-2 0 4 3t6 -1q0 -3 -6 -7.5t-4 -4.5q5 0 5 6q0 4 -5 4zM441 316q-4 0 -4 -6q0 -4 4 -4q3 0 3 4q0 6 -3 6zM441 425q-3 0 -3 -5q0 -2 1 -3.5t2 -0.5q2 0 2 4q0 3 -2 5zM256 298
q-3 0 -3 -2q0 -3 3 -3q2 0 2 3zM447 410q-4 1 -4 -2t3 -2t3 2q0 2 -2 2zM441 396q-3 3 -3 -2q0 -4 2.5 -3t2.5 3t-2 2zM272 417q-3 3 -3 -2q0 -4 3 -2.5t3 2.5q0 2 -3 2zM251 397q-2 2 -2 -1q0 -2 2 -2t2 2q0 1 -2 1zM262 288q-4 2 -4 -2q0 -2 4 -2q2 0 2 2t-2 2zM262 417
q-6 0 -6 -6l-1 -1q0 -1 0.5 -1.5l0.5 -0.5zM140 133q-6 1 -6 11q3 -8 6 -11zM415 443q3 0 3 6q-3 -2 -3 -6zM430 430q5 0 5 5q-5 -3 -5 -5zM272 278q-4 0 -4 -3q4 0 4 3zM420 440q4 0 4 3q-4 -1 -4 -3zM440 441q1 0 -5 -2t-6 1q-3 -2 4 0t7 1zM169 528q0 -6 -2 -7q0 4 1 6
t1 5v-4z" />
    <glyph glyph-name="FL0041h" unicode="A" horiz-adv-x="781" 
d="M26 13l264 -13l14 13q-7 13 -18 17t-22 7.5t-19 9.5t-8 24q0 43 17 86.5t36 80.5l28.5 3.5t44 4.5t44.5 3.5t29 1.5h6q33 0 57 -19t39.5 -48t23 -62.5t7.5 -62.5q0 -14 -7.5 -21t-16 -12t-16 -10.5t-7.5 -15.5h224q0 3 -13.5 12t-31 22t-33.5 28t-21 30l-93 251
q-4 10 -15.5 41l-26.5 70.5l-31.5 83l-30.5 80l-23.5 60t-10.5 23.5t-4 -0.5l-3 -0.5q-1 -2 -5.5 -12t-7.5 -15q-64 -147 -119 -290.5t-119 -290.5q-14 -25 -35 -36t-41 -16.5l-36 -10t-20 -16.5zM185 40q11 0 11 -14q0 -13 -11 -13t-11 13q0 14 11 14zM593 59q0 4 0.5 10.5
t0.5 9.5l26 -53q-1 0 -3 -0.5t-3 -0.5q-15 0 -18 11.5t-3 22.5zM185 92v-6q0 -14 -8 -27t-19 -19q0 1 -0.5 3t-0.5 3t0.5 4l0.5 3q4 5 13 20t14 19zM198 53h13v-13zM634 66q6 -2 6 -7q0 -4 -6.5 -6.5t-6.5 6.5q0 8 7 7zM211 92q11 0 11 -13t-11 -13t-11 13t11 13zM594 119
q-5 3 -15 -2t-11 -11l26 52q14 -19 20.5 -32.5t6.5 -33.5q0 -3 -0.5 -7.5t-0.5 -5.5q0 7 -9.5 21.5t-16.5 18.5zM224 185v-7v-6l-5.5 -11.5t-7.5 -15l-8 -15t-5 -11.5v6v7q1 4 4.5 11.5l7.5 15.5l8 15.5t6 10.5zM553 172q0 3 0.5 7.5t0.5 5.5q9 -11 12 -19.5t3 -20.5
q0 -3 -0.5 -7.5t-0.5 -5.5q-10 11 -12.5 19.5t-2.5 20.5zM581 198q6 -2 6 -7t-6.5 -6.5t-6.5 6.5t7 7zM541 211q7 -1 7 -6t-6.5 -6.5t-6.5 6.5q0 7 6 6zM568 238q6 -2 6 -14q0 -5 -1.5 -8.5t-4.5 -4.5q-4 -1 -5.5 3.5t-1.5 9.5t1.5 10t5.5 4zM251 264q11 0 11 -13t-11 -13
t-11 13t11 13zM528 264q11 0 11 -13t-11 -13t-11 13t11 13zM540 290q0 4 0.5 8t0.5 6q9 -11 11.5 -20t2.5 -20q0 -3 -0.5 -7.5t-0.5 -5.5q-9 11 -11.5 19.5t-2.5 19.5zM264 290q11 0 11 -13t-11 -13t-11 13t11 13zM449 290q-8 -3 -28.5 -4.5t-44.5 -1.5t-44 1.5t-28 4.5
q-5 1 0 2t16 2t26 1.5t30 0.5h40q19 0 28.5 -2.5t4.5 -3.5zM488 290q-2 -6 -6 -6q-5 0 -7 6.5t7 6.5t6 -7zM277 317q11 0 11 -13q0 -14 -11 -14t-11 14q0 13 11 13zM396 515q8 -5 15 -18t12.5 -26.5t9 -24l3.5 -10.5l7.5 -23l12 -36l12 -36.5l7.5 -23.5h-158l13.5 41.5
t19 53.5t22.5 55.5t24 47.5zM502 330q6 -2 6 -7t-6.5 -6.5t-6.5 6.5t7 7zM528 343q7 -2 7 -6q0 -5 -7 -6.5t-7 6.5t7 6zM488 356q7 -1 7 -6t-6.5 -6.5t-6.5 6.5q0 9 6 6zM515 383q6 -2 6 -7t-6.5 -6.5t-6.5 6.5t7 7zM304 396q11 0 11 -13t-11 -13t-11 13t11 13zM475 396
q7 -1 7 -7q0 -5 -6.5 -6.5t-6.5 6.5t6 7zM474 462q0 3 0.5 7.5t0.5 5.5q14 -19 21 -32.5t7 -33.5q0 -3 -0.5 -7.5t-0.5 -5.5q-14 19 -21 33t-7 33zM317 422q11 0 11 -13t-11 -13t-11 13t11 13zM462 436q11 0 11 -14q0 -13 -11 -13t-11 13q0 14 11 14zM449 475q6 -2 6 -6
q0 -5 -6.5 -7t-6.5 7q0 7 7 6zM436 502q6 -2 6 -7q0 -4 -6.5 -6.5t-6.5 6.5q0 8 7 7zM462 515q7 -2 7 -7q0 -4 -7 -6.5t-7 6.5t7 7zM422 541q7 -1 7 -6t-6.5 -7.5t-6.5 7.5q0 7 6 6zM436 574v7q11 -4 12.5 -14t1.5 -19q0 -4 -0.5 -10.5t-0.5 -9.5q-2 2 -4 7.5t-4 12t-3.5 12
t-1.5 8.5v6zM422 634q7 -7 7 -20q0 -14 -7 -20q-3 -3 -4.5 4t-1.5 16t1.5 16t4.5 4zM396 620q11 0 11 -13t-11 -13t-11 13t11 13z" />
    <glyph glyph-name="FL0042h" unicode="B" horiz-adv-x="621" 
d="M40 13v-13h396q30 0 55 18t44.5 44t31 56t14.5 54q1 22 -7 51t-23.5 53t-38 37t-50.5 4l13 13q-4 4 -11 8l-13.5 7.5t-11 8t-4.5 9.5q0 9 12.5 23.5l28 33t28 40.5t12.5 47q0 59 -30 94.5t-76 54.5t-101.5 25t-106.5 6h-72h-18q-11 0 -20.5 -0.5t-17.5 -0.5h-8l-13 -13
q8 -3 23.5 -5.5t32 -6.5t30.5 -10.5t19 -16.5v-44q0 -31 0.5 -65.5t0.5 -66.5v-42v-177q0 -42 -3.5 -85t-10.5 -88q-2 -20 -13.5 -30t-27 -14.5t-33 -5.5t-31.5 -3zM224 42v37l27 -26v6q0 45 -7 86t-7 86v18q0 11 0.5 25t0.5 25v18q11 11 20.5 12t24.5 1q25 0 54 -8.5
t54.5 -18.5t43.5 -18.5t20 -8.5t4.5 0.5l2.5 0.5q5 4 14 13t12 14q22 -18 33.5 -32.5t16 -30t5 -35.5t0.5 -48v-14q0 -11 -1 -24.5l-1 -13.5l-26 -27q3 4 8 13t5 14t-0.5 20l-1 31.5t-2 32t-3.5 21.5v-79q-2 3 -4.5 14.5l-5.5 24.5l-5.5 24.5t-3.5 15.5v13v14l13 -14
q0 2 0.5 6t0.5 8q0 14 -6 22.5t-22 16.5q-3 -1 -7.5 -5.5t-5.5 -7.5v-6q0 -26 7.5 -50t7.5 -51q0 -26 -10.5 -50t-28.5 -42t-42 -28.5t-51 -10.5q-35 0 -67 8t-67 8zM185 290h14q0 -27 -1.5 -61.5t-4 -69l-5 -66.5t-3.5 -53h-13v13q0 13 1.5 46.5t3.5 72t4 72t4 46.5z
M502 119q11 0 11 -13q0 -14 -11 -14t-11 14q0 13 11 13zM211 172q7 -4 7 -20q0 -17 -7 -20q-3 -3 -4.5 4.5t-1.5 15.5t1.5 14.5t4.5 5.5zM198 330q11 0 11 -13t-11 -13t-11 13t11 13zM449 330q-2 -7 -7 -7t-6.5 7t6.5 7q9 0 7 -7zM185 647h13v-304h-13v304zM396 356
q11 0 11 -13t-11 -13t-11 13t11 13zM251 634h8q7 0 14.5 0.5t13.5 0.5h10q64 0 95.5 -38t31.5 -102q0 -42 -13 -65.5t-36.5 -35.5t-55 -14.5t-68.5 -2.5v257zM422 422q11 0 11 -13t-11 -13t-11 13t11 13zM476 502q0 12 -0.5 21.5t-3.5 18.5t-8.5 18t-14.5 21l-27 -13
q4 3 9 12t5 14q0 3 -5 8t-9 5q2 5 12 11t15 2q12 -6 20 -20t12.5 -30.5t6.5 -33t2 -28.5q0 -28 -7.5 -55.5t-33.5 -43.5v7q0 12 4 22t9.5 19.5t9.5 20t4 24.5zM449 541q3 -4 4 -15t1 -24q0 -14 -1 -24.5t-4 -15.5q-4 -4 -5.5 9.5t-1.5 30.5q0 8 0.5 16t1 14t2 8.5t3.5 0.5z
M224 660q11 0 11 -13t-11 -13t-11 13t11 13z" />
    <glyph glyph-name="FL0043h" unicode="C" horiz-adv-x="621" 
d="M40 332q0 -58 18 -108.5t49.5 -93t75.5 -75.5t95 -55h18q12 0 27.5 -0.5t28.5 -0.5h19q21 0 39 2t35 5t34 5t37 2q15 0 24.5 -6.5t21.5 -6.5h7l3.5 31.5t4.5 47.5t3.5 47.5t1.5 31.5v8v6q-1 3 -5.5 7.5t-7.5 5.5l-3 0.5t-4 0.5t-3 -0.5t-4 -0.5q4 -42 -13.5 -70t-46 -45
t-64 -24.5t-67.5 -7.5q-58 0 -101 26.5t-72 69t-43.5 95.5t-14.5 106q0 55 11.5 109t37.5 96.5t69.5 68.5t106.5 26q37 0 73.5 -9.5t64.5 -29t44.5 -49.5t14.5 -72h27v211l-13 14q-8 -6 -11.5 -13t-7 -13t-9 -10.5t-15.5 -4.5q-41 0 -76.5 7.5t-78.5 7.5q-73 0 -133.5 -26
t-104.5 -72t-68.5 -108.5t-24.5 -135.5zM529 79q11 0 11 -13t-11 -13q-10 0 -10 13t10 13zM173 132q11 0 11 -13t-11 -13q-10 0 -10 13t10 13zM133 145q11 0 11 -13t-11 -13q-10 0 -10 13t10 13zM92 198q0 3 1 7.5t1 5.5l26 -53v-6v-7q-28 19 -28 53zM146 172q11 0 11 -14
q0 -13 -11 -13q-10 0 -10 13q0 14 10 14zM133 211q7 -2 7 -13t-7 -13q-2 -1 -4 3.5t-2 9.5t2 9.5t4 3.5zM80 264q7 -6 7 -20q0 -13 -7 -20q-2 -3 -4 4t-2 16t2 16t4 4zM92 350q0 43 9 79.5t32 72.5v-7v-7q0 -3 -2 -12.5l-4.5 -20.5l-4.5 -20.5t-2 -12.5q0 -11 -0.5 -39
t-0.5 -60q0 -31 0.5 -59t0.5 -40q-19 29 -23.5 61.5t-4.5 64.5zM67 396q3 -7 4.5 -23.5t1.5 -35.5q0 -20 -1.5 -36.5t-4.5 -23.5q-2 -5 -3.5 3.5t-1.5 23.5v33v33q0 33 5 26zM80 449q4 -1 5.5 -3t1.5 -4q0 -4 -6.5 -6.5t-6.5 6.5t6 7zM120 528l-26 -53v7q0 13 7.5 26
t18.5 20zM146 541q11 0 11 -13t-11 -13q-10 0 -10 13t10 13zM555 607q7 -1 7 -6t-6.5 -7.5t-6.5 7.5q0 8 6 6zM516 620q11 0 11 -13t-11 -13q-10 0 -10 13t10 13z" />
    <glyph glyph-name="FL0044h" unicode="D" horiz-adv-x="754" 
d="M40 13q10 0 24 1.5t27.5 6t24.5 12.5t16 20q4 45 7 83t4.5 73.5t2 69.5t0.5 71v105v35q0 27 -0.5 55t-0.5 53v36q-8 11 -21 18t-28.5 11t-30.5 6t-25 4v19q63 0 137.5 -1t149.5 -10t145 -29.5t123.5 -60t86 -101.5t32.5 -153q0 -53 -19 -112t-53.5 -109t-83.5 -83
t-109 -33h-409v13zM185 26q1 7 -7 7t-6.5 -6.5t6.5 -6.5t7 6zM172 449q0 -13 -1 -40t-2.5 -61t-3.5 -71t-3.5 -71t-2.5 -60.5t-1 -39.5v-33v-33l14 13v396zM198 145v-92q0 -5 6.5 -9.5t14 -8.5t13.5 -6.5l6 -2.5q1 4 5 13.5t8 13.5h5q32 0 62 -7.5t65 -7.5q70 0 113.5 24.5
t68.5 66.5t34 97.5t9 117.5q0 35 -13 80.5t-37.5 86.5t-59.5 70.5t-78 33.5l-182 19v-568q-10 5 -15.5 14.5t-9 21l-7 23t-8.5 20.5zM607 119q-11 0 -11 -13q0 -14 11 -14t11 14q0 13 -11 13zM634 145q-2 3 -5.5 2t-6 -4t-4 -6.5t1.5 -4.5q7 -3 12 1.5t2 11.5zM607 172
q-11 0 -11 -14q0 -13 11 -13t11 13q0 14 -11 14zM198 330q-1 5 -3 -5t-2 -30v-44v-44q0 -20 1 -31t4 -4q3 9 4.5 31.5t1.5 47.5t-1.5 47.5t-4.5 31.5zM647 185q-11 0 -11 -13q0 -14 11 -14t11 14q0 13 -11 13zM647 383l-27 -185v-7v-6q17 20 22.5 49.5t5.5 58.5v37v10
q0 8 -0.5 16.5t-0.5 15.5v11zM660 211q-7 2 -7 -6t7 -6.5t7 6.5q0 4 -7 6zM660 442v-20q0 -11 1.5 -37t3.5 -55.5t4 -55.5t4 -36q12 28 13 49t1 50q0 31 -4 64t-23 61v-20zM620 449v-13q0 -3 1.5 -8.5t4 -12l4.5 -12t4 -7.5q0 3 0.5 9.5t0.5 10.5q0 15 -2 25t-13 21v-13z
M211 462q-11 0 -11 -13t11 -13t11 13t-11 13zM172 488q-7 3 -7 -6t6.5 -7t6.5 7q0 4 -6 6zM211 634q-2 4 -3 -1.5t-2 -17t-1 -27.5v-34v-34q0 -24 1.5 -37t4.5 -8q4 9 5 31.5t1 47.5t-1 47.5t-5 32.5zM607 488q-6 3 -6 -6t6.5 -7t6.5 7t-7 6zM632 502q0 -8 2 -15t13 -12v7v6
q-1 4 -5.5 13.5t-7.5 13.5q0 -1 -1 -5.5t-1 -7.5zM172 634l13 -119v119h-13zM607 541l-13 -26l26 13zM581 541q-11 0 -11 -13t11 -13t11 13t-11 13zM594 568q-11 0 -11 -14q0 -13 11 -13t11 13q0 14 -11 14zM581 581q-11 0 -11 -13q0 -14 11 -14t11 14q0 13 -11 13zM568 594
q-11 0 -11 -13t11 -13t11 13t-11 13zM515 607q-11 0 -11 -13t11 -13t11 13t-11 13zM554 607q-11 0 -11 -13t11 -13t11 13t-11 13zM502 620q-11 0 -11 -13t11 -13t11 13t-11 13zM198 660q2 7 -7 7q-8 0 -6.5 -7t6.5 -7t7 7z" />
    <glyph glyph-name="FL0045h" unicode="E" horiz-adv-x="594" 
d="M40 13v-13h462q9 0 18.5 23t17 52t12 56t4.5 35v6q-1 3 -5 7.5t-8 5.5q-6 -44 -22 -70t-40 -40t-55.5 -18.5t-68.5 -4.5h-38q-15 0 -29 3t-25 10.5t-18 20.5t-7 33v209q39 0 63 -6t37.5 -15.5t19 -20.5t8.5 -20.5t6 -15.5t11 -6v231q-17 -7 -21.5 -16t-5 -19.5
t-0.5 -20.5t-7.5 -18t-27 -13t-58.5 -5q-8 0 -16.5 1t-8.5 12v232q35 0 65.5 -1t59 -1.5t56 -1.5t57.5 -1q0 -12 0.5 -28.5t4.5 -32.5t12 -29t22 -18v171h-462v-13q22 -2 38.5 -3t29.5 -5.5t22 -15t15 -29.5v-30q0 -21 0.5 -45.5t0.5 -47.5v-28v-40q0 -24 -0.5 -48t-0.5 -43
v-21q-1 -29 0.5 -61.5t1 -64.5t-5 -62.5t-17.5 -54.5t-36 -40.5t-61 -20.5zM475 13q-2 -6 -13 -6q-12 0 -13 6q-1 4 3.5 5t9.5 1t9.5 -1t3.5 -5zM224 26q-6 -6 -26 -6t-26 6q-4 4 5.5 5t20.5 1t20.5 -1t5.5 -5zM264 53q11 0 11 -13q0 -14 -11 -14t-11 14q0 13 11 13z
M178 119v356l7 -409q0 -9 -11.5 -12t-16.5 -3q0 1 0.5 6.5t0.5 8.5q2 3 4.5 10.5l5.5 16l5.5 16t4.5 10.5zM211 158l27 -105q-1 0 -3.5 -0.5t-3.5 -0.5t-4 0.5l-3 0.5q-3 3 -8 6.5t-5 6.5v92zM211 330q7 -6 7 -20q0 -13 -7 -20q-3 -3 -4.5 4t-1.5 16t1.5 16t4.5 4zM330 356
q11 0 11 -13t-11 -13t-11 13t11 13zM343 370q-1 -7 -6 -7t-6.5 6.5t6.5 6.5q7 0 6 -6zM211 634q4 -15 5 -50t1 -76q0 -40 -1 -75t-5 -50q-3 -9 -4.5 12t-1.5 59v53v53q0 40 1.5 61.5t4.5 12.5zM185 647q6 -2 6 -13q0 -13 -6 -14q-4 -1 -5.5 4t-1.5 10t1.5 9.5t5.5 3.5z
M462 647q11 0 11 -13q0 -14 -11 -14t-11 14q0 13 11 13zM436 660q11 0 11 -13t-11 -13t-11 13t11 13zM488 660q11 0 11 -13t-11 -13t-11 13t11 13z" />
    <glyph glyph-name="FL0046h" unicode="F" horiz-adv-x="566" 
d="M40 9q5 12 16.5 15.5t24 5t23.5 4.5t15 14q1 6 3.5 18t4.5 24.5t3.5 23t1.5 14.5v514q0 12 -11 15.5t-24.5 5.5t-26.5 5t-17 14h32q22 0 47 1t47 1h32h41q13 0 32 0.5t38 0.5q20 0 37.5 0.5t25.5 0.5h23q12 0 30 -2l35 -4t29 -4t12 -3l13 -158l-13 -13q-8 29 -19 62
t-34 56l13 14h-39q-3 0 -21 1t-38.5 2.5t-38 3t-20.5 1.5q-4 0 -15.5 -1.5t-24 -3.5l-24 -4t-15.5 -4q-2 -4 -4.5 -11.5t-4.5 -15t-3.5 -15t-1.5 -11.5q0 -10 1 -37.5t2 -59t2 -59t1 -37.5q25 0 53.5 2.5t52.5 12t40.5 27.5t18.5 50v-237h-13q-3 24 -14 37.5t-26.5 21
t-33 9.5t-32.5 2h-46q0 -17 -3.5 -43t-7 -56t-3.5 -61q0 -30 6.5 -56t22.5 -45t45 -25q5 -1 12.5 -0.5t12.5 0.5q10 0 15 -13l-13 -13h-264zM178 48l-33 -26l27 -13q-2 19 12 27t28 8q0 2 -1 2v2l-13 66q-2 10 -4.5 32.5l-5.5 47.5l-5.5 47.5t-4.5 31.5v-225zM158 180
l-13 -132l13 14v118zM158 260q-11 0 -11 -14q0 -13 11 -13t11 13q0 14 -11 14zM382 343l-65 -17q1 0 3 -1t3 -1t4 1l3 1q1 0 9 2t17.5 5l17.5 5.5t8 4.5zM290 365q-11 0 -11 -13t11 -13t11 13t-11 13zM317 378q-11 0 -11 -13t11 -13t11 13t-11 13zM198 392q-11 0 -11 -14
q0 -13 11 -13t11 13q0 14 -11 14zM198 629q-1 8 -3 -6t-2 -41v-58v-58q0 -27 1 -41.5t4 -6.5q3 13 4.5 42.5t1.5 61.5q0 35 -1.5 65.5t-4.5 41.5zM474 673q-11 0 -11 -13t11 -13q10 0 10 13t-10 13z" />
    <glyph glyph-name="FL0047h" unicode="G" horiz-adv-x="693" 
d="M79 211q0 -30 16 -57.5t41.5 -51t58.5 -42.5t68 -32.5t68.5 -20.5t59.5 -7q24 0 51.5 4.5t54.5 14t49.5 24.5t35.5 36q0 9 -0.5 33.5t-0.5 51.5t0.5 51.5t0.5 35.5q0 2 1.5 7.5t4 11.5t4.5 12t3 8q4 6 13.5 12t19.5 13t17.5 13.5t7.5 14.5h-236q0 -9 9.5 -15t21.5 -11
t24 -11t18 -16q1 -8 3.5 -26.5t4.5 -39.5t3.5 -39.5t1.5 -26.5q0 -33 -9.5 -53.5t-26 -32t-39.5 -16t-51 -4.5q-42 0 -72.5 14t-54 30.5l-42.5 30.5t-38 14q0 28 -4 56.5t-8.5 57t-8.5 57.5t-4 59q0 58 14 109t43 88t74 58.5t107 21.5q76 0 124.5 -35.5t61.5 -110.5h13v230
q-7 0 -13 -6q-3 -3 -7.5 -13t-6.5 -13q-2 -4 -7 -9t-6 -5h-251q-37 0 -70 -17t-60.5 -45t-50 -64.5t-38 -74.5t-24 -75t-8.5 -67q0 -28 5.5 -55t21.5 -50q-1 23 -1.5 45t-0.5 47q0 37 3.5 74t14 71t29 64.5t47.5 54.5q-13 -32 -27 -58.5t-26 -52.5t-19.5 -55t-7.5 -65
q0 -21 4.5 -42t9.5 -41.5t9.5 -41t4.5 -40.5v-13l-27 39q0 -1 -0.5 -5t-0.5 -8zM476 53q11 0 11 -13q0 -14 -11 -14q-10 0 -10 14q0 13 10 13zM516 66q11 0 11 -13t-11 -13q-10 0 -10 13t10 13zM542 79q11 0 11 -13t-11 -13q-10 0 -10 13t10 13zM516 92q11 0 11 -13t-11 -13
q-10 0 -10 13t10 13zM186 106q11 0 11 -14q0 -13 -11 -13q-10 0 -10 13q0 14 10 14zM555 290q4 -11 5 -39t1 -60q0 -31 -1 -59t-5 -40q-2 -8 -3.5 7t-1.5 38v54v54q0 25 1.5 39t3.5 6zM186 119q3 -7 -1 -12t-12 -1q-3 1 -2 4.5t4 6.5t6.5 4t4.5 -2zM529 119q11 0 11 -13
q0 -14 -11 -14q-10 0 -10 14q0 13 10 13zM146 145q11 0 11 -13t-11 -13q-10 0 -10 13t10 13zM118 169q11 0 20.5 4.5t20.5 11.5l-26 -40q-15 7 -15 24zM159 172q11 0 11 -14q0 -13 -11 -13q-9 0 -9 13q0 14 9 14zM529 172q7 -4 7 -7q0 -5 -7 -6.5t-7 6.5q0 9 7 7zM529 211
q11 0 11 -13t-11 -13q-10 0 -10 13t10 13zM133 224q7 -2 7 -6q0 -5 -6.5 -6.5t-6.5 6.5q0 10 6 6zM94 370q0 26 8.5 53t17.5 52v-224q-19 24 -22.5 57t-3.5 62zM516 304q11 0 11 -14q0 -13 -11 -13q-10 0 -10 13q0 14 10 14zM555 317q-4 -7 -19 -7q-14 0 -20 7q-2 3 4.5 4
t15.5 1t16 -1t3 -4zM133 515q11 0 11 -13q0 -14 -11 -14q-10 0 -10 14q0 13 10 13zM146 554q11 0 11 -13t-11 -13q-10 0 -10 13t10 13zM173 581q11 0 11 -13q0 -14 -11 -14q-10 0 -10 14q0 13 10 13zM555 634q7 -3 7 -7q0 -5 -6.5 -7t-6.5 7t6 7zM503 660h39v-13z" />
    <glyph glyph-name="FL0048h" unicode="H" horiz-adv-x="792" 
d="M40 13v-13h277q-7 16 -16 21t-18.5 6t-19.5 0.5t-18.5 4.5t-14 18.5t-6.5 41.5q0 13 1 47t2 72.5t2 72t1 46.5h272l52 -13v-11q0 -8 0.5 -20.5t0.5 -20.5q0 -19 2.5 -45t2.5 -55q0 -28 -2.5 -55.5t-11.5 -49.5t-26 -35.5t-45 -11.5h264q-11 0 -24.5 1.5t-27 6t-24.5 12.5
t-16 20v41q0 29 -0.5 61.5t-0.5 61.5v40q0 50 -0.5 96.5t0.5 92.5t4 92t10 96q5 12 16 20t24.5 12t27 5.5t24.5 1.5v13h-290q27 2 47 -8.5t33 -28.5t19.5 -41t6.5 -47v-7q0 -9 -1.5 -31.5t-3.5 -47.5t-4.5 -47.5t-4.5 -31.5h-311q0 12 -1 41.5t-1.5 63t-1.5 64t-1 42.5
q1 25 8 39t18.5 21.5t28 11t37.5 7.5h-277q29 -8 47.5 -17.5t28.5 -23.5t13.5 -35t3.5 -51q0 -125 -9 -252.5t-18 -240.5q-5 -15 -11.5 -24.5t-16 -15t-22 -8.5t-29.5 -5zM145 92l27 489v-33q0 -24 0.5 -49.5t0.5 -49.5v-33v-44q0 -26 -0.5 -52.5t-0.5 -46.5v-22
q0 -21 -2 -54l-4 -65t-4.5 -55t-3.5 -24l-26 -27v7v7q0 3 1.5 10.5t3.5 15.5l4 15.5t4 10.5zM185 51v15q0 3 1.5 14.5t4 25l4.5 25t3 14.5l3.5 -21.5t4.5 -32t3.5 -31.5t1.5 -20v-7v-7q-20 -1 -23 6t-3 19zM568 53q6 -2 6 -7q0 -4 -6.5 -6.5t-6.5 6.5q0 8 7 7zM605 213
q0 102 1 209.5t14 211.5h14q0 -75 -3 -149.5l-6 -148t-5 -147.5t0 -149l-13 13q0 3 -0.5 22t-0.5 44q0 26 -0.5 52.5t-0.5 41.5zM581 330q3 -8 4 -28.5t1 -44.5q0 -23 -1 -43.5t-4 -28.5q-2 -4 -3.5 1t-2 15.5t-1 25.5t-0.5 30q0 16 0.5 31t1 25.5t2 15.5t3.5 1zM198 224
q11 0 11 -13t-11 -13t-11 13t11 13zM198 343q3 -7 4.5 -21.5t1.5 -31.5t-1.5 -32t-4.5 -20q-2 -3 -3 0.5t-2 11t-1.5 18.5t-0.5 22q0 23 2 40.5t5 12.5zM251 370q4 0 19 0.5t20 0.5q2 0 10 0.5t17 0t16.5 -4t9.5 -11.5q-3 0 -13 -0.5t-13 -0.5q-20 0 -33.5 2t-32.5 13z
M198 541q3 -9 4.5 -31.5t1.5 -47.5t-1.5 -47.5t-4.5 -31.5q-3 -7 -4 4t-1 31v44v44q0 20 2 31t3 4zM211 647h13l-13 -66v66zM172 647q11 0 11 -13q0 -14 -11 -14t-11 14q0 13 11 13zM581 647q11 0 11 -13q0 -14 -11 -14t-11 14q0 13 11 13zM581 673h53q-4 -3 -13.5 -7.5
t-13.5 -5.5h-6h-7q-3 1 -7.5 5.5t-5.5 7.5zM211 673q-3 -6 -20 -6q-16 0 -19 6q-4 4 3.5 5t15.5 1t14.5 -1t5.5 -5z" />
    <glyph glyph-name="FL0049h" unicode="I" horiz-adv-x="370" 
d="M40 13l13 -13h264v13q-17 -4 -33.5 -1t-29.5 12t-21.5 23t-8.5 32v475q0 60 21.5 90t84.5 29v13h-277v-13q23 -1 45.5 -8.5t33.5 -30.5v-48q0 -33 0.5 -71t0.5 -73v-46q0 -30 1 -73.5t0 -91t-4 -94.5t-11 -84q-11 -23 -33.5 -31t-45.5 -9zM185 26q-2 -6 -13 -6
q-13 0 -14 6q-1 4 4 5t10 1t9.5 -1t3.5 -5zM211 53q11 0 11 -13q0 -14 -11 -14t-11 14q0 13 11 13zM158 251h15q0 -4 -0.5 -13.5t-0.5 -13.5q0 -10 -1.5 -34.5t-3.5 -51.5t-4.5 -51t-4.5 -34h-13v13q0 11 1.5 37.5t3.5 55.5t4 55t4 37zM198 106v-53h-13zM172 317q6 -2 6 -13
q0 -13 -6 -14q-4 -1 -5.5 4t-1.5 10t1.5 9.5t5.5 3.5zM172 634q3 -16 4 -55.5t1 -84.5q0 -44 -1 -83t-4 -55q-2 -7 -3.5 3t-2.5 30.5t-1 48.5v57v58t1 48t2.5 30t3.5 3zM198 634l13 13l-13 -185v172zM158 660q11 0 11 -13t-11 -13t-11 13t11 13zM185 673q11 0 11 -13
t-11 -13t-11 13t11 13z" />
    <glyph glyph-name="FL004Ah" unicode="J" horiz-adv-x="546" 
d="M40 217q0 -48 3 -88.5t18.5 -69t47.5 -44.5t89 -16q30 0 62.5 10t60 28.5t46 45.5t20.5 62l27 462q1 28 6.5 40.5t14 17t18.5 3t20 -2t19 3t14 17.5h-264v-13q3 0 10.5 -1.5t15.5 -3.5t15.5 -4.5t11.5 -3.5q2 -1 7.5 -5.5t5.5 -7.5v-528q0 -19 -8.5 -34t-22 -25.5
t-29.5 -16t-31 -5.5q-43 0 -68.5 13.5t-40.5 33t-21.5 43l-12 43t-12.5 33t-22 13.5zM348 119q10 0 10 -13q0 -14 -10 -14q-11 0 -11 14q0 13 11 13zM334 145q7 -2 7 -6q0 -5 -6.5 -6.5t-6.5 6.5q0 7 6 6zM361 145q10 0 10 -13t-10 -13q-11 0 -11 13t11 13zM348 238
q10 0 10 -14q0 -13 -10 -13q-11 0 -11 13q0 14 11 14zM374 251q10 0 10 -13q0 -14 -10 -14q-11 0 -11 14q0 13 11 13zM374 607q1 -13 2.5 -39t1.5 -61v-71q0 -27 -0.5 -54t-1 -50t-1.5 -41t-1 -27q-2 -7 -3.5 -1.5t-2 19.5t-1 35t-0.5 46v73v71q0 54 1.5 83.5t5.5 16.5z
M348 647q1 -10 2 -28.5t1.5 -42.5t0.5 -52v-55v-56t-0.5 -52t-1.5 -42.5t-2 -28.5q-2 -6 -3.5 -1t-2.5 19.5t-1 35.5v48v77v74v49t1 36.5t2.5 19.5t3.5 -1zM387 647q7 -2 7 -7q0 -4 -6.5 -6.5t-6.5 6.5q0 8 6 7z" />
    <glyph glyph-name="FL004Bh" unicode="K" horiz-adv-x="792" 
d="M40 13q22 2 37.5 4.5t26.5 9t17.5 19t10.5 33.5q4 49 7 90t4.5 77t2 70.5t0.5 70.5v108v29q0 23 -0.5 47t-0.5 45v31q-4 13 -17.5 16.5t-28.5 3.5t-28.5 2.5t-17.5 16.5h290q-4 -13 -13.5 -18t-20.5 -7t-23.5 -2.5t-22.5 -5t-17 -15t-8 -31.5l-14 -237l130 127.5
t121 136.5q1 1 1.5 5t0.5 8q0 12 -7 15t-15 3.5t-15 2.5t-7 12q0 3 3 6q13 2 48.5 4.5t75.5 4.5t76 3.5t50 1.5h8h6q3 -2 7.5 -6t5.5 -8q-7 -13 -25.5 -19.5t-40.5 -10.5t-44 -8.5t-35 -13.5l-14 -10t-20.5 -15.5t-19.5 -16.5t-12 -11l-212 -211l-26 -53q32 6 40 39
q1 -3 5 -13t8 -13l92 -92v-27h27l184 -171q4 -4 18.5 -8l21.5 -6q4 -2 17.5 -4t28.5 -4t28 -3.5t18 -1.5v-13h-198q-3 0 -8 5t-5 8q0 8 9.5 21.5t17.5 18.5l-27 26q-3 -3 -8 -12.5t-5 -13.5t5 -8.5t8 -4.5l-26 -14l-277 278l-14 -40l14 -211q0 -5 9.5 -14t16.5 -13
q4 -2 15.5 -4l24 -4t24 -3.5t15.5 -1.5v-13h-303v13zM185 40q-11 0 -11 -14q0 -13 11 -13t11 13q0 14 -11 14zM165 92l-20 -52l27 13l-7 369v-330zM198 53l13 -13v607l-13 -13v-581zM581 53q-11 0 -11 -13q0 -14 11 -14t11 14q0 13 -11 13zM515 79q-11 0 -11 -13t11 -13
t11 13t-11 13zM502 92q-11 0 -11 -13t11 -13t11 13t-11 13zM475 119q7 -4 12.5 -11.5t0.5 -15.5l27 14l-13 26zM528 106q-11 0 -11 -14q0 -13 11 -13t11 13q0 14 -11 14zM449 132l13 -13l13 26zM436 158q-11 0 -11 -13t11 -13t11 13t-11 13zM422 172q-11 0 -11 -14
q0 -13 11 -13t11 13q0 14 -11 14zM462 172q-11 0 -11 -14q0 -13 11 -13t11 13q0 14 -11 14zM409 185q-11 0 -11 -13q0 -14 11 -14t11 14q0 13 -11 13zM449 185q-11 0 -11 -13q0 -14 11 -14t11 14q0 13 -11 13zM396 198q-11 0 -11 -13t11 -13t11 13t-11 13zM436 198
q-11 0 -11 -13t11 -13t11 13t-11 13zM383 211q-11 0 -11 -13t11 -13t11 13t-11 13zM422 211q-11 0 -11 -13t11 -13t11 13t-11 13zM383 238l-13 -27l26 13zM356 238q-11 0 -11 -14q0 -13 11 -13t11 13q0 14 -11 14zM343 251q-11 0 -11 -13q0 -14 11 -14t11 14q0 13 -11 13z
M330 264q-11 0 -11 -13t11 -13t11 13t-11 13zM370 264q-11 0 -11 -13t11 -13t11 13t-11 13zM317 277q-11 0 -11 -13t11 -13t11 13t-11 13zM356 277q-11 0 -11 -13t11 -13t11 13t-11 13zM317 290q-2 3 -5.5 2t-6 -3.5t-3.5 -6t2 -5.5q6 -3 11 2t2 11zM343 290q-11 0 -11 -13
t11 -13t11 13t-11 13zM304 304q-4 5 -11.5 -2.5t-2.5 -11.5q7 -3 12 2t2 12zM277 317q-11 0 -11 -13q0 -14 11 -14t11 14q0 13 -11 13zM224 330q-11 0 -11 -13t11 -13t11 13t-11 13zM251 343q-11 0 -11 -13t11 -13t11 13t-11 13zM238 356q-11 0 -11 -13t11 -13t11 13t-11 13
zM515 647q-2 3 -5.5 1.5t-6 -4t-3.5 -6t2 -4.5q6 -4 11 1t2 12zM541 647q-2 3 -5 1.5t-6 -4t-4 -6t2 -4.5q7 -4 12 1t1 12zM172 660q-11 0 -11 -13t11 -13t11 13t-11 13zM568 673q-11 0 -11 -13t11 -13t11 13t-11 13zM554 673q1 4 -3.5 5t-9.5 1t-9.5 -1t-3.5 -5
q1 -3 4.5 -4.5t8.5 -1.5q11 0 13 6z" />
    <glyph glyph-name="FL004Ch" unicode="L" horiz-adv-x="581" 
d="M40 13l13 -13h422q12 0 23.5 20.5t21 46t15.5 47.5t6 25v6q-1 4 -5.5 8t-7.5 5q-18 -46 -46 -69t-64 -32t-78.5 -8t-88.5 4q-7 -15 -26 -21t-34 -6h-6l13 14q-3 116 1 231t12 231q1 13 3 33l4 39t4 32.5l2 13.5l14 14q-12 -71 -14 -148.5t-2 -153.5v-92q0 -16 0.5 -41
t0.5 -53q0 -25 0.5 -44t0.5 -23l14 -13q-4 133 1 273t12 268q6 19 15 29.5t22 15t29.5 5.5t38.5 3l-13 13l-23 2t-54.5 4l-65.5 4t-55 3h-37q-4 0 -10.5 1t-13.5 0t-12 -4t-6 -10q3 -10 14.5 -13t26 -5t29 -5.5t22.5 -15.5v-27q0 -19 0.5 -39.5t0.5 -39.5v-26v-99
q0 -34 -0.5 -66t-2 -65.5t-4.5 -70.5t-7 -82q-2 -27 -8 -47.5t-17.5 -33.5t-31 -19t-48.5 -6zM172 224v-184l-27 -14q2 2 4 7.5t4 12t3.5 12t1.5 8.5q2 9 4.5 31.5t4.5 47.5t3.5 47.5t1.5 31.5zM277 40q11 0 11 -14q0 -13 -11 -13t-11 13q0 14 11 14zM409 40q11 0 11 -14
q0 -13 -11 -13t-11 13q0 14 11 14zM475 40q11 0 11 -14q0 -13 -11 -13t-11 13q0 14 11 14zM475 66q0 -1 0.5 -3t0.5 -4q0 -11 -8 -16t-19 -5q-4 0 -8 1t-5 1zM185 383q11 0 11 -13q0 -14 -11 -14t-11 14q0 13 11 13zM185 620q3 -11 4 -44t1 -68t-1 -68t-4 -44q-4 -8 -5 7.5
t-1 43.5v60v62q0 28 1 43.5t5 7.5zM224 660q-4 -7 -19 -7q-17 0 -20 7q-4 3 4 4t16 1t14.5 -1t4.5 -4z" />
    <glyph glyph-name="FL004Dh" unicode="M" horiz-adv-x="937" 
d="M66 13v-13h238v13q-32 -6 -48.5 2t-24 24t-8 37t-0.5 41q0 95 8.5 185.5t19.5 185.5q2 -2 6 -2q2 -2 5 1t6 8t5.5 11t3.5 9q-5 -25 -3.5 -51t7.5 -51.5t15.5 -50t20.5 -45.5l26 13q-9 -49 3.5 -90t36.5 -82v14q0 23 -6.5 45t-6.5 45v-11l26 13v-7v-6q0 -3 -1.5 -8.5
t-3.5 -12t-4.5 -12t-3.5 -7.5l26 13v-6q0 -24 -7 -47t-7 -47q0 -32 12 -65t29 -59q15 9 24.5 23t16.5 30.5t12.5 33.5t12.5 32l19.5 45l30.5 70.5l35.5 82.5l35.5 82.5l30 70t20 45.5q1 -10 2.5 -30.5t3 -47l3 -55t2.5 -54.5t1.5 -46.5t0.5 -30.5v-93v-92q-4 -12 -16 -21.5
t-24.5 -17t-22 -14t-9.5 -13.5h284v13q-32 4 -54 10.5t-35.5 19.5t-20.5 34t-9 55q-2 8 -4 36t-4.5 67.5t-5 85.5l-5 90l-4.5 82t-4 61v29q0 47 31 68.5t75 21.5v13h-172l-6.5 -13.5l-15 -32.5l-17 -39t-13.5 -33l-80 -200.5t-92 -195.5q-36 60 -58.5 125.5t-41.5 132
t-40.5 132t-57.5 124.5q-9 2 -33 4.5t-51.5 4.5t-52.5 3.5t-35 1.5h-22h-18q-10 0 -12 -14q9 -19 24.5 -23t32.5 -4h36q13 0 25 -4t21 -15t14.5 -30t5.5 -50v-14q0 -10 -0.5 -19.5t-0.5 -17.5v-7q-1 -16 -4 -48l-7 -72.5l-8.5 -85l-8.5 -85t-7.5 -72.5t-4.5 -47
q-4 -38 -30 -58t-62 -21zM211 40q11 0 11 -14q0 -13 -11 -13t-11 13q0 14 11 14zM739 40q11 0 11 -14q0 -13 -11 -13t-11 13q0 14 11 14zM198 158q3 -6 4.5 -23t1.5 -37q0 -19 -1.5 -35.5t-4.5 -22.5q-3 -5 -4 3t-1 23v33v33q0 15 2 23t3 3zM713 317v-277h-13zM752 145
l10.5 -53.5t16.5 -51.5q-1 0 -3.5 -1t-3.5 -1t-3.5 1l-2.5 1q-4 3 -9 6t-5 7v92zM436 79q15 -7 15 -26h-15v26zM172 79q11 0 11 -13t-11 -13t-11 13t11 13zM422 106q4 -1 5.5 -3t1.5 -4q0 -4 -6.5 -6.5t-6.5 5.5q0 9 6 8zM462 106q11 0 11 -14q0 -13 -11 -13t-11 13
q0 14 11 14zM409 145q7 -1 7 -13t-7 -13q-3 -1 -4.5 3.5t-1.5 9.5t1.5 9.5t4.5 3.5zM488 158v-6v-7q-1 -3 -5 -13t-8 -13v6v7q1 3 5.5 13t7.5 13zM422 185v13q11 -11 13 -21t2 -25q0 -4 -0.5 -10.5t-0.5 -9.5q-2 2 -4 7.5t-4 12t-3.5 12t-2.5 8.5v13zM739 330q4 -9 5 -31.5
t1 -47.5t-1 -47.5t-5 -31.5q-3 -5 -4.5 8t-1.5 37v34v33t1 27.5t2 17t3 1.5zM515 224q11 0 11 -13t-11 -13t-11 13t11 13zM528 264q11 0 11 -13t-11 -13t-11 13t11 13zM211 277q7 -1 7 -6t-6.5 -6.5t-6.5 6.5q0 7 6 6zM356 290q7 -1 7 -6t-6.5 -6.5t-6.5 6.5q0 7 6 6z
M554 304q0 -2 0.5 -4t0.5 -3t-0.5 -4l-0.5 -3q-1 -3 -5 -7.5t-8 -5.5zM369 330q0 3 0.5 7.5t0.5 5.5q9 -11 11.5 -19.5t2.5 -19.5q0 -4 -0.5 -8.5t-0.5 -5.5q-9 11 -11.5 20t-2.5 20zM330 370q7 -2 7 -7t-7 -6.5t-7 6.5q0 9 7 7zM356 383q4 -1 5.5 -4.5t1.5 -8.5
q0 -11 -7 -14q-3 -1 -4.5 4t-1.5 10t1.5 9.5t4.5 3.5zM581 370q11 0 11 -14q0 -13 -11 -13t-11 13q0 14 11 14zM317 409q6 -2 6 -13q0 -12 -6 -13q-4 -1 -5.5 3.5t-1.5 9.5t1.5 9.5t5.5 3.5zM726 647h13l-13 -264v264zM343 409q7 -1 7 -6t-6.5 -6.5t-6.5 6.5q0 7 6 6z
M594 409q11 0 11 -13t-11 -13t-11 13t11 13zM700 515q3 -7 4 -21.5t1 -31.5t-1 -32.5t-4 -20.5q-4 -7 -5.5 11.5t-1.5 41.5t1.5 40.5t5.5 12.5zM304 436q6 -2 6 -7q0 -4 -6.5 -6.5t-6.5 6.5q0 8 7 7zM607 436q11 0 11 -14q0 -13 -11 -13t-11 13q0 14 11 14zM330 449
q7 -2 7 -7q0 -4 -7 -6.5t-7 6.5t7 7zM290 475q7 -1 7 -13t-7 -13q-3 -1 -4.5 3.5t-1.5 9.5t1.5 9.5t4.5 3.5zM620 462q11 0 11 -13t-11 -13t-11 13t11 13zM317 488q6 -2 6 -6q0 -5 -6.5 -7t-6.5 7t7 6zM647 502q3 -7 -2 -12t-11 -2q-3 2 -2 5.5t3.5 6t6 4t5.5 -1.5zM304 528
q6 -2 6 -13q0 -12 -6 -13q-4 -1 -5.5 3.5t-1.5 9.5t1.5 9.5t5.5 3.5zM238 541q6 -2 6 -13q0 -12 -6 -13q-4 -1 -5.5 3.5t-1.5 9.5t1.5 9.5t5.5 3.5zM264 554q7 -2 7 -13t-7 -13q-3 -1 -5 3.5t-2 9.5t2 9.5t5 3.5zM290 554q11 0 11 -13t-11 -13t-11 13t11 13zM673 554
q4 -6 -1 -11t-12 -2q-3 2 -2 5.5t4 6t6 3.5t5 -2zM700 568q6 -3 6 -7q0 -5 -6.5 -7t-6.5 7q0 8 7 7zM251 581q6 -2 6 -7q0 -4 -6.5 -6.5t-6.5 6.5q0 8 7 7zM277 594q7 -1 7 -7q0 -4 -6.5 -6.5t-6.5 6.5q0 8 6 7zM660 594q11 0 11 -13t-11 -13t-11 13t11 13zM224 620
q7 -1 7 -13q0 -5 -1.5 -8.5t-5.5 -4.5q-3 -1 -4.5 3.5t-1.5 9.5t1.5 9.5t4.5 3.5zM251 634q0 3 5 8t8 5v-40q-3 4 -8 13t-5 14zM673 620q11 0 11 -13t-11 -13t-11 13t11 13zM211 647q11 0 11 -13q0 -14 -11 -14t-11 14q0 13 11 13zM686 647q11 0 11 -13q0 -14 -11 -14
t-11 14q0 13 11 13zM198 660q11 0 11 -13t-11 -13t-11 13t11 13zM238 660q-2 -7 -7 -7t-6.5 7t6.5 7q9 0 7 -7zM713 673q11 0 11 -13t-11 -13t-11 13t11 13z" />
    <glyph glyph-name="FL004Eh" unicode="N" horiz-adv-x="825" 
d="M153 389v-57q0 -35 -0.5 -69.5t-0.5 -62.5v-28q-1 -46 -9 -74.5t-19 -45t-23.5 -23.5t-23 -11t-17.5 -7t-7 -11h244v13q-35 15 -51.5 32.5t-23 39.5t-6 50t0.5 64v78q0 27 0.5 52t2 51.5t4.5 56t7 65.5l106 -106q0 1 0.5 3.5t0.5 3.5q0 10 -7 20.5t-16 21l-18 21
t-13 22.5l26 14v-40l27 13v-26h39v13l-18 23l-43.5 54.5l-52.5 65l-44 55.5q-5 7 -15 16.5t-12 9.5h-151q0 -2 16 -12.5l36 -24l38 -26t22 -16.5v-44q0 -31 0.5 -65.5t0.5 -66.5v-42zM614 92q-4 -9 -2.5 -24.5t7 -30.5t14.5 -26t20 -11h14q3 79 5 156.5t4.5 154t6 153.5
t10.5 156q6 18 13.5 27.5t19 15t26 7l33.5 3.5v13h-264v-13q27 -2 46.5 -4.5t33 -10.5t20 -24.5t6.5 -45.5v-7q0 -16 -0.5 -48t-1.5 -72.5t-2.5 -85t-3 -84.5t-3 -72t-2.5 -47l-13 13.5t-14 12.5l-2.5 0.5t-3.5 0.5t-4 -0.5l-3 -0.5q-4 -3 -13.5 -12.5t-12.5 -13.5
q3 4 7.5 19t5.5 20v7v6q-1 4 -5.5 13.5t-7.5 13.5q-5 8 -13.5 19t-17.5 21.5l-15.5 18l-6.5 7.5h-13v-27q-2 2 -7.5 6t-12 8l-12 7.5l-8.5 5.5h-13q-3 1 -8 6.5t-5 6.5q0 4 5 13.5t8 12.5l40 -26q0 1 0.5 3t0.5 4l-9 14.5l-20.5 32.5l-22.5 34t-15 18q-4 1 -13.5 -5.5
t-13.5 -8.5q-1 0 -6.5 -1t-6.5 -1v-24l26 13q-1 -1 -1 -6q-3 -5 4 -10t11 -10q0 -5 -5 -14t-9 -13l-26 14q0 -1 -0.5 -3.5t-0.5 -3.5t0.5 -4l0.5 -3q5 -8 13.5 -19l16.5 -21.5t14.5 -18t8.5 -7.5h28v-19q0 -15 6 -31.5t25 -16.5q1 0 4 0.5l3 0.5q3 2 7.5 6t5.5 8
q-3 0 -8 4.5t-5 8.5t5 13.5t8 12.5q5 -3 14 -12.5t12 -13.5v-7q0 -11 -5.5 -24.5t-20.5 -13.5v-8l92 -119l2 -0.5t5 -0.5q1 0 4 0.5l3 0.5q3 1 7.5 5.5t5.5 7.5zM178 40q11 0 11 -14q0 -13 -11 -13t-11 13q0 14 11 14zM165 79q0 -1 0.5 -5.5t0.5 -7.5q0 -8 -1.5 -15
t-12.5 -11zM190 79q0 4 0.5 13.5t0.5 13.5q2 -3 4 -10.5t4.5 -16t4 -16t1.5 -10.5v-7v-6q-7 1 -10.5 6.5t-4.5 11.5t-0.5 12t0.5 9zM653 53q-1 -7 -6 -7t-7 6.5t7 6.5q7 0 6 -6zM627 79q11 0 11 -13t-11 -13t-11 13t11 13zM614 119q3 -7 -2 -12t-11 -1q-3 1 -2 4.5t3.5 6.5
t6 4t5.5 -2zM587 132q11 0 11 -13t-11 -13t-11 13t11 13zM640 224q4 -6 5 -20.5t1 -31.5t-1 -32.5t-5 -20.5q-3 -7 -4.5 11.5t-1.5 41.5t1.5 40t4.5 12zM587 158l14 -13l-27 -13zM191 172q7 -3 7 -14q0 -5 -1.5 -8.5t-5.5 -4.5q-3 -1 -4.5 3.5t-1.5 9.5t1.5 10t4.5 4z
M574 185q11 0 11 -13q0 -14 -11 -14t-11 14q0 13 11 13zM535 198q11 0 11 -13t-11 -13t-11 13t11 13zM191 211q7 -1 7 -6t-6.5 -6.5t-6.5 6.5q0 7 6 6zM521 211q11 0 11 -13t-11 -13t-11 13t11 13zM548 224q11 0 11 -13t-11 -13t-11 13t11 13zM535 238q11 0 11 -14
q0 -13 -11 -13t-11 13q0 14 11 14zM508 251q-11 0 -11 -13q0 -14 11 -14t11 14q0 13 -11 13zM191 277q11 0 11 -13t-11 -13t-11 13t11 13zM469 277q11 0 11 -13t-11 -13t-11 13t11 13zM455 290q11 0 11 -13t-11 -13t-11 13t11 13zM191 304q7 -3 7 -7q0 -5 -6.5 -6.5
t-6.5 6.5t6 7zM403 356q11 0 11 -13t-11 -13t-11 13t11 13zM416 383q11 0 11 -13q0 -14 -11 -14t-11 14q0 13 11 13zM350 396q-11 0 -11 -13t11 -13t11 13t-11 13zM350 449q-11 0 -11 -13q0 -14 11 -14t11 14q0 13 -11 13zM323 502q11 0 11 -14q0 -13 -11 -13t-11 13
q0 14 11 14zM271 515q11 0 11 -13q0 -14 -11 -14t-11 14q0 13 11 13zM230 548q0 1 0.5 3t0.5 3q3 -3 12.5 -8t13.5 -5q5 0 14 5t13 8q3 -3 7.5 -13t5.5 -13v-7v-6q-3 3 -12.5 8t-13.5 5q-5 0 -14 -5t-13 -8h13q-4 3 -13.5 12.5t-12.5 13.5l-0.5 3t-0.5 4zM205 568
q6 -8 6 -20q0 -14 -6 -20q-4 -3 -5.5 4t-1.5 16t1.5 16t5.5 4zM178 634q1 3 5.5 7.5t7.5 5.5l3 0.5t4 0.5t3.5 -0.5t3.5 -0.5q3 -3 10.5 -12.5l16 -20l16 -20t9.5 -13.5l0.5 -3t0.5 -4t-0.5 -3t-0.5 -3l-13.5 10.5l-19.5 15.5l-19.5 15.5l-13.5 10.5q-3 1 -7.5 5.5t-5.5 8.5
zM165 647q11 0 11 -13q0 -14 -11 -14t-11 14q0 13 11 13zM653 647q11 0 11 -13q0 -14 -11 -14t-11 14q0 13 11 13zM640 660q11 0 11 -13t-11 -13t-11 13t11 13zM680 660q11 0 11 -13t-11 -13t-11 13t11 13zM165 673q11 0 11 -13t-11 -13t-11 13t11 13z" />
    <glyph glyph-name="FL004Fh" unicode="O" 
d="M40 350q0 -70 27.5 -133.5t74.5 -111.5t109.5 -76.5t131.5 -28.5q71 0 123.5 37.5t87 94t51 123.5t16.5 126q0 63 -20 121t-56.5 102t-89.5 70.5t-119 26.5q-69 0 -130 -29t-106.5 -78t-72.5 -112t-27 -132zM144 348q0 48 10.5 103t35 101.5t65 77.5t101.5 31t104 -27.5
t70 -71.5t39 -98t12 -108q0 -48 -12 -103.5t-38 -103t-67.5 -79.5t-100.5 -32q-60 0 -102 30t-68 75.5t-37.5 100t-11.5 104.5zM145 145q11 0 11 -13t-11 -13t-11 13t11 13zM132 158q11 0 11 -13t-11 -13t-11 13t11 13zM620 502q15 -35 21.5 -72t6.5 -74q0 -18 -4 -49.5
t-12.5 -64.5t-21 -60.5t-29.5 -36.5l7 21.5l13 40t13 42t6 28.5q0 12 0.5 44.5t0.5 67.5q0 36 -0.5 68.5t-0.5 44.5zM119 172q6 -3 6 -7q0 -5 -6.5 -6.5t-6.5 6.5t7 7zM106 198q6 -2 6 -7t-6.5 -6.5t-6.5 6.5t7 7zM145 198q11 0 11 -13t-11 -13t-11 13t11 13zM581 211
q11 0 11 -13t-11 -13t-11 13t11 13zM132 224q11 0 11 -13t-11 -13t-11 13t11 13zM65 350v23t1.5 19.5t4.5 19.5t8 24q2 -11 4 -37t4 -55.5t3.5 -56t1.5 -36.5v-13v-14q-20 27 -23.5 61t-3.5 65zM105 350q0 9 -1 29.5t0.5 42.5t7.5 41t20 25v-6v-7q0 -3 -2 -14.5l-4.5 -25
l-4.5 -25t-2 -14.5q0 -11 -0.5 -34t-0.5 -52q0 -28 0.5 -52t0.5 -34q-14 33 -14 62v64zM594 264q11 0 11 -13t-11 -13t-11 13t11 13zM607 409q4 -5 5 -18t1 -28t-1 -28t-5 -18q-3 -5 -4.5 10.5t-1.5 35.5t1.5 35.5t4.5 10.5zM92 475q7 -1 7 -6t-6.5 -7t-6.5 7q0 7 6 6z
M594 488q7 -2 7 -6q0 -5 -7 -7t-7 7t7 6zM119 528l-13 -26q0 1 -0.5 3t-0.5 3t0.5 4l0.5 3q1 3 5 7.5t8 5.5zM145 528q7 -1 7 -7q0 -4 -6.5 -6.5t-6.5 6.5q0 8 6 7zM581 528q11 0 11 -13t-11 -13t-11 13t11 13zM607 528q7 -1 7 -7q0 -4 -6.5 -6.5t-6.5 6.5q0 8 6 7zM568 554
q11 0 11 -13t-11 -13t-11 13t11 13zM594 568q7 -4 7 -14q0 -11 -7 -13q-3 -1 -5 3.5t-2 9.5t2 10t5 4zM581 594q11 0 11 -13t-11 -13t-11 13t11 13zM172 607q11 0 11 -13t-11 -13t-11 13t11 13zM568 607q11 0 11 -13t-11 -13t-11 13t11 13zM554 620q11 0 11 -13t-11 -13
t-11 13t11 13zM541 634q11 0 11 -14q0 -13 -11 -13t-11 13q0 14 11 14zM528 647q11 0 11 -13q0 -14 -11 -14t-11 14q0 13 11 13z" />
    <glyph glyph-name="FL0050h" unicode="P" horiz-adv-x="570" 
d="M40 11q33 0 53.5 16.5t32.5 42.5t16 58.5t5 65t-0.5 61.5t-1.5 49v22q0 20 0.5 46t0.5 53v44v33q0 23 -0.5 49t-0.5 50v33q-8 11 -21 18t-28.5 11t-30.5 6t-25 4v18q11 0 41 -1t63.5 -1.5t64 -1.5t42.5 -1q5 0 24 -2t43.5 -5.5t52 -9.5t51 -13.5t38.5 -17.5t15 -22v-7
l-13 -39v-7v-6l26 13q-2 -11 0 -21.5t5 -21l6 -21t3 -22.5q0 -40 -15 -73.5t-38 -65.5q67 55 67 141q0 16 -0.5 28.5t-3.5 24.5t-8.5 25.5t-15.5 31.5q2 0 4 1t3 1q16 0 23.5 -16.5t10 -37.5t1.5 -41t-1 -26v-13q0 -8 -0.5 -19t-0.5 -20v-14q-26 -51 -67.5 -78.5
t-97.5 -27.5q-5 0 -26.5 1t-44.5 4.5t-41.5 9.5t-18.5 15q43 0 82.5 6.5t69.5 23.5t48 46.5t18 75.5q0 18 -4 33.5t-8.5 30t-8.5 29.5t-4 33q-18 0 -37.5 5.5t-39 12.5t-39 12.5t-38.5 5.5q-5 0 -17 -1t-16 -1q-7 -49 -10 -94.5t-4 -90t-1 -90.5v-95v-39q0 -29 0.5 -60
t0.5 -60v-39q0 -20 9 -32t22.5 -18.5t30 -9.5l31.5 -6v-13h-277v11zM158 119q-1 -3 -3 -12.5l-4.5 -20.5t-4 -20.5t-1.5 -12.5q0 -4 -0.5 -7t-0.5 -6h14v79zM185 64q0 -9 4.5 -17.5t15.5 -8.5q1 0 3 1t3 1l-13 594q-1 -20 -2.5 -63.5t-3 -98.5t-3 -116t-2.5 -115.5t-1.5 -98
t-0.5 -63.5v-15zM172 290q-4 4 -5.5 -5.5t-1.5 -20.5t1.5 -20.5t5.5 -5.5q6 6 6 26t-6 26zM422 345q-11 0 -11 -13t11 -13t11 13t-11 13zM422 372q-11 0 -11 -13q0 -14 11 -14t11 14q0 13 -11 13zM172 409q-4 4 -5.5 -3t-1.5 -17q0 -9 1.5 -16t5.5 -3q6 6 6 19q0 14 -6 20z
M462 398l-13 -26q3 2 7.5 6.5t5.5 6.5l0.5 3t0.5 4q0 2 -0.5 3.5t-0.5 2.5zM475 451q-11 0 -11 -13t11 -13t11 13t-11 13zM172 502q-4 1 -5.5 -4t-1.5 -10t1.5 -9.5t5.5 -3.5q3 1 4.5 4.5t1.5 8.5q0 12 -6 14zM172 634q-4 5 -5.5 -12.5t-1.5 -40.5t1.5 -41.5t5.5 -11.5
q3 5 4 20.5t1 32.5t-1 31.5t-4 21.5zM475 543q-11 0 -11 -13t11 -13t11 13t-11 13zM462 623q-11 0 -11 -14q0 -13 11 -13t11 13q0 14 -11 14z" />
    <glyph glyph-name="FL0051h" unicode="Q" horiz-adv-x="704" 
d="M384 -28q0 2 -0.5 4t-0.5 3t0.5 4l0.5 3q1 2 6 7t7 6q0 2 -5 7.5t-8 5.5q-5 0 -14 -5.5t-12 -7.5q-69 14 -127.5 46t-101 79.5t-66 109.5t-23.5 136q0 67 28.5 127.5t76 105.5t109 71.5t127.5 26.5q69 0 123.5 -29t92 -76.5t57.5 -108.5t20 -125q0 -54 -13.5 -105.5
t-40 -96t-66 -79.5t-91.5 -56q33 -40 73.5 -73t84.5 -59l-39 -26h6q18 0 32.5 7t33.5 7q5 0 12 -0.5t8 -0.5l119 -26h7q35 0 66 6t57.5 19.5t47 36.5t33.5 56q4 0 9 -5t5 -8q0 -29 -13.5 -51t-35 -38.5t-49 -27t-56 -17t-56 -9.5t-48.5 -3q-110 0 -201.5 44.5t-174.5 114.5z
M681 -146h-7l-12.5 -6t-13.5 -8h6h7q3 2 13.5 6t12.5 8h-6zM648 -133l-40 -13q1 0 6 -0.5t7 -0.5q8 0 15 1.5t12 12.5zM555 -94v-26l27 13q-1 3 -5.5 7.5t-7.5 5.5l-3 1t-4 1t-3 -1t-4 -1zM529 -94q-10 0 -10 -13t10 -13q11 0 11 13t-11 13zM529 -54q-4 -11 -9.5 -22
t-16.5 -18h6h7q3 2 13.5 6t12.5 8zM490 -67q-10 0 -10 -13q0 -14 10 -14q11 0 11 14q0 13 -11 13zM476 -54l-13 -13h7h6q4 1 14 5.5t13 7.5l-66 79l-27 -53q1 5 11.5 10.5t15.5 3.5q2 -2 8 -7.5l12.5 -12l12 -12t6.5 -8.5zM450 -41q-10 0 -10 -13t10 -13q11 0 11 13t-11 13z
M437 -28q-10 0 -10 -13t10 -13q11 0 11 13t-11 13zM145 355q0 -55 12 -109t38.5 -97.5t69.5 -70.5t106 -27q58 0 98.5 26.5t66 68.5t36.5 93.5t11 102.5q0 35 -8.5 68.5t-18.5 64.5l-18.5 59t-8.5 52v7l6 12.5t7 13.5q-2 -3 -12.5 -7.5t-13.5 -5.5h-7q-20 0 -35 8.5
t-30 18.5t-32 18.5t-41 8.5q-62 0 -105 -26.5t-70 -69t-39 -97.5t-12 -112zM173 118q-10 0 -10 -13q0 -14 10 -14q11 0 11 14q0 13 -11 13zM173 131q-2 3 -5 2t-6 -4t-4.5 -6.5t1.5 -4.5q8 -4 12.5 0.5t1.5 12.5zM146 144q-10 0 -10 -13t10 -13q11 0 11 13t-11 13zM608 184
q-11 -8 -16.5 -18.5t-9.5 -21.5q11 7 16.5 18t9.5 22zM133 170q-10 0 -10 -13t10 -13q11 0 11 13t-11 13zM159 170q-9 0 -9 -13t9 -13q11 0 11 13t-11 13zM106 197q0 -8 1.5 -15t12.5 -12v7v7q-1 2 -5.5 12.5t-7.5 13.5q0 -1 -0.5 -6t-0.5 -7zM146 197q-10 0 -10 -13
q0 -14 10 -14q11 0 11 14q0 13 -11 13zM582 197q-10 0 -10 -13q0 -14 10 -14q11 0 11 14q0 13 -11 13zM106 349q0 -35 3.5 -71.5t23.5 -67.5v13q0 35 -7 66t-7 66q0 32 7 63t7 63v6q-20 -30 -23.5 -66.5t-3.5 -71.5zM595 223q-7 2 -7 -6t7 -6.5t7 6.5q0 4 -7 6zM94 250
q-3 1 -5 -3.5t-2 -9.5t2 -10t5 -4q6 1 6 14q0 11 -6 13zM635 487q0 -11 0.5 -39t0.5 -60t-0.5 -59.5t-0.5 -39.5q0 -4 -1.5 -13.5t-3.5 -20t-4.5 -19.5t-4.5 -13q15 8 21 27t7.5 41t0.5 42t-1 29q0 10 1 26.5t0 34.5t-4 35t-11 29zM66 355q0 -27 1.5 -46.5t12.5 -45.5
q0 10 1.5 36.5t4 56t4.5 55.5t4 37q1 10 8.5 28t16.5 37t17 34t10 19q-22 -14 -37.5 -39.5t-25 -55.5t-13.5 -61t-4 -55zM608 329q-2 2 -4 -6.5t-2 -20.5t2 -20.5t4 -5.5q7 4 7 26q0 20 -7 27zM608 448q-2 4 -4 -7t-2 -26q0 -7 0.5 -13.5t1.5 -12t2 -7.5t2 0q4 4 5 13t1 20
t-1 19.5t-5 13.5zM582 527q0 -15 2.5 -25.5t10.5 -27.5v92q-9 -12 -11 -19.5t-2 -19.5zM621 514q-6 2 -6 -7t6.5 -6.5t6.5 6.5q0 2 -1.5 4t-5.5 3zM146 540q-10 0 -10 -13t10 -13q11 0 11 13t-11 13zM608 553q-10 0 -10 -13t10 -13q11 0 11 13t-11 13zM173 566q-2 3 -5 2
t-6 -4t-4.5 -6.5t1.5 -4.5q8 -3 12.5 1.5t1.5 11.5zM569 566q-10 0 -10 -13t10 -13q11 0 11 13t-11 13zM569 593q-2 3 -5 2t-6 -4t-4.5 -6.5t1.5 -4.5q8 -4 12.5 0.5t1.5 12.5zM582 593q-10 0 -10 -13q0 -14 10 -14q11 0 11 14q0 13 -11 13zM159 606q-9 0 -9 -13t9 -13
q11 0 11 13t-11 13zM542 606q-10 0 -10 -13t10 -13q11 0 11 13t-11 13zM529 632q-1 3 -4.5 2t-6.5 -4t-4 -6.5t2 -4.5q8 -3 12 1.5t1 11.5zM490 659q-10 0 -10 -13q0 -14 10 -14q11 0 11 14q0 13 -11 13z" />
    <glyph glyph-name="FL0052h" unicode="R" horiz-adv-x="675" 
d="M134 561q0 -62 1.5 -124.5t0 -124.5t-7.5 -124t-20 -122q-3 -11 -14 -20.5t-23 -17.5t-21.5 -13.5t-9.5 -7.5q0 -5 2 -7l251 13v5q-8 0 -21.5 3t-26.5 9t-22.5 15t-9.5 21v232q28 0 45.5 1t30.5 -2t25.5 -13.5t30.5 -32.5l10.5 22t16.5 17q0 -3 1 -9.5t1 -9.5
q0 -8 -2.5 -13t-5.5 -8.5t-5.5 -7.5t-2.5 -11q0 -1 0.5 -4l0.5 -3q1 -4 6.5 -13.5t12 -19.5l12.5 -19.5t8 -13.5l53 27v-7q0 -15 -7 -26.5t-22 -11.5q0 -5 3 -8q1 -3 6.5 -12l12 -19.5l12.5 -20.5t8 -14l10.5 -15l13 -17.5l11.5 -14.5l5 -6h132q-21 8 -33 16l-22.5 15
t-22 11t-30.5 4q0 40 -17 73.5t-40 65l-47 63.5t-39 69q27 7 47.5 25.5t34 43t20 52t6.5 51.5q0 25 -12 57t-32 60.5t-47 47.5t-57 19h-290q29 -8 45 -17.5t23.5 -23.5t9 -34.5t1.5 -49.5zM183 71q3 0 4 -5q3 -3 7.5 -13t5.5 -13q-11 -9 -19 -12t-20 -3q-3 0 -7.5 0.5
t-6.5 0.5q20 -1 28 15t8 30zM530 40q11 0 11 -14q0 -13 -11 -13q-10 0 -10 13q0 14 10 14zM147 185v-132l-26 -13q11 35 17 72.5t9 72.5zM464 112v7q2 3 6.5 13t6.5 13q-2 -9 1 -21t9 -23.5t14 -21t16 -13.5l-26 -13h13q-12 9 -26 25.5t-14 33.5zM543 66q11 0 11 -13
t-11 -13q-10 0 -10 13t10 13zM504 119q11 0 11 -13q0 -14 -11 -14q-10 0 -10 14q0 13 10 13zM451 145q11 0 11 -13t-11 -13q-10 0 -10 13t10 13zM464 172q11 0 11 -14q0 -13 -11 -13q-10 0 -10 13q0 14 10 14zM425 224v-6v-7q-1 -3 -5.5 -13t-8.5 -13v6v7q2 3 6.5 13t7.5 13
zM438 211q11 0 11 -13t-11 -13q-10 0 -10 13t10 13zM383 238h28l-13 -27q-15 9 -15 27zM167 647v-185l20 198l-7 -264v40l-19 -198zM398 277q11 0 11 -13t-11 -13q-10 0 -10 13t10 13zM385 290q11 0 11 -13t-11 -13q-10 0 -10 13t10 13zM359 317q0 -1 1 -3.5t1 -3.5t-1 -3.5
l-1 -2.5q-1 -4 -5.5 -8.5t-8.5 -5.5zM332 317q11 0 11 -13q0 -14 -11 -14q-10 0 -10 14q0 13 10 13zM319 330q11 0 11 -13t-11 -13q-10 0 -10 13t10 13zM200 343q11 0 11 -13t-11 -13q-10 0 -10 13t10 13zM187 370q11 0 11 -14q0 -13 -11 -13q-10 0 -10 13q0 14 10 14z
M232 660q113 0 166 -92v-14q0 -9 1 -19.5t1 -19.5v-13q0 -48 -12 -77.5t-35.5 -46t-58.5 -22t-81 -5.5v296q0 3 5.5 6.5t8.5 6.5h5zM451 436q0 -1 1 -5.5t1 -8.5q0 -23 -17.5 -38.5t-37.5 -27.5q9 21 22 43t31 37zM411 409q4 -7 -0.5 -11.5t-12.5 -1.5q-3 1 -1.5 4.5
t4.5 6.5t6 4t4 -2zM438 528q0 -3 1 -13t1 -13q0 -15 -1.5 -28.5t-13.5 -24.5v6v7q0 3 1.5 12.5t4 20.5l4.5 20.5t3 12.5zM464 554q4 -5 5 -18t1 -28t-1 -28t-5 -18q-2 -5 -4 10.5t-2 35.5t2 35.5t4 10.5zM438 594q16 -6 16 -24q-12 0 -21.5 -4.5t-21.5 -11.5h17q0 4 -1.5 7
t-1.5 7q2 3 6.5 13t6.5 13zM411 607q11 0 11 -13t-11 -13q-9 0 -9 13t9 13zM385 660q11 0 11 -13t-11 -13q-10 0 -10 13t10 13zM359 673q11 0 11 -13t-11 -13q-10 0 -10 13t10 13zM174 673q-2 -6 -7 -6t-6.5 6.5t6.5 6.5q10 0 7 -7z" />
    <glyph glyph-name="FL0053h" unicode="S" horiz-adv-x="438" 
d="M61 12q2 0 9.5 -2l16.5 -4.5l16.5 -4.5t10.5 -2q8 -2 20.5 -4l24.5 -4t22 -3.5t12 -1.5q44 0 80.5 14t63 39t41 60.5t14.5 77.5q0 38 -17.5 77t-47 70.5t-68 51.5t-79.5 20q-2 0 -7 -0.5t-6 -0.5l66 -39h-13q-23 0 -41 5.5t-41 5.5q0 8 1 12t1 5q0 4 -2.5 8.5t-10.5 15.5
h32q0 17 -11.5 30l-25 27.5t-25 34.5t-11.5 52q0 51 27.5 73.5t76.5 22.5q34 0 59 -9.5t43 -23.5t30 -30.5t20 -30.5l13.5 -23.5t9.5 -9.5v195q-12 0 -23.5 -12t-16.5 -18q-56 4 -108 3t-93 -17.5t-65.5 -53t-24.5 -102.5q0 -42 22 -85t57 -77.5t78.5 -56t87.5 -21.5h6
q3 0 8.5 1.5t12 4l12 4.5t7.5 4l-26 -27q3 -4 12.5 -13.5t13.5 -12.5q1 -1 2 1.5t2 2.5q0 -36 -0.5 -76t-12.5 -73t-40 -52.5t-83 -13.5q-72 6 -110.5 47.5t-47.5 110.5v-185q3 4 12.5 8.5t13.5 4.5zM61 52q11 0 11 -13t-11 -13q-10 0 -10 13t10 13zM365 197q3 -4 4 -13
t1 -20t-1 -19.5t-4 -13.5q-3 -4 -5 8t-2 25q0 15 2 26.5t5 6.5zM352 237q11 0 11 -13q0 -14 -11 -14q-10 0 -10 14q0 13 10 13zM365 263q11 0 11 -13t-11 -13q-10 0 -10 13t10 13zM338 276q4 -6 -0.5 -11t-12.5 -2q-3 2 -2 5.5t4 6t6.5 3.5t4.5 -2zM352 276q11 0 11 -13
t-11 -13q-10 0 -10 13t10 13zM285 303q11 0 11 -13q0 -14 -11 -14q-9 0 -9 14q0 13 9 13zM259 316q11 0 11 -13t-11 -13q-10 0 -10 13t10 13zM312 316q11 0 11 -13t-11 -13q-10 0 -10 13t10 13zM259 356l26 -27q-4 -3 -19 -7.5t-20 -5.5h-7h-6q11 7 16.5 18t9.5 22zM299 329
q11 0 11 -13t-11 -13q-10 0 -10 13t10 13zM206 342q11 0 11 -13t-11 -13q-10 0 -10 13t10 13zM180 356q11 0 11 -14q0 -13 -11 -13q-10 0 -10 13q0 14 10 14zM153 369q11 0 11 -13q0 -14 -11 -14q-9 0 -9 14q0 13 9 13zM114 395q11 0 11 -13t-11 -13q-10 0 -10 13t10 13z
M101 435l13 -13l-26 -14zM88 448q3 -7 -1.5 -12t-12.5 -1q-3 1 -1.5 4.5t4.5 6.5t6 4t5 -2zM74 488q11 0 11 -14q0 -13 -11 -13q-10 0 -10 13q0 14 10 14zM61 514q7 -2 7 -7q0 -4 -6.5 -6.5t-6.5 6.5t6 7zM325 646q11 0 11 -13t-11 -13q-10 0 -10 13t10 13zM325 672
q11 0 11 -13t-11 -13q-10 0 -10 13t10 13z" />
    <glyph glyph-name="T" unicode="T" horiz-adv-x="692" 
d="M306 631q0 -72 3 -142.5t3 -143.5q0 -71 -6.5 -141t-26.5 -138q-2 -11 -11.5 -19.5t-19.5 -16t-18 -15t-8 -15.5h255v13q-38 5 -65 27t-27 66v523q36 0 77 2.5t77.5 -4t63.5 -28.5t33 -71h16q0 12 -0.5 38t-3.5 52.5t-9 47t-16 20.5h-528l-27 -13q1 0 -2.5 -12.5l-8 -30
t-9.5 -35t-6 -27.5q-1 -4 -1.5 -17t-0.5 -16q12 0 17.5 8.5t8.5 20.5l6 24t9 19q18 17 47 23t61 6t63 -2.5t54 -2.5zM319 238v-198l-26 -14q8 22 13 52.5t8 61t4 57.5t1 41zM385 40q11 0 11 -14q0 -13 -11 -13q-10 0 -10 13q0 14 10 14zM345 53l14 119q1 -6 3 -23t4.5 -36
t4 -36.5t1.5 -23.5v-16q-1 0 -6 0.5t-7 2.5q-3 3 -8.5 7.5t-5.5 5.5zM332 396q7 -6 7 -20q0 -13 -7 -20q-2 -3 -4 4t-2 16t2 16t4 4zM359 422q11 0 11 -13t-11 -13q-10 0 -10 13t10 13zM332 634q4 -12 5 -42t1 -65q0 -33 -1 -63t-5 -42q-2 -6 -4 11.5t-2 49.5v45v44
q0 35 2 51.5t4 10.5zM359 634q3 -11 4 -34.5t1 -51.5q0 -29 -1 -53t-4 -33q-2 -4 -3.5 2t-2 18.5t-1 30t-0.5 35.5t0.5 35t1 30t2 19t3.5 2zM596 660q-5 -7 -20 -7q-12 0 -19 7q-3 3 4 4t15 1q9 0 16.5 -1t3.5 -4z" />
    <glyph glyph-name="FL0055h" unicode="U" horiz-adv-x="832" 
d="M285 53q0 -21 10 -32.5t26.5 -16t38 -5t43.5 -0.5q30 0 52.5 3.5t42.5 11t41 20.5t48 32v-66h205q-10 1 -23 4t-26 7.5t-24.5 11.5t-18.5 17q-8 33 -11.5 71.5t-4 78.5t0 77.5t0.5 69.5q0 31 -3 66t-4 70t2 68t15 60t35 46t62 26v13h-290v-13q10 0 24 -1.5t27.5 -5.5
t24.5 -12t16 -20v-40q0 -28 0.5 -59t0.5 -60v-39v-158q0 -42 -3.5 -81.5t-10.5 -77.5q-29 -36 -64 -51t-81 -15q-39 0 -77 15.5t-68 42.5t-48.5 63t-18.5 77v343q0 22 10 37t25.5 24.5t34 13.5t36.5 4l-13 13h-264l-13 -13q33 -1 58 -17.5t34 -48.5q0 -14 0.5 -42.5t2 -65
t2.5 -77t2.5 -77t3 -65t2.5 -42.5q2 -14 5 -30t7.5 -32t11 -30.5t16.5 -26.5q5 -8 15.5 -19l21 -21.5t19 -18t10.5 -7.5h34zM396 13q-2 -6 -7 -6t-6.5 6.5t6.5 6.5t7 -7zM634 26l26 -13h-26v13zM343 26q-2 -6 -6 -6q-5 0 -6.5 6.5t6.5 6.5q7 0 6 -7zM330 53q-1 -4 -5.5 -8
t-7.5 -5l-3 -1t-4 -1t-3 1t-3 1zM383 40q-1 -4 -3 -5.5t-4 -1.5q-5 0 -6.5 6.5t6.5 6.5t7 -6zM620 370q2 -19 4 -65t2 -100v-69q0 -32 -2.5 -58.5l-3.5 -37.5q-1 -9 -2 2t-1.5 35.5t-1 58.5t-0.5 69v70t0.5 58t1.5 35t3 2zM646 202q0 112 1.5 215.5t12.5 216.5h13v-14
l-13 -356v-14v-12l13 -185v-7v-6l-26 13v18q0 20 -0.5 43.5t-0.5 46.5v41zM264 79q11 0 11 -13t-11 -13t-11 13t11 13zM317 66q-2 -7 -7 -7t-6.5 7t6.5 7q9 0 7 -7zM251 92q11 0 11 -13t-11 -13t-11 13t11 13zM290 92q11 0 11 -13t-11 -13t-11 13t11 13zM238 106
q11 0 11 -14q0 -13 -11 -13t-11 13q0 14 11 14zM277 106q11 0 11 -14q0 -13 -11 -13t-11 13q0 14 11 14zM224 119q11 0 11 -13q0 -14 -11 -14t-11 14q0 13 11 13zM264 119q11 0 11 -13q0 -14 -11 -14t-11 14q0 13 11 13zM211 132q11 0 11 -13t-11 -13t-11 13t11 13zM251 132
q11 0 11 -13t-11 -13t-11 13t11 13zM238 145q11 0 11 -13t-11 -13t-11 13t11 13zM224 158q7 -1 7 -6t-6.5 -6.5t-6.5 6.5q0 7 6 6zM185 172q11 0 11 -14q0 -13 -11 -13t-11 13q0 14 11 14zM185 271v6q17 -7 21.5 -27t4.5 -41v-24v-13q-15 20 -20.5 48t-5.5 51zM185 462
q3 -9 4 -31.5t1 -47.5t-1 -47.5t-4 -31.5q-4 -7 -5 4t-1 31v44v44q0 20 1 30t5 5zM211 647v-7v-6q0 -8 -1.5 -29t-3.5 -44.5t-4.5 -44l-3.5 -28.5h-15q0 13 -1 38t0.5 50.5t7.5 46t21 24.5zM158 634q7 -7 7 -20q0 -14 -7 -20q-3 -3 -4.5 4t-1.5 16t1.5 16t4.5 4zM620 647
q11 0 11 -13q0 -14 -11 -14t-11 14q0 13 11 13zM172 661q3 0 7.5 -0.5t5.5 -0.5l-40 -13q5 11 12 12.5t15 1.5zM634 660h26l-13 -13z" />
    <glyph glyph-name="FL0056h" unicode="V" horiz-adv-x="818" 
d="M343 13q1 -3 5.5 -7.5t7.5 -5.5l3 -0.5t4 -0.5q3 0 5 0.5l2 0.5q1 1 5 11t8 15l237 555q2 2 5.5 8t8 12t8 11.5t5.5 7.5q13 16 35 24.5t43.5 13l37 7.5t16.5 8l-40 13h-237l-14 -13q22 -2 35.5 -5.5t20.5 -10t9 -18.5t2 -32q0 -5 -0.5 -20t-0.5 -19l-90.5 -226
t-93.5 -223q-9 11 -12 19.5t-3 19.5q0 4 0.5 8t0.5 6l27 -27l-145 449q-1 3 -3 16.5t-2 18.5q0 8 2 19.5t3 11.5q2 3 11 6.5t20 6t21 3t14 -2.5v13h-264q5 -12 15 -16.5t21.5 -6.5t23 -4.5t19.5 -11.5q13 -17 24.5 -39t21.5 -45t18 -46l15 -42q5 -17 16.5 -53l26 -82l30 -96
l30 -96l26 -82t16.5 -53zM356 79q7 -1 7 -6t-6.5 -7t-6.5 7q0 7 6 6zM343 119q4 -1 5.5 -4.5t1.5 -8.5q0 -11 -7 -14q-3 -1 -4.5 4t-1.5 10t1.5 9.5t4.5 3.5zM330 158q7 -2 7 -6q0 -5 -7 -6.5t-7 6.5t7 6zM317 198q6 -2 6 -13q0 -12 -6 -13q-4 -2 -5.5 3t-1.5 10t1.5 9.5
t5.5 3.5zM343 198q7 -1 7 -7q0 -5 -6.5 -6.5t-6.5 6.5t6 7zM304 224q6 -2 6 -6q0 -5 -6.5 -6.5t-6.5 6.5q0 9 7 6zM330 251q7 -2 7 -13t-7 -14q-3 -1 -5 4t-2 10t2 9.5t5 3.5zM290 277q11 0 11 -13t-11 -13t-11 13t11 13zM317 277q6 -2 6 -6q0 -5 -6.5 -6.5t-6.5 6.5
q0 7 7 6zM277 317q4 -1 5.5 -4.5t1.5 -8.5q0 -13 -7 -14q-3 -1 -4.5 4t-1.5 10t1.5 9.5t4.5 3.5zM304 317q6 -2 6 -13q0 -13 -6 -14q-4 -1 -5.5 4t-1.5 10t1.5 9.5t5.5 3.5zM264 356q7 -2 7 -13t-7 -13q-3 -1 -5 3.5t-2 9.5t2 10t5 3zM290 356q7 -1 7 -6t-6.5 -6.5t-6.5 6.5
q0 9 6 6zM251 396q6 -2 6 -13q0 -12 -6 -13q-4 -1 -5.5 3.5t-1.5 9.5t1.5 9.5t5.5 3.5zM277 409q7 -1 7 -13t-7 -13q-3 -1 -4.5 3.5t-1.5 9.5t1.5 9.5t4.5 3.5zM238 436q6 -2 6 -14q0 -5 -1.5 -8.5t-4.5 -4.5q-4 -1 -5.5 3.5t-1.5 9.5t1.5 10t5.5 4zM264 436q7 -2 7 -7
q0 -4 -7 -6.5t-7 6.5t7 7zM224 475q7 -1 7 -6t-6.5 -7t-6.5 7q0 7 6 6zM251 488q6 -2 6 -13q0 -5 -1.5 -8.5t-4.5 -4.5q-4 -1 -5.5 3.5t-1.5 9.5t1.5 10t5.5 3zM238 515q6 -2 6 -7q0 -4 -6.5 -6.5t-6.5 6.5q0 8 7 7zM211 528q11 0 11 -13t-11 -13t-11 13t11 13zM198 554
q7 -2 7 -6q0 -5 -7 -7t-7 7q0 8 7 6zM224 568q7 -3 7 -14q0 -5 -1.5 -8.5t-5.5 -4.5q-3 -1 -4.5 3.5t-1.5 9.5t1.5 10t4.5 4zM185 594q6 -2 6 -7q0 -4 -6.5 -6.5t-6.5 6.5q0 8 7 7zM197 647h14v-66q-2 3 -4 10.5t-4 16t-3.5 16t-1.5 10.5t-0.5 6t-0.5 7zM634 647
q-7 -17 -18 -34t-22 -32v6q0 17 14 34t26 26zM158 634h14v-27zM594 647q11 0 11 -13q0 -14 -11 -14t-11 14q0 13 11 13zM185 660q-2 -7 -7 -7t-6.5 7t6.5 7q9 0 7 -7z" />
    <glyph glyph-name="FL0057h" unicode="W" horiz-adv-x="1175" 
d="M40 673q4 -12 18 -15t30.5 -4t32.5 -4t24 -16q9 -14 14.5 -28.5t9 -29.5l7 -30.5t9.5 -30.5l29.5 -92l36.5 -110l37.5 -113l33.5 -100.5l24.5 -72l9.5 -27.5h14l105 290q10 24 18 53t17 57.5t19.5 55t24.5 46.5q4 3 8 13t6 13l171 -528h13q1 1 6 9.5t11.5 21.5t9.5 22
l79 198q8 21 19.5 56l26 76.5t31.5 85t35 80.5t36.5 63.5t36.5 34.5l18 3.5t27.5 4.5t28 3.5t18.5 1.5v13h-237q20 -8 23.5 -18.5t3.5 -25.5q0 -28 -9 -51.5t-18 -49.5l-119 -330q-1 -3 -5.5 -13t-7.5 -13l-20 26v-40q-3 4 -7.5 15.5l-10 24.5l-10 24.5t-5.5 15.5
q0 1 -0.5 5t-0.5 8q0 3 0.5 7.5t0.5 5.5l26 -53v40q-4 14 -15.5 49.5l-24 75.5l-24 75.5t-15.5 50.5q-2 4 -4 12.5l-4 16.5l-3.5 14.5t-1.5 8.5q-1 12 -0.5 28.5t1.5 32.5t2 27l1 11h62v20h-291q7 -18 24.5 -21.5t36 -6t32.5 -11.5t14 -38q0 -15 -10 -49.5t-25.5 -78.5
t-34 -91l-34.5 -86.5t-28 -65.5t-14 -27l-132 422q0 1 -0.5 6.5t-0.5 8.5q0 20 12.5 27t41.5 11v13h-251zM712 152q0 3 0.5 9.5t0.5 10.5q16 -29 21.5 -47t5.5 -46q0 -3 -0.5 -13t-0.5 -13q-8 15 -13 27t-8 23.5t-4.5 23t-1.5 25.5zM316 198q0 3 0.5 7.5t0.5 5.5l46 -79v40
q1 -2 2.5 -7.5t2.5 -12t1.5 -12t0.5 -8.5q0 -4 -1.5 -13.5t-3.5 -19.5t-4.5 -19.5t-4.5 -13.5q-3 5 -8.5 22l-12 36l-12 36.5t-6.5 24.5q0 1 -0.5 5.5t-0.5 7.5zM766 92q11 0 11 -13t-11 -13t-11 13t11 13zM383 106q11 0 11 -14q0 -13 -11 -13t-11 13q0 14 11 14zM779 119
q6 -2 6 -7q0 -4 -6.5 -6.5t-6.5 5.5q0 9 7 8zM396 132q11 0 11 -13t-11 -13t-11 13t11 13zM752 145q7 -1 7 -6t-6.5 -6.5t-6.5 6.5q0 7 6 6zM792 158q11 0 11 -13t-11 -13t-11 13t11 13zM356 198q7 -1 7 -7q0 -5 -6.5 -6.5t-6.5 6.5t6 7zM700 211q6 -2 6 -13q0 -12 -6 -13
q-4 -1 -5.5 3.5t-1.5 9.5t1.5 9.5t5.5 3.5zM805 198q11 0 11 -13t-11 -13t-11 13t11 13zM330 264v13q11 -11 12.5 -21t1.5 -25q0 -3 -0.5 -9.5t-0.5 -10.5q-2 2 -4 7.5t-4 12t-3.5 12t-1.5 8.5v13zM818 224q7 -1 7 -6t-6.5 -6.5t-6.5 6.5q0 9 6 6zM304 251q6 -2 6 -13
t-6 -14q-4 -1 -5.5 4t-1.5 10t1.5 9.5t5.5 3.5zM646 350q0 3 0.5 9.5t0.5 10.5q7 -17 17.5 -45.5t21.5 -47.5l14 27v-14v-13q-1 -3 -2.5 -10.5t-3.5 -16t-4 -16t-4 -10.5q-11 29 -25.5 61.5t-14.5 64.5zM422 264q11 0 11 -13t-11 -13t-11 13t11 13zM832 264q11 0 11 -13
t-11 -13t-11 13t11 13zM290 290q7 -1 7 -13q0 -5 -1.5 -8.5t-5.5 -4.5q-3 -1 -4.5 3.5t-1.5 9.5t1.5 9.5t4.5 3.5zM845 290q11 0 11 -13t-11 -13t-11 13t11 13zM302 330q0 3 1 7.5t1 5.5q9 -11 11.5 -19.5t2.5 -19.5q0 -4 -0.5 -8.5t-0.5 -5.5q-9 11 -12 20t-3 20zM858 317
q7 -2 7 -7t-7 -6.5t-7 6.5q0 9 7 7zM263 356q0 4 0.5 8.5t0.5 5.5q9 -11 11.5 -20t2.5 -20q0 -3 -0.5 -7.5t-0.5 -5.5q-9 11 -11.5 19.5t-2.5 19.5zM686 356q7 -1 7 -13q0 -5 -1.5 -8.5t-5.5 -4.5q-3 -1 -4.5 3.5t-1.5 9.5t1.5 10t4.5 3zM290 396q4 -1 5.5 -4.5t1.5 -8.5
q0 -12 -7 -13q-3 -1 -4.5 3.5t-1.5 9.5t1.5 9.5t4.5 3.5zM659 416q0 3 0.5 9.5t0.5 10.5q1 -2 3.5 -7.5t4.5 -12t3.5 -12t1.5 -8.5v-13v-13q-11 11 -12.5 21t-1.5 25zM251 422q6 -6 6 -19q0 -14 -6 -20q-4 -4 -5.5 3.5t-1.5 16.5t1.5 16t5.5 3zM590 579q0 4 0.5 12t1.5 17
t1.5 16t0.5 10l13 13q1 -3 3 -15l4 -25t4 -24.5t2 -14.5v-20v-20l-13 13q0 -1 -0.5 -5.5t-0.5 -7.5q0 -11 2.5 -20t11.5 -20l14 27v-132q-14 26 -23 49.5t-13.5 46.5t-6 47.5t-1.5 52.5zM884 396q11 0 11 -13t-11 -13t-11 13t11 13zM250 508q0 4 0.5 10.5t0.5 9.5
q8 -14 13.5 -25t8.5 -21.5t4 -21t1 -24.5q0 -4 -0.5 -13.5t-0.5 -13.5q-15 31 -21 51t-6 48zM911 462v-7v-6q0 -3 -1.5 -8.5t-3.5 -12t-4.5 -12t-3.5 -7.5q0 1 -0.5 5.5t-0.5 7.5q0 12 2.5 20.5t11.5 19.5zM197 568q0 3 0.5 7.5t0.5 5.5l26 -40v13v14l-13 52v7v7
q1 3 5.5 7.5t7.5 5.5q13 -37 14 -68.5t1 -70.5v-14q0 -11 -0.5 -22t-0.5 -22v-14q-20 28 -30.5 63.5t-10.5 68.5zM515 449q11 0 11 -13q0 -14 -11 -14t-11 14q0 13 11 13zM647 475q6 -2 6 -13q0 -12 -6 -13q-4 -1 -5.5 3.5t-1.5 9.5t1.5 9.5t5.5 3.5zM924 502q7 -2 7 -7
q0 -4 -7 -6.5t-7 6.5t7 7zM541 528q11 0 11 -13t-11 -13t-11 13t11 13zM1003 647l-66 -119v7v6l10.5 24.5l13 31l11.5 26.5l5 11zM554 554q11 0 11 -13t-11 -13t-11 13t11 13zM581 581q11 0 11 -13q0 -14 -11 -14t-11 14q0 13 11 13zM937 607q11 0 11 -13t-11 -13t-11 13
t11 13zM185 634q6 -3 6 -14q0 -5 -1.5 -8.5t-4.5 -4.5q-4 -1 -5.5 3.5t-1.5 9.5t1.5 10t5.5 4zM554 634l14 -14h-14v14zM950 634q7 -3 7 -7q0 -5 -6.5 -7t-6.5 7q0 8 6 7zM198 661q3 0 7.5 -0.5t5.5 -0.5l-39 -13q4 11 11 12.5t15 1.5z" />
    <glyph glyph-name="FL0058h" unicode="X" horiz-adv-x="858" 
d="M370 317q-30 -23 -53 -53.5t-43.5 -63.5l-41.5 -66t-46.5 -61t-57.5 -47.5t-75 -25.5h237q-24 7 -32 14t-8 24q0 35 21 65.5t45.5 59.5t45.5 58.5t21 62.5v6q-1 4 -5.5 13.5t-7.5 13.5zM582 33q0 -8 -0.5 -19t-13.5 -14h237l13 13q-25 -4 -45.5 0.5t-39.5 12l-38.5 14.5
t-41.5 7q0 13 3.5 20.5t3.5 12.5t-5.5 11.5t-20.5 14.5q-4 0 -9 -5t-5 -9t-0.5 -13t-0.5 -20t0.5 -19.5t0.5 -13.5l-8 15.5l-12.5 24l-12 24t-6.5 16.5q-1 1 0.5 6.5t1.5 6.5h24v-13q4 1 8 5t5 8v6v7l-26 53l-26 -13q3 0 8 -5t5 -9t-5 -13.5t-8 -12.5l-27 13v-6v-7
q2 -3 8 -15l13 -25.5l12.5 -25l6.5 -13.5q0 -1 0.5 -8.5t0.5 -11.5zM158 26q20 18 38 38t35 41l35 41.5t38 38.5q0 -1 0.5 -3.5t0.5 -3.5q0 -16 -14 -35t-32 -38l-35.5 -36t-25.5 -29q-1 -4 1.5 -5t2.5 -3q3 0 5.5 -3.5t3.5 -2.5q4 4 8 13.5t5 13.5q0 -1 1 -5.5t1 -7.5
q0 -28 -28 -28q-11 0 -20 2.5t-20 11.5zM686 32v-19h-52q3 11 16.5 15t24.5 4h11zM647 79q11 0 11 -13t-11 -13t-11 13t11 13zM634 92q11 0 11 -13t-11 -13t-11 13t11 13zM594 158q11 0 11 -13t-11 -13t-11 13t11 13zM528 172q-11 0 -11 -14q0 -13 11 -13t11 13q0 14 -11 14
zM515 185q-7 1 -7 -7t6.5 -6.5t6.5 6.5t-6 7zM515 211q2 -2 8 -7t12.5 -11.5t11.5 -12.5t7 -8q4 3 8 13t6 13q0 1 1 6.5t1 6.5h-22v22q0 10 -3 16t-11 8.5t-24 2.5q0 6 2.5 12.5t3 12.5t-2 11t-11.5 8q-4 -4 -8 -13.5t-6 -13.5v-6v-7l14 -26v-7v-7l-40 27q0 -1 -0.5 -3.5
t-0.5 -3.5t0.5 -3.5l0.5 -2.5q2 -4 6 -10.5l8 -13l7 -11.5t5 -5q4 -1 13.5 6.5t13.5 6.5zM541 238q11 0 11 -14q0 -13 -11 -13t-11 13q0 14 11 14zM528 251q11 0 11 -13q0 -14 -11 -14t-11 14q0 13 11 13zM343 277q11 0 11 -13t-11 -13t-11 13t11 13zM449 277q-7 1 -7 -6
q0 -8 6.5 -6.5t6.5 6.5q0 4 -6 6zM502 290q11 0 11 -13t-11 -13t-11 13t11 13zM381 370q0 -12 5.5 -23t14 -21.5t18 -19.5l17.5 -16v53h13v-13q7 1 10.5 8.5t4 16t0 17t-1.5 11.5l172 237q12 18 32 27t43 13t45 4.5t38 0.5v8q-13 2 -47 4t-72 4t-72 3.5t-47 1.5h-32
q0 -10 7.5 -14.5t16 -8t16 -8.5t7.5 -15q0 -1 -0.5 -3.5l-0.5 -2.5l-15 -29.5l-22.5 -43t-27 -48l-27.5 -45t-24 -33.5t-16 -13q-4 0 -13.5 7.5t-13.5 6.5q-7 -4 -16.5 -18.5t-9.5 -21.5l26 13v-39h-28zM475 304q-11 0 -11 -14q0 -13 11 -13t11 13q0 14 -11 14zM475 330
q-3 -1 -7.5 -5.5t-5.5 -7.5l-0.5 -3t-0.5 -4t0.5 -3t0.5 -3zM488 330q-11 0 -11 -13t11 -13t11 13t-11 13zM370 396q-11 0 -11 -13t11 -13t11 13t-11 13zM276 508q0 -12 8.5 -27.5t20.5 -31.5t26 -30t25 -23v7v6l-26 53v7v6q3 -3 13 -7.5t13 -5.5q2 0 7.5 1t6.5 1v-15
q11 4 14 17t3 22h-33q0 23 -10.5 41.5t-22.5 35.5t-22.5 34.5t-10.5 40.5q0 6 0.5 12.5t3.5 12t8.5 8t16.5 0.5l-13 13h-264q4 -10 21.5 -17t38.5 -11.5t41 -7t31 -2.5v-41q-2 10 0.5 16t7.5 8.5t11.5 3t12.5 0.5q9 0 19.5 -0.5t14.5 -14.5l13 27q3 -4 8 -13t5 -14
q0 -3 -5 -8t-8 -5q4 -8 7 -11t6 -3t7 1.5t11 1.5q0 -11 -1 -18.5t0 -12t6 -6.5t17 -2v-42l26 13v-7v-6q-1 -4 -5.5 -13.5t-7.5 -13.5l-40 27q0 -1 -0.5 -3.5t-0.5 -3.5zM449 409q11 0 11 -13t-11 -13t-11 13t11 13zM396 449q-3 -1 -7.5 -5.5t-5.5 -7.5l-0.5 -3t-0.5 -4
t0.5 -3t0.5 -4zM343 515q11 0 11 -13q0 -14 -11 -14t-11 14q0 13 11 13zM198 607q11 -23 28.5 -42.5t37.5 -36.5q0 1 0.5 3t0.5 4q0 1 -0.5 3.5l-0.5 2.5q-1 1 -5.5 7.5l-10.5 15l-12.5 17t-11.5 13.5q-3 3 -7.5 8t-5.5 5l-2.5 0.5t-3.5 0.5t-3.5 -0.5t-3.5 -0.5zM317 554
q11 0 11 -13t-11 -13t-11 13t11 13zM634 647q-2 -6 -8.5 -14t-14.5 -16.5t-16.5 -15t-13.5 -7.5q-6 -2 2.5 8.5t20 22t21.5 19.5t9 3zM594 647q7 -2 7 -7q0 -4 -7 -6.5t-7 6.5t7 7zM224 660q-2 -7 -6 -7q-5 0 -6.5 7t6.5 7q9 0 6 -7zM620 673q11 0 11 -13t-11 -13t-11 13
t11 13z" />
    <glyph glyph-name="FL0059h" unicode="Y" horiz-adv-x="781" 
d="M240 26v-26h277l13 13q-3 12 -16.5 14.5t-30.5 3t-33.5 4t-24.5 18.5q-8 55 -11.5 97.5t-3.5 87.5v66v19q0 16 0.5 33.5t0.5 31.5v21q9 21 22 39t27 34t29 30.5t28 28.5q5 7 19.5 22l32 32l33 31.5l21.5 20.5q9 8 28 12t38 7t34 7.5t18 12.5l-13 14h-244q0 -12 7.5 -15
t16.5 -4.5t16.5 -4.5t7.5 -15q0 -11 -3 -20.5t-12 -20.5q-6 -8 -24.5 -27l-39.5 -40l-40.5 -39.5t-27.5 -25.5q-16 13 -33 32.5l-33 39.5t-30 39.5t-23 34.5q0 1 -0.5 5t-0.5 8q0 6 2.5 10t6 7t6 6.5t2.5 9.5q0 1 -1.5 3t-1.5 3q-28 4 -51.5 7t-45.5 4.5t-44 2.5t-47 1h-16
q-11 0 -23 -4.5t-12 -18.5q29 0 51 -4t40 -13.5t34.5 -25.5t34.5 -41q4 4 13.5 9t13.5 4q3 -1 13 -11t13 -15l1 -3t1 -4t-1 -3t-1 -3l-26 13v-13l66 -66l26 26q-1 -2 -3 -7.5t-4 -12t-3.5 -12t-2.5 -8.5v-6v-7q1 -5 6 -20t7 -19v-357q0 -15 -8.5 -24t-21 -15t-26 -9
t-23.5 -5zM372 40q3 0 8 -5t5 -9h-40q4 4 13.5 9t13.5 5zM359 106v-7v-7q-1 -5 -5.5 -20t-8.5 -19q0 1 -0.5 5.5t-0.5 7.5q0 11 3.5 20t11.5 20zM398 66q11 0 11 -13t-11 -13q-10 0 -10 13t10 13zM385 264q3 -11 4.5 -39t1.5 -60t-1.5 -60t-4.5 -39q-2 -8 -3 6.5t-1 38.5v54
v54q0 25 1 39t3 6zM359 198q11 0 11 -13t-11 -13q-10 0 -10 13t10 13zM359 251q6 -8 6 -20q0 -13 -6 -20q-3 -3 -5 4.5t-2 15.5q0 9 2 16t5 4zM359 422q3 -8 4 -28t1 -44t-1 -44.5t-4 -28.5q-2 -3 -3.5 2.5t-2 16t-1 25.5t-0.5 30t0.5 29.5t1 24.5t2 15t3.5 2zM385 422
q3 -8 4.5 -26.5t1.5 -39.5q0 -20 -1.5 -39t-4.5 -27q-2 -5 -3 4t-1 25v37v36q0 17 1 26t3 4zM345 462q11 0 11 -13t-11 -13q-10 0 -10 13t10 13zM332 475q11 0 11 -13t-11 -13q-10 0 -10 13t10 13zM372 475q11 0 11 -13t-11 -13q-10 0 -10 13t10 13zM359 488q11 0 11 -13
t-11 -13q-10 0 -10 13t10 13zM332 502q4 -7 -0.5 -12t-12.5 -2q-3 2 -2 5.5t4 6t6.5 4t4.5 -1.5zM345 502q11 0 11 -14q0 -13 -11 -13q-10 0 -10 13q0 14 10 14zM293 554q3 -6 -1.5 -11t-12.5 -2q-3 2 -1.5 5.5t4.5 6t6 3.5t5 -2zM266 568q11 0 11 -14q0 -13 -11 -13
q-10 0 -10 13q0 14 10 14zM279 594q11 0 11 -13t-11 -13q-10 0 -10 13t10 13zM530 607q11 0 11 -13t-11 -13q-10 0 -10 13t10 13zM213 634q11 0 11 -14q0 -13 -11 -13q-9 0 -9 13q0 14 9 14zM187 647h13v-13zM240 647q11 0 11 -13q0 -14 -11 -14q-10 0 -10 14q0 13 10 13z
M227 660q11 0 11 -13t-11 -13q-10 0 -10 13t10 13zM596 660q-1 -3 -5.5 -7.5t-7.5 -5.5l-2.5 -0.5t-4.5 -0.5q-1 0 -2.5 0.5t-3.5 0.5z" />
    <glyph glyph-name="FL005Ah" unicode="Z" 
d="M40 13q17 -1 52 -2.5t79 -3t93 -3t93 -2.5t79 -1.5t52 -0.5h40q22 0 45.5 19.5t43 46.5t32 56.5t12.5 49.5q0 3 -0.5 7.5t-0.5 5.5q-25 -18 -43 -41t-37 -43.5t-43.5 -34t-61.5 -13.5h-277l-26 13l457 620h-537l-5 -15t-11 -36l-12.5 -43.5l-10.5 -37.5q0 -3 -0.5 -8.5
t-0.5 -6.5q16 0 28.5 15l27.5 32.5t36 32.5t54 15h297l-442 -594zM132 26q-3 -6 -20 -6q-16 0 -20 6q-3 4 4 5t15 1q9 0 15.5 -1t5.5 -5zM158 40l27 -14h-27v14zM515 40q6 -3 6 -7t-6.5 -6.5t-6.5 6.5q0 8 7 7zM79 53l396 528q7 8 11.5 16.5t9.5 16t12.5 13t19.5 7.5v-14
q-5 -7 -18 -23.5l-28 -35.5l-28 -35.5t-18 -23.5q-3 -3 -7.5 -9l-9 -12.5t-7.5 -12t-3 -6.5l-0.5 -2.5t-0.5 -4.5q0 -1 0.5 -3t0.5 -3q27 20 47 47.5t39 56.5l39 57.5t47 49.5v-13q0 -1 -15.5 -21l-36.5 -47.5l-43.5 -56.5l-36.5 -47q-17 -21 -33 -35l-32 -27.5t-32.5 -29.5
t-34.5 -40q-29 -38 -55.5 -78.5l-54.5 -80.5t-59 -77t-69 -67v13zM396 409q-24 -47 -55.5 -92l-65 -89l-67.5 -87.5t-63 -87.5h-15q0 7 3.5 15.5t8.5 16t9.5 13t6.5 8.5l159 211l13 26zM554 53q-1 -7 -6 -7t-7 6.5t7 6.5q7 0 6 -6zM106 660q6 -2 6 -7q0 -4 -6.5 -6.5
t-6.5 6.5q0 8 7 7zM158 647q-1 -7 -13 -7q-5 0 -8.5 1.5t-4.5 5.5q-1 3 3.5 4t9.5 1t9.5 -1t3.5 -4zM251 673q11 0 11 -13t-11 -13t-11 13t11 13zM343 673q11 0 11 -13t-11 -13t-11 13t11 13zM145 673q-2 -6 -6 -6q-5 0 -7.5 6.5t5.5 6.5q9 0 8 -7zM172 686q11 0 11 -13
t-11 -13t-11 13t11 13z" />
    <glyph glyph-name="FL005Bh" unicode="[" horiz-adv-x="383" 
d="M40 13l13 -13h277l-1 24q-20 3 -45 5t-47 7t-37 15t-15 28v475q0 30 12.5 49.5t34 31.5t49.5 16.5t60 4.5l2 30h-290v-13q12 0 17.5 -2t8.5 -6.5t5.5 -12t7.5 -18.5v-48q0 -33 1 -71t1 -73v-46q0 -30 0.5 -73.5t0 -91t-4 -94.5t-11.5 -84q-5 -12 -7.5 -19.5t-6 -12
t-9 -6.5t-16.5 -2zM145 26q-2 -6 -13 -6q-12 0 -13 6q-1 4 3.5 5t9.5 1t9.5 -1t3.5 -5zM172 53q11 0 11 -13q0 -14 -11 -14t-11 14q0 13 11 13zM119 251h14q0 -4 -0.5 -13.5t-0.5 -13.5q0 -10 -1.5 -34.5t-3.5 -51.5t-4.5 -51l-3.5 -34h-13v13q0 11 1.5 37.5t3.5 55.5t4 55
t4 37zM158 106v-53h-13zM132 317q7 -2 7 -13q0 -12 -7 -14q-3 -1 -5 4t-2 10t2 9.5t5 3.5zM132 634q3 -16 4 -55.5t1 -84.5q0 -44 -1 -83t-4 -55q-2 -7 -3.5 3t-2 30.5t-1 48.5t-0.5 57q0 30 0.5 58t1 48t2 30t3.5 3zM158 634l14 13l-14 -185v172zM119 660q11 0 11 -13
t-11 -13t-11 13t11 13zM145 673q11 0 11 -13t-11 -13t-11 13t11 13z" />
    <glyph glyph-name="FL005Ch" unicode="\" horiz-adv-x="514" 
d="M474 13q-23 1 -47.5 9t-41.5 31q-16 37 -29 84t-23.5 94.5t-19 91t-15.5 73.5l-9 46q-8 35 -15 73t-14 71l-10 48q6 23 27 30.5t44 8.5l-4 13h-277l1 -24q31 1 53.5 -4.5t38 -18.5t25.5 -34t16 -51l101 -475q4 -18 -1.5 -32t-16.5 -23t-27 -12t-33 1l2 -13h264zM326 26
q-3 4 2 5t10 1t9.5 -1t4.5 -5q-2 -6 -11 -6q-12 0 -15 6zM293 53q10 0 15 -13q2 -14 -9 -14q-10 0 -13 14q-3 13 7 13zM305 251q4 -11 11.5 -37l15.5 -55l15 -55.5t9 -37.5l3 -13h-14q-4 9 -11.5 33.5l-15 51.5l-14 51.5t-7.5 34.5q-1 4 -4 13.5t-3 13.5h15zM296 106l23 -53
h-13zM277 317q3 1 5.5 -3.5t4 -10t1 -10.5t-4.5 -3q-8 4 -10.5 13.5t4.5 13.5zM210 634q0 10 5.5 -9.5t13.5 -53.5l17 -75.5t15.5 -75.5t9 -53.5t-1.5 -10.5q-7 16 -16.5 55t-17.5 83q-11 45 -18 84.5t-7 55.5zM184 634l36 -172l-53 185zM218 660q10 0 13 -13q1 -13 -8 -13
q-12 0 -13 13q-4 13 8 13zM189 673q9 0 13 -13q3 -13 -8 -13q-10 0 -14 13q-3 13 9 13z" />
    <glyph glyph-name="FL005Dh" unicode="]" horiz-adv-x="383" 
d="M343 13l-13 -13h-277l1 24q20 3 45 5t47 7t37 15t15 28v475q0 30 -12.5 49.5t-34 31.5t-50 16.5t-59.5 4.5l-2 30h290v-13q-12 0 -17.5 -2t-8.5 -6.5t-5.5 -12t-8.5 -18.5v-48q0 -33 -0.5 -71t-0.5 -73v-46q0 -30 -0.5 -73.5t0 -91t4 -94.5t11.5 -84q5 -12 7.5 -19.5
t5.5 -12t8.5 -6.5t17.5 -2zM238 26q1 -6 13 -6q11 0 13 6q1 4 -3.5 5t-9.5 1t-9.5 -1t-3.5 -5zM211 53q-11 0 -11 -13q0 -14 11 -14t11 14q0 13 -11 13zM264 251h-14q0 -4 0.5 -13.5t0.5 -13.5q0 -10 1.5 -34.5t3.5 -51.5t4 -51t4 -34h13v13q0 11 -1.5 37.5t-3.5 55.5
t-4.5 55zM224 106v-53h14zM251 317q-4 -1 -5.5 -4.5t-1.5 -8.5q0 -13 7 -14q3 -1 4.5 4t1.5 10t-1.5 9.5t-4.5 3.5zM251 634q-4 -16 -5 -55.5t-1 -84.5q0 -44 1 -83t5 -55q2 -7 3 3t2 30.5t1 48.5v57v58t-1 48t-2 30t-3 3zM224 634l-13 13l13 -185v172zM264 660
q-11 0 -11 -13t11 -13t11 13t-11 13zM238 673q-11 0 -11 -13t11 -13t11 13t-11 13z" />
    <glyph glyph-name="FL005Eh" unicode="^" horiz-adv-x="818" 
d="M475 671q-1 2 -5.5 6.5t-7.5 6.5l-2.5 0.5t-4.5 0.5q-3 0 -4.5 -0.5l-1.5 -0.5l-5.5 -11.5t-7.5 -14.5l-238 -555q-2 -2 -5.5 -8l-7.5 -12.5t-8 -12t-5 -6.5q-14 -16 -36 -24.5t-43 -13t-36.5 -7.5t-16.5 -8l39 -13h238l13 13q-22 3 -35.5 6t-20.5 9.5t-9 18.5t-2 32v8
q0 6 0.5 12.5t0.5 11.5v8l91 225.5t94 222.5q9 -11 11.5 -19.5t2.5 -19.5q0 -4 -0.5 -8t-0.5 -5l-26 26l145 -449q0 -2 1 -6.5t1.5 -10.5t1 -11t0.5 -8q0 -7 -1.5 -18.5t-2.5 -11.5q-3 -4 -12 -7.5t-19.5 -5.5t-20.5 -2.5t-14 2.5v-13h264q-5 12 -15 16.5t-21.5 6.5t-23 4.5
t-19.5 11.5q-14 18 -25.5 39.5t-21.5 44.5t-18 45.5l-15 42.5q-5 17 -16.5 53l-26 81.5l-30 96l-30 96l-26 82zM462 605q-7 2 -7 7q0 3 7 5.5t7 -5.5q0 -11 -7 -7zM475 565q-6 1 -6 14q0 10 6 13q4 1 5.5 -3.5t1.5 -9.5t-1.5 -10.5t-5.5 -3.5zM488 526q-6 1 -6 6t6.5 6.5
t6.5 -6.5q0 -9 -7 -6zM502 486q-4 1 -5.5 4.5t-1.5 8.5q0 10 7 14q3 1 4.5 -4t1.5 -10t-1.5 -10t-4.5 -3zM475 486q-6 1 -6 7q0 5 6.5 6.5t6.5 -6.5q0 -10 -7 -7zM515 460q-7 1 -7 6t6.5 6.5t6.5 -6.5q0 -9 -6 -6zM488 433q-6 3 -6 14q0 10 6 13q4 1 5.5 -3.5t1.5 -9.5
t-1.5 -10.5t-5.5 -3.5zM528 407q-11 0 -11 13t11 13t11 -13t-11 -13zM502 407q-7 1 -7 7q0 5 6.5 6.5t6.5 -6.5q0 -10 -6 -7zM541 367q-6 3 -6 14q0 10 6 13q4 1 5.5 -3.5t1.5 -9.5t-1.5 -10.5t-5.5 -3.5zM515 367q-7 3 -7 14q0 10 7 13q3 1 4.5 -3.5t1.5 -9.5t-1.5 -10.5
t-4.5 -3.5zM554 328q-6 1 -6 13q0 10 6 13q4 1 5.5 -3.5t1.5 -9.5t-1.5 -10t-5.5 -3zM528 328q-7 2 -7 6q0 5 7 6.5t7 -6.5q0 -10 -7 -6zM568 288q-4 1 -5.5 4.5t-1.5 8.5q0 10 7 14q3 1 4.5 -4t1.5 -10t-1.5 -10t-4.5 -3zM541 275q-3 1 -4.5 4.5t-1.5 8.5q0 10 6 13
q4 1 5.5 -3.5t1.5 -9.5t-1.5 -10t-5.5 -3zM581 249q-7 1 -7 13q0 10 7 13q3 1 4.5 -3.5t1.5 -9.5t-1.5 -10t-4.5 -3zM554 249q-6 1 -6 6q0 4 6.5 6t6.5 -6q0 -10 -7 -6zM594 209q-7 2 -7 7q0 3 7 5.5t7 -5.5q0 -11 -7 -7zM568 196q-7 1 -7 13q0 10 7 13q3 1 4.5 -3.5
t1.5 -9.5t-1.5 -10t-4.5 -3zM581 169q-7 1 -7 7q0 3 6.5 5.5t6.5 -5.5q0 -10 -6 -7zM607 156q-11 0 -11 13q0 14 11 14t11 -14q0 -13 -11 -13zM620 130q-6 1 -6 6q0 4 6.5 6t6.5 -6q0 -9 -7 -6zM594 117q-7 2 -7 13q0 9 7 13q3 1 5 -3.5t2 -9.5t-2 -10t-5 -3zM634 90
q-7 1 -7 7q0 3 6.5 5.5t6.5 -5.5q0 -10 -6 -7zM621 37h-14v66q2 -3 4 -10.5t4 -16t3.5 -15.5t1.5 -10q0 -4 0.5 -7.5t0.5 -6.5zM185 37q7 17 17.5 34.5t21.5 31.5v-6q0 -17 -14 -34.5t-25 -25.5zM660 51h-13v26zM224 37q-11 0 -11 14q0 13 11 13t11 -13q0 -14 -11 -14z
M634 24q2 7 6 7q5 0 6.5 -6.5t-6.5 -6.5q-9 0 -6 6z" />
    <glyph glyph-name="FL005Fh" unicode="_" horiz-adv-x="462" 
d="M111 -44l134 -11q14 9 42 12.5t56.5 6.5t51.5 7t27 14l-19 15h-363q0 -13 3 -20.5t11 -12t22 -6.5zM272 -20q22 3 27 2.5t1 -2t-13 -2t-15 1.5zM134 -18q2 0 7.5 0.5t12 1t12 1t8.5 0.5q1 0 9 0.5t17.5 -0.5t17 -4.5t9.5 -11.5q-3 0 -13 -0.5t-14 -0.5q-20 0 -33.5 1.5
t-32.5 12.5z" />
    <glyph glyph-name="FL0060h" unicode="`" horiz-adv-x="193" 
d="M73 659q3 5 6.5 4t11.5 -9q7 -6 10 -11.5t0 -8.5l-9 -13q-5 -8 -12 -1q-5 10 -10 17t-7 12t0 7.5t10 2.5zM110 658q-22 22 -38 28.5t-27 -7.5q-12 -15 3 -34.5t38 -42.5q24 -23 37.5 -33t26.5 5q8 16 -3.5 37.5t-36.5 46.5zM114 628q4 6 16 -5q17 -14 10 -21q-8 -9 -19 5
q-12 9 -7 21z" />
    <glyph glyph-name="a" unicode="a" horiz-adv-x="799" 
d="M40 13l264 -13l13 13q-7 13 -18 17t-22 7.5t-19 9.5t-8 24q0 43 17 86.5t37 80.5q7 1 27.5 3.5t44 4.5t44.5 3.5t29 1.5h6q33 0 57 -19t39.5 -48t23 -62.5t7.5 -62.5q0 -14 -7 -21t-16 -12t-16 -10.5t-7 -15.5h223q0 3 -13.5 12t-31 22t-33.5 28t-21 30l-92 251
q-4 10 -15.5 41l-26.5 70.5l-32 83l-31 80l-23.5 60t-10.5 23.5t-4 -0.5l-3 -0.5q-1 -2 -5 -12t-8 -15q-64 -147 -119 -290.5t-118 -290.5q-15 -25 -35.5 -36t-41 -16.5l-36 -10t-19.5 -16.5zM198 40q11 0 11 -14q0 -13 -11 -13t-11 13q0 14 11 14zM606 59q0 4 0.5 10.5
t0.5 9.5l27 -53q-2 0 -4 -0.5t-3 -0.5q-15 0 -18 11.5t-3 22.5zM198 92v-6q0 -14 -7.5 -27t-18.5 -19q0 1 -1 3t-1 3t1 4l1 3q1 2 5 8l8 12l7.5 11.5t5.5 7.5zM211 53h13v-13zM647 66q6 -2 6 -7q0 -4 -6.5 -6.5t-6.5 6.5q0 8 7 7zM224 92q11 0 11 -13t-11 -13t-11 13t11 13z
M607 119q-5 3 -15 -2t-11 -11l26 52q14 -19 21 -32.5t7 -33.5q0 -3 -0.5 -7.5t-0.5 -5.5q0 7 -10 21.5t-17 18.5zM238 185v-7v-6l-5.5 -11.5t-8 -15t-8 -15l-5.5 -11.5v6v7l5.5 11.5l7.5 15.5l7.5 15.5t6.5 10.5zM566 172q0 3 1 7.5t1 5.5q9 -11 11.5 -19.5t2.5 -20.5
q0 -3 -0.5 -7.5t-0.5 -5.5q-9 11 -12 19.5t-3 20.5zM594 198q7 -2 7 -7t-7 -6.5t-7 6.5q0 9 7 7zM554 211q7 -1 7 -6t-6.5 -6.5t-6.5 6.5q0 7 6 6zM581 238q6 -2 6 -14q0 -5 -1.5 -8.5t-4.5 -4.5q-4 -1 -5.5 3.5t-1.5 9.5t1.5 10t5.5 4zM264 264q11 0 11 -13t-11 -13t-11 13
t11 13zM541 264q11 0 11 -13t-11 -13t-11 13t11 13zM553 290q0 4 0.5 8t0.5 6q9 -11 12 -20t3 -20q0 -3 -0.5 -7.5t-0.5 -5.5q-10 11 -12.5 19.5t-2.5 19.5zM277 290q11 0 11 -13t-11 -13t-11 13t11 13zM462 290q-8 -3 -28.5 -4.5t-44.5 -1.5q-23 0 -43.5 1.5t-28.5 4.5
q-5 1 0 2t16.5 2t26 1.5t29.5 0.5h40q19 0 28.5 -2.5t4.5 -3.5zM502 290q-2 -6 -7 -6q-4 0 -6.5 6.5t6.5 6.5q8 0 7 -7zM290 317q11 0 11 -13q0 -14 -11 -14t-11 14q0 13 11 13zM409 515q8 -5 15 -18t12.5 -26.5t9 -24l3.5 -10.5l7.5 -23l12 -36l12 -36.5l7.5 -23.5h-158
l13.5 41.5t19 53.5t22.5 55.5t24 47.5zM515 330q6 -2 6 -7t-6.5 -6.5t-6.5 6.5t7 7zM541 343q7 -1 7 -6t-6.5 -6.5t-6.5 6.5q0 7 6 6zM502 356q6 -2 6 -6q0 -5 -6.5 -6.5t-6.5 6.5q0 9 7 6zM528 383q7 -2 7 -7t-7 -6.5t-7 6.5q0 9 7 7zM317 396q11 0 11 -13t-11 -13t-11 13
t11 13zM488 396q7 -1 7 -7q0 -5 -6.5 -6.5t-6.5 6.5t6 7zM487 462q0 3 0.5 7.5t0.5 5.5q14 -19 21 -32.5t7 -33.5q0 -3 -0.5 -7.5t-0.5 -5.5q-14 19 -21 33t-7 33zM330 422q11 0 11 -13t-11 -13t-11 13t11 13zM475 436q11 0 11 -14q0 -13 -11 -13t-11 13q0 14 11 14z
M462 475q7 -2 7 -6q0 -5 -7 -7t-7 7q0 8 7 6zM449 502q6 -2 6 -7q0 -4 -6.5 -6.5t-6.5 6.5q0 8 7 7zM475 515q4 -1 5.5 -3t1.5 -4q0 -4 -6.5 -6.5t-6.5 6.5q0 8 6 7zM436 541q6 -2 6 -6q0 -5 -6.5 -7.5t-6.5 7.5q0 7 7 6zM449 574v7q11 -4 12.5 -14t1.5 -19q0 -4 -0.5 -10.5
t-0.5 -9.5q-2 2 -4 7.5t-4 12t-3.5 12t-1.5 8.5v6zM436 634q6 -8 6 -20q0 -14 -6 -20q-4 -3 -5.5 4t-1.5 16t1.5 16t5.5 4zM409 620q11 0 11 -13t-11 -13t-11 13t11 13z" />
    <glyph glyph-name="b" unicode="b" horiz-adv-x="621" 
d="M40 13v-13h396q30 0 55 18t44.5 44t31 56t14.5 54q1 22 -7 51t-23.5 53t-38 37t-50.5 4l13 13q-4 4 -11 8l-13.5 7.5t-11 8t-4.5 9.5q0 9 12.5 23.5l28 33t28 40.5t12.5 47q0 59 -30 94.5t-76 54.5t-101.5 25t-106.5 6h-72h-18q-11 0 -20.5 -0.5t-17.5 -0.5h-8l-13 -13
q8 -3 23.5 -5.5t32 -6.5t30.5 -10.5t19 -16.5v-44q0 -31 0.5 -65.5t0.5 -66.5v-42v-177q0 -42 -3.5 -85t-10.5 -88q-2 -20 -13.5 -30t-27 -14.5t-33 -5.5t-31.5 -3zM224 42v37l27 -26v6q0 45 -7 86t-7 86v18q0 11 0.5 25t0.5 25v18q11 11 20.5 12t24.5 1q25 0 54 -8.5
t54.5 -18.5t43.5 -18.5t20 -8.5t4.5 0.5l2.5 0.5q5 4 14 13t12 14q22 -18 33.5 -32.5t16 -30t5 -35.5t0.5 -48v-14q0 -11 -1 -24.5l-1 -13.5l-26 -27q3 4 8 13t5 14t-0.5 20l-1 31.5t-2 32t-3.5 21.5v-79q-2 3 -4.5 14.5l-5.5 24.5l-5.5 24.5t-3.5 15.5v13v14l13 -14
q0 2 0.5 6t0.5 8q0 14 -6 22.5t-22 16.5q-3 -1 -7.5 -5.5t-5.5 -7.5v-6q0 -26 7.5 -50t7.5 -51q0 -26 -10.5 -50t-28.5 -42t-42 -28.5t-51 -10.5q-35 0 -67 8t-67 8zM185 290h14q0 -27 -1.5 -61.5t-4 -69l-5 -66.5t-3.5 -53h-13v13q0 13 1.5 46.5t3.5 72t4 72t4 46.5z
M502 119q11 0 11 -13q0 -14 -11 -14t-11 14q0 13 11 13zM211 172q7 -4 7 -20q0 -17 -7 -20q-3 -3 -4.5 4.5t-1.5 15.5t1.5 14.5t4.5 5.5zM198 330q11 0 11 -13t-11 -13t-11 13t11 13zM449 330q-2 -7 -7 -7t-6.5 7t6.5 7q9 0 7 -7zM185 647h13v-304h-13v304zM396 356
q11 0 11 -13t-11 -13t-11 13t11 13zM251 634h8q7 0 14.5 0.5t13.5 0.5h10q64 0 95.5 -38t31.5 -102q0 -42 -13 -65.5t-36.5 -35.5t-55 -14.5t-68.5 -2.5v257zM422 422q11 0 11 -13t-11 -13t-11 13t11 13zM476 502q0 12 -0.5 21.5t-3.5 18.5t-8.5 18t-14.5 21l-27 -13
q4 3 9 12t5 14q0 3 -5 8t-9 5q2 5 12 11t15 2q12 -6 20 -20t12.5 -30.5t6.5 -33t2 -28.5q0 -28 -7.5 -55.5t-33.5 -43.5v7q0 12 4 22t9.5 19.5t9.5 20t4 24.5zM449 541q3 -4 4 -15t1 -24q0 -14 -1 -24.5t-4 -15.5q-4 -4 -5.5 9.5t-1.5 30.5q0 8 0.5 16t1 14t2 8.5t3.5 0.5z
M224 660q11 0 11 -13t-11 -13t-11 13t11 13z" />
    <glyph glyph-name="c" unicode="c" horiz-adv-x="621" 
d="M40 332q0 -58 18 -108.5t49.5 -93t75.5 -75.5t95 -55h18q12 0 27.5 -0.5t28.5 -0.5h19q21 0 39 2t35 5t34 5t37 2q15 0 24.5 -6.5t21.5 -6.5h7l3.5 31.5t4.5 47.5t3.5 47.5t1.5 31.5v8v6q-1 3 -5.5 7.5t-7.5 5.5l-3 0.5t-4 0.5t-3 -0.5t-4 -0.5q4 -42 -13.5 -70t-46 -45
t-64 -24.5t-67.5 -7.5q-58 0 -101 26.5t-72 69t-43.5 95.5t-14.5 106q0 55 11.5 109t37.5 96.5t69.5 68.5t106.5 26q37 0 73.5 -9.5t64.5 -29t44.5 -49.5t14.5 -72h27v211l-13 14q-8 -6 -11.5 -13t-7 -13t-9 -10.5t-15.5 -4.5q-41 0 -76.5 7.5t-78.5 7.5q-73 0 -133.5 -26
t-104.5 -72t-68.5 -108.5t-24.5 -135.5zM529 79q11 0 11 -13t-11 -13q-10 0 -10 13t10 13zM173 132q11 0 11 -13t-11 -13q-10 0 -10 13t10 13zM133 145q11 0 11 -13t-11 -13q-10 0 -10 13t10 13zM92 198q0 3 1 7.5t1 5.5l26 -53v-6v-7q-28 19 -28 53zM146 172q11 0 11 -14
q0 -13 -11 -13q-10 0 -10 13q0 14 10 14zM133 211q7 -2 7 -13t-7 -13q-2 -1 -4 3.5t-2 9.5t2 9.5t4 3.5zM80 264q7 -6 7 -20q0 -13 -7 -20q-2 -3 -4 4t-2 16t2 16t4 4zM92 350q0 43 9 79.5t32 72.5v-7v-7q0 -3 -2 -12.5l-4.5 -20.5l-4.5 -20.5t-2 -12.5q0 -11 -0.5 -39
t-0.5 -60q0 -31 0.5 -59t0.5 -40q-19 29 -23.5 61.5t-4.5 64.5zM67 396q3 -7 4.5 -23.5t1.5 -35.5q0 -20 -1.5 -36.5t-4.5 -23.5q-2 -5 -3.5 3.5t-1.5 23.5v33v33q0 33 5 26zM80 449q4 -1 5.5 -3t1.5 -4q0 -4 -6.5 -6.5t-6.5 6.5t6 7zM120 528l-26 -53v7q0 13 7.5 26
t18.5 20zM146 541q11 0 11 -13t-11 -13q-10 0 -10 13t10 13zM555 607q7 -1 7 -6t-6.5 -7.5t-6.5 7.5q0 8 6 6zM516 620q11 0 11 -13t-11 -13q-10 0 -10 13t10 13z" />
    <glyph glyph-name="d" unicode="d" horiz-adv-x="754" 
d="M40 13q10 0 24 1.5t27.5 6t24.5 12.5t16 20q4 45 7 83t4.5 73.5t2 69.5t0.5 71v105v35q0 27 -0.5 55t-0.5 53v36q-8 11 -21 18t-28.5 11t-30.5 6t-25 4v19q63 0 137.5 -1t149.5 -10t145 -29.5t123.5 -60t86 -101.5t32.5 -153q0 -53 -19 -112t-53.5 -109t-83.5 -83
t-109 -33h-409v13zM185 26q1 7 -7 7t-6.5 -6.5t6.5 -6.5t7 6zM172 449q0 -13 -1 -40t-2.5 -61t-3.5 -71t-3.5 -71t-2.5 -60.5t-1 -39.5v-33v-33l14 13v396zM198 145v-92q0 -5 6.5 -9.5t14 -8.5t13.5 -6.5l6 -2.5q1 4 5 13.5t8 13.5h5q32 0 62 -7.5t65 -7.5q70 0 113.5 24.5
t68.5 66.5t34 97.5t9 117.5q0 35 -13 80.5t-37.5 86.5t-59.5 70.5t-78 33.5l-182 19v-568q-10 5 -15.5 14.5t-9 21l-7 23t-8.5 20.5zM607 119q-11 0 -11 -13q0 -14 11 -14t11 14q0 13 -11 13zM634 145q-2 3 -5.5 2t-6 -4t-4 -6.5t1.5 -4.5q7 -3 12 1.5t2 11.5zM607 172
q-11 0 -11 -14q0 -13 11 -13t11 13q0 14 -11 14zM198 330q-1 5 -3 -5t-2 -30v-44v-44q0 -20 1 -31t4 -4q3 9 4.5 31.5t1.5 47.5t-1.5 47.5t-4.5 31.5zM647 185q-11 0 -11 -13q0 -14 11 -14t11 14q0 13 -11 13zM647 383l-27 -185v-7v-6q17 20 22.5 49.5t5.5 58.5v37v10
q0 8 -0.5 16.5t-0.5 15.5v11zM660 211q-7 2 -7 -6t7 -6.5t7 6.5q0 4 -7 6zM660 442v-20q0 -11 1.5 -37t3.5 -55.5t4 -55.5t4 -36q12 28 13 49t1 50q0 31 -4 64t-23 61v-20zM620 449v-13q0 -3 1.5 -8.5t4 -12l4.5 -12t4 -7.5q0 3 0.5 9.5t0.5 10.5q0 15 -2 25t-13 21v-13z
M211 462q-11 0 -11 -13t11 -13t11 13t-11 13zM172 488q-7 3 -7 -6t6.5 -7t6.5 7q0 4 -6 6zM211 634q-2 4 -3 -1.5t-2 -17t-1 -27.5v-34v-34q0 -24 1.5 -37t4.5 -8q4 9 5 31.5t1 47.5t-1 47.5t-5 32.5zM607 488q-6 3 -6 -6t6.5 -7t6.5 7t-7 6zM632 502q0 -8 2 -15t13 -12v7v6
q-1 4 -5.5 13.5t-7.5 13.5q0 -1 -1 -5.5t-1 -7.5zM172 634l13 -119v119h-13zM607 541l-13 -26l26 13zM581 541q-11 0 -11 -13t11 -13t11 13t-11 13zM594 568q-11 0 -11 -14q0 -13 11 -13t11 13q0 14 -11 14zM581 581q-11 0 -11 -13q0 -14 11 -14t11 14q0 13 -11 13zM568 594
q-11 0 -11 -13t11 -13t11 13t-11 13zM515 607q-11 0 -11 -13t11 -13t11 13t-11 13zM554 607q-11 0 -11 -13t11 -13t11 13t-11 13zM502 620q-11 0 -11 -13t11 -13t11 13t-11 13zM198 660q2 7 -7 7q-8 0 -6.5 -7t6.5 -7t7 7z" />
    <glyph glyph-name="e" unicode="e" horiz-adv-x="594" 
d="M40 13v-13h462q9 0 18.5 23t17 52t12 56t4.5 35v6q-1 3 -5 7.5t-8 5.5q-6 -44 -22 -70t-40 -40t-55.5 -18.5t-68.5 -4.5h-38q-15 0 -29 3t-25 10.5t-18 20.5t-7 33v209q39 0 63 -6t37.5 -15.5t19 -20.5t8.5 -20.5t6 -15.5t11 -6v231q-17 -7 -21.5 -16t-5 -19.5
t-0.5 -20.5t-7.5 -18t-27 -13t-58.5 -5q-8 0 -16.5 1t-8.5 12v232q35 0 65.5 -1t59 -1.5t56 -1.5t57.5 -1q0 -12 0.5 -28.5t4.5 -32.5t12 -29t22 -18v171h-462v-13q22 -2 38.5 -3t29.5 -5.5t22 -15t15 -29.5v-30q0 -21 0.5 -45.5t0.5 -47.5v-28v-40q0 -24 -0.5 -48t-0.5 -43
v-21q-1 -29 0.5 -61.5t1 -64.5t-5 -62.5t-17.5 -54.5t-36 -40.5t-61 -20.5zM475 13q-2 -6 -13 -6q-12 0 -13 6q-1 4 3.5 5t9.5 1t9.5 -1t3.5 -5zM224 26q-6 -6 -26 -6t-26 6q-4 4 5.5 5t20.5 1t20.5 -1t5.5 -5zM264 53q11 0 11 -13q0 -14 -11 -14t-11 14q0 13 11 13z
M178 119v356l7 -409q0 -9 -11.5 -12t-16.5 -3q0 1 0.5 6.5t0.5 8.5q2 3 4.5 10.5l5.5 16l5.5 16t4.5 10.5zM211 158l27 -105q-1 0 -3.5 -0.5t-3.5 -0.5t-4 0.5l-3 0.5q-3 3 -8 6.5t-5 6.5v92zM211 330q7 -6 7 -20q0 -13 -7 -20q-3 -3 -4.5 4t-1.5 16t1.5 16t4.5 4zM330 356
q11 0 11 -13t-11 -13t-11 13t11 13zM343 370q-1 -7 -6 -7t-6.5 6.5t6.5 6.5q7 0 6 -6zM211 634q4 -15 5 -50t1 -76q0 -40 -1 -75t-5 -50q-3 -9 -4.5 12t-1.5 59v53v53q0 40 1.5 61.5t4.5 12.5zM185 647q6 -2 6 -13q0 -13 -6 -14q-4 -1 -5.5 4t-1.5 10t1.5 9.5t5.5 3.5z
M462 647q11 0 11 -13q0 -14 -11 -14t-11 14q0 13 11 13zM436 660q11 0 11 -13t-11 -13t-11 13t11 13zM488 660q11 0 11 -13t-11 -13t-11 13t11 13z" />
    <glyph glyph-name="f" unicode="f" horiz-adv-x="566" 
d="M40 9q5 12 16.5 15.5t24 5t23.5 4.5t15 14q1 6 3.5 18t4.5 24.5t3.5 23t1.5 14.5v514q0 12 -11 15.5t-24.5 5.5t-26.5 5t-17 14h32q22 0 47 1t47 1h32h41q13 0 32 0.5t38 0.5q20 0 37.5 0.5t25.5 0.5h23q12 0 30 -2l35 -4t29 -4t12 -3l13 -158l-13 -13q-8 29 -19 62
t-34 56l13 14h-39q-3 0 -21 1t-38.5 2.5t-38 3t-20.5 1.5q-4 0 -15.5 -1.5t-24 -3.5l-24 -4t-15.5 -4q-2 -4 -4.5 -11.5t-4.5 -15t-3.5 -15t-1.5 -11.5q0 -10 1 -37.5t2 -59t2 -59t1 -37.5q25 0 53.5 2.5t52.5 12t40.5 27.5t18.5 50v-237h-13q-3 24 -14 37.5t-26.5 21
t-33 9.5t-32.5 2h-46q0 -17 -3.5 -43t-7 -56t-3.5 -61q0 -30 6.5 -56t22.5 -45t45 -25q5 -1 12.5 -0.5t12.5 0.5q10 0 15 -13l-13 -13h-264zM178 48l-33 -26l27 -13q-2 19 12 27t28 8q0 2 -1 2v2l-13 66q-2 10 -4.5 32.5l-5.5 47.5l-5.5 47.5t-4.5 31.5v-225zM158 180
l-13 -132l13 14v118zM158 260q-11 0 -11 -14q0 -13 11 -13t11 13q0 14 -11 14zM382 343l-65 -17q1 0 3 -1t3 -1t4 1l3 1q1 0 9 2t17.5 5l17.5 5.5t8 4.5zM290 365q-11 0 -11 -13t11 -13t11 13t-11 13zM317 378q-11 0 -11 -13t11 -13t11 13t-11 13zM198 392q-11 0 -11 -14
q0 -13 11 -13t11 13q0 14 -11 14zM198 629q-1 8 -3 -6t-2 -41v-58v-58q0 -27 1 -41.5t4 -6.5q3 13 4.5 42.5t1.5 61.5q0 35 -1.5 65.5t-4.5 41.5zM474 673q-11 0 -11 -13t11 -13q10 0 10 13t-10 13z" />
    <glyph glyph-name="g" unicode="g" horiz-adv-x="693" 
d="M79 211q0 -30 16 -57.5t41.5 -51t58.5 -42.5t68 -32.5t68.5 -20.5t59.5 -7q24 0 51.5 4.5t54.5 14t49.5 24.5t35.5 36q0 9 -0.5 33.5t-0.5 51.5t0.5 51.5t0.5 35.5q0 2 1.5 7.5t4 11.5t4.5 12t3 8q4 6 13.5 12t19.5 13t17.5 13.5t7.5 14.5h-236q0 -9 9.5 -15t21.5 -11
t24 -11t18 -16q1 -8 3.5 -26.5t4.5 -39.5t3.5 -39.5t1.5 -26.5q0 -33 -9.5 -53.5t-26 -32t-39.5 -16t-51 -4.5q-42 0 -72.5 14t-54 30.5l-42.5 30.5t-38 14q0 28 -4 56.5t-8.5 57t-8.5 57.5t-4 59q0 58 14 109t43 88t74 58.5t107 21.5q76 0 124.5 -35.5t61.5 -110.5h13v230
q-7 0 -13 -6q-3 -3 -7.5 -13t-6.5 -13q-2 -4 -7 -9t-6 -5h-251q-37 0 -70 -17t-60.5 -45t-50 -64.5t-38 -74.5t-24 -75t-8.5 -67q0 -28 5.5 -55t21.5 -50q-1 23 -1.5 45t-0.5 47q0 37 3.5 74t14 71t29 64.5t47.5 54.5q-13 -32 -27 -58.5t-26 -52.5t-19.5 -55t-7.5 -65
q0 -21 4.5 -42t9.5 -41.5t9.5 -41t4.5 -40.5v-13l-27 39q0 -1 -0.5 -5t-0.5 -8zM476 53q11 0 11 -13q0 -14 -11 -14q-10 0 -10 14q0 13 10 13zM516 66q11 0 11 -13t-11 -13q-10 0 -10 13t10 13zM542 79q11 0 11 -13t-11 -13q-10 0 -10 13t10 13zM516 92q11 0 11 -13t-11 -13
q-10 0 -10 13t10 13zM186 106q11 0 11 -14q0 -13 -11 -13q-10 0 -10 13q0 14 10 14zM555 290q4 -11 5 -39t1 -60q0 -31 -1 -59t-5 -40q-2 -8 -3.5 7t-1.5 38v54v54q0 25 1.5 39t3.5 6zM186 119q3 -7 -1 -12t-12 -1q-3 1 -2 4.5t4 6.5t6.5 4t4.5 -2zM529 119q11 0 11 -13
q0 -14 -11 -14q-10 0 -10 14q0 13 10 13zM146 145q11 0 11 -13t-11 -13q-10 0 -10 13t10 13zM118 169q11 0 20.5 4.5t20.5 11.5l-26 -40q-15 7 -15 24zM159 172q11 0 11 -14q0 -13 -11 -13q-9 0 -9 13q0 14 9 14zM529 172q7 -4 7 -7q0 -5 -7 -6.5t-7 6.5q0 9 7 7zM529 211
q11 0 11 -13t-11 -13q-10 0 -10 13t10 13zM133 224q7 -2 7 -6q0 -5 -6.5 -6.5t-6.5 6.5q0 10 6 6zM94 370q0 26 8.5 53t17.5 52v-224q-19 24 -22.5 57t-3.5 62zM516 304q11 0 11 -14q0 -13 -11 -13q-10 0 -10 13q0 14 10 14zM555 317q-4 -7 -19 -7q-14 0 -20 7q-2 3 4.5 4
t15.5 1t16 -1t3 -4zM133 515q11 0 11 -13q0 -14 -11 -14q-10 0 -10 14q0 13 10 13zM146 554q11 0 11 -13t-11 -13q-10 0 -10 13t10 13zM173 581q11 0 11 -13q0 -14 -11 -14q-10 0 -10 14q0 13 10 13zM555 634q7 -3 7 -7q0 -5 -6.5 -7t-6.5 7t6 7zM503 660h39v-13z" />
    <glyph glyph-name="h" unicode="h" horiz-adv-x="792" 
d="M40 13v-13h277q-7 16 -16 21t-18.5 6t-19.5 0.5t-18.5 4.5t-14 18.5t-6.5 41.5q0 13 1 47t2 72.5t2 72t1 46.5h272l52 -13v-11q0 -8 0.5 -20.5t0.5 -20.5q0 -19 2.5 -45t2.5 -55q0 -28 -2.5 -55.5t-11.5 -49.5t-26 -35.5t-45 -11.5h264q-11 0 -24.5 1.5t-27 6t-24.5 12.5
t-16 20v41q0 29 -0.5 61.5t-0.5 61.5v40q0 50 -0.5 96.5t0.5 92.5t4 92t10 96q5 12 16 20t24.5 12t27 5.5t24.5 1.5v13h-290q27 2 47 -8.5t33 -28.5t19.5 -41t6.5 -47v-7q0 -9 -1.5 -31.5t-3.5 -47.5t-4.5 -47.5t-4.5 -31.5h-311q0 12 -1 41.5t-1.5 63t-1.5 64t-1 42.5
q1 25 8 39t18.5 21.5t28 11t37.5 7.5h-277q29 -8 47.5 -17.5t28.5 -23.5t13.5 -35t3.5 -51q0 -125 -9 -252.5t-18 -240.5q-5 -15 -11.5 -24.5t-16 -15t-22 -8.5t-29.5 -5zM145 92l27 489v-33q0 -24 0.5 -49.5t0.5 -49.5v-33v-44q0 -26 -0.5 -52.5t-0.5 -46.5v-22
q0 -21 -2 -54l-4 -65t-4.5 -55t-3.5 -24l-26 -27v7v7q0 3 1.5 10.5t3.5 15.5l4 15.5t4 10.5zM185 51v15q0 3 1.5 14.5t4 25l4.5 25t3 14.5l3.5 -21.5t4.5 -32t3.5 -31.5t1.5 -20v-7v-7q-20 -1 -23 6t-3 19zM568 53q6 -2 6 -7q0 -4 -6.5 -6.5t-6.5 6.5q0 8 7 7zM605 213
q0 102 1 209.5t14 211.5h14q0 -75 -3 -149.5l-6 -148t-5 -147.5t0 -149l-13 13q0 3 -0.5 22t-0.5 44q0 26 -0.5 52.5t-0.5 41.5zM581 330q3 -8 4 -28.5t1 -44.5q0 -23 -1 -43.5t-4 -28.5q-2 -4 -3.5 1t-2 15.5t-1 25.5t-0.5 30q0 16 0.5 31t1 25.5t2 15.5t3.5 1zM198 224
q11 0 11 -13t-11 -13t-11 13t11 13zM198 343q3 -7 4.5 -21.5t1.5 -31.5t-1.5 -32t-4.5 -20q-2 -3 -3 0.5t-2 11t-1.5 18.5t-0.5 22q0 23 2 40.5t5 12.5zM251 370q4 0 19 0.5t20 0.5q2 0 10 0.5t17 0t16.5 -4t9.5 -11.5q-3 0 -13 -0.5t-13 -0.5q-20 0 -33.5 2t-32.5 13z
M198 541q3 -9 4.5 -31.5t1.5 -47.5t-1.5 -47.5t-4.5 -31.5q-3 -7 -4 4t-1 31v44v44q0 20 2 31t3 4zM211 647h13l-13 -66v66zM172 647q11 0 11 -13q0 -14 -11 -14t-11 14q0 13 11 13zM581 647q11 0 11 -13q0 -14 -11 -14t-11 14q0 13 11 13zM581 673h53q-4 -3 -13.5 -7.5
t-13.5 -5.5h-6h-7q-3 1 -7.5 5.5t-5.5 7.5zM211 673q-3 -6 -20 -6q-16 0 -19 6q-4 4 3.5 5t15.5 1t14.5 -1t5.5 -5z" />
    <glyph glyph-name="i" unicode="i" horiz-adv-x="370" 
d="M40 13l13 -13h264v13q-17 -4 -33.5 -1t-29.5 12t-21.5 23t-8.5 32v475q0 60 21.5 90t84.5 29v13h-277v-13q23 -1 45.5 -8.5t33.5 -30.5v-48q0 -33 0.5 -71t0.5 -73v-46q0 -30 1 -73.5t0 -91t-4 -94.5t-11 -84q-11 -23 -33.5 -31t-45.5 -9zM185 26q-2 -6 -13 -6
q-13 0 -14 6q-1 4 4 5t10 1t9.5 -1t3.5 -5zM211 53q11 0 11 -13q0 -14 -11 -14t-11 14q0 13 11 13zM158 251h15q0 -4 -0.5 -13.5t-0.5 -13.5q0 -10 -1.5 -34.5t-3.5 -51.5t-4.5 -51t-4.5 -34h-13v13q0 11 1.5 37.5t3.5 55.5t4 55t4 37zM198 106v-53h-13zM172 317q6 -2 6 -13
q0 -13 -6 -14q-4 -1 -5.5 4t-1.5 10t1.5 9.5t5.5 3.5zM172 634q3 -16 4 -55.5t1 -84.5q0 -44 -1 -83t-4 -55q-2 -7 -3.5 3t-2.5 30.5t-1 48.5v57v58t1 48t2.5 30t3.5 3zM198 634l13 13l-13 -185v172zM158 660q11 0 11 -13t-11 -13t-11 13t11 13zM185 673q11 0 11 -13
t-11 -13t-11 13t11 13z" />
    <glyph glyph-name="j" unicode="j" horiz-adv-x="546" 
d="M40 217q0 -48 3 -88.5t18.5 -69t47.5 -44.5t89 -16q30 0 62.5 10t60 28.5t46 45.5t20.5 62l27 462q1 28 6.5 40.5t14 17t18.5 3t20 -2t19 3t14 17.5h-264v-13q3 0 10.5 -1.5t15.5 -3.5t15.5 -4.5t11.5 -3.5q2 -1 7.5 -5.5t5.5 -7.5v-528q0 -19 -8.5 -34t-22 -25.5
t-29.5 -16t-31 -5.5q-43 0 -68.5 13.5t-40.5 33t-21.5 43l-12 43t-12.5 33t-22 13.5zM348 119q10 0 10 -13q0 -14 -10 -14q-11 0 -11 14q0 13 11 13zM334 145q7 -2 7 -6q0 -5 -6.5 -6.5t-6.5 6.5q0 7 6 6zM361 145q10 0 10 -13t-10 -13q-11 0 -11 13t11 13zM348 238
q10 0 10 -14q0 -13 -10 -13q-11 0 -11 13q0 14 11 14zM374 251q10 0 10 -13q0 -14 -10 -14q-11 0 -11 14q0 13 11 13zM374 607q1 -13 2.5 -39t1.5 -61v-71q0 -27 -0.5 -54t-1 -50t-1.5 -41t-1 -27q-2 -7 -3.5 -1.5t-2 19.5t-1 35t-0.5 46v73v71q0 54 1.5 83.5t5.5 16.5z
M348 647q1 -10 2 -28.5t1.5 -42.5t0.5 -52v-55v-56t-0.5 -52t-1.5 -42.5t-2 -28.5q-2 -6 -3.5 -1t-2.5 19.5t-1 35.5v48v77v74v49t1 36.5t2.5 19.5t3.5 -1zM387 647q7 -2 7 -7q0 -4 -6.5 -6.5t-6.5 6.5q0 8 6 7z" />
    <glyph glyph-name="k" unicode="k" horiz-adv-x="792" 
d="M40 13q22 2 37.5 4.5t26.5 9t17.5 19t10.5 33.5q4 49 7 90t4.5 77t2 70.5t0.5 70.5v108v29q0 23 -0.5 47t-0.5 45v31q-4 13 -17.5 16.5t-28.5 3.5t-28.5 2.5t-17.5 16.5h290q-4 -13 -13.5 -18t-20.5 -7t-23.5 -2.5t-22.5 -5t-17 -15t-8 -31.5l-14 -237l130 127.5
t121 136.5q1 1 1.5 5t0.5 8q0 12 -7 15t-15 3.5t-15 2.5t-7 12q0 3 3 6q13 2 48.5 4.5t75.5 4.5t76 3.5t50 1.5h8h6q3 -2 7.5 -6t5.5 -8q-7 -13 -25.5 -19.5t-40.5 -10.5t-44 -8.5t-35 -13.5l-14 -10t-20.5 -15.5t-19.5 -16.5t-12 -11l-212 -211l-26 -53q32 6 40 39
q1 -3 5 -13t8 -13l92 -92v-27h27l184 -171q4 -4 18.5 -8l21.5 -6q4 -2 17.5 -4t28.5 -4t28 -3.5t18 -1.5v-13h-198q-3 0 -8 5t-5 8q0 8 9.5 21.5t17.5 18.5l-27 26q-3 -3 -8 -12.5t-5 -13.5t5 -8.5t8 -4.5l-26 -14l-277 278l-14 -40l14 -211q0 -5 9.5 -14t16.5 -13
q4 -2 15.5 -4l24 -4t24 -3.5t15.5 -1.5v-13h-303v13zM185 40q-11 0 -11 -14q0 -13 11 -13t11 13q0 14 -11 14zM165 92l-20 -52l27 13l-7 369v-330zM198 53l13 -13v607l-13 -13v-581zM581 53q-11 0 -11 -13q0 -14 11 -14t11 14q0 13 -11 13zM515 79q-11 0 -11 -13t11 -13
t11 13t-11 13zM502 92q-11 0 -11 -13t11 -13t11 13t-11 13zM475 119q7 -4 12.5 -11.5t0.5 -15.5l27 14l-13 26zM528 106q-11 0 -11 -14q0 -13 11 -13t11 13q0 14 -11 14zM449 132l13 -13l13 26zM436 158q-11 0 -11 -13t11 -13t11 13t-11 13zM422 172q-11 0 -11 -14
q0 -13 11 -13t11 13q0 14 -11 14zM462 172q-11 0 -11 -14q0 -13 11 -13t11 13q0 14 -11 14zM409 185q-11 0 -11 -13q0 -14 11 -14t11 14q0 13 -11 13zM449 185q-11 0 -11 -13q0 -14 11 -14t11 14q0 13 -11 13zM396 198q-11 0 -11 -13t11 -13t11 13t-11 13zM436 198
q-11 0 -11 -13t11 -13t11 13t-11 13zM383 211q-11 0 -11 -13t11 -13t11 13t-11 13zM422 211q-11 0 -11 -13t11 -13t11 13t-11 13zM383 238l-13 -27l26 13zM356 238q-11 0 -11 -14q0 -13 11 -13t11 13q0 14 -11 14zM343 251q-11 0 -11 -13q0 -14 11 -14t11 14q0 13 -11 13z
M330 264q-11 0 -11 -13t11 -13t11 13t-11 13zM370 264q-11 0 -11 -13t11 -13t11 13t-11 13zM317 277q-11 0 -11 -13t11 -13t11 13t-11 13zM356 277q-11 0 -11 -13t11 -13t11 13t-11 13zM317 290q-2 3 -5.5 2t-6 -3.5t-3.5 -6t2 -5.5q6 -3 11 2t2 11zM343 290q-11 0 -11 -13
t11 -13t11 13t-11 13zM304 304q-4 5 -11.5 -2.5t-2.5 -11.5q7 -3 12 2t2 12zM277 317q-11 0 -11 -13q0 -14 11 -14t11 14q0 13 -11 13zM224 330q-11 0 -11 -13t11 -13t11 13t-11 13zM251 343q-11 0 -11 -13t11 -13t11 13t-11 13zM238 356q-11 0 -11 -13t11 -13t11 13t-11 13
zM515 647q-2 3 -5.5 1.5t-6 -4t-3.5 -6t2 -4.5q6 -4 11 1t2 12zM541 647q-2 3 -5 1.5t-6 -4t-4 -6t2 -4.5q7 -4 12 1t1 12zM172 660q-11 0 -11 -13t11 -13t11 13t-11 13zM568 673q-11 0 -11 -13t11 -13t11 13t-11 13zM554 673q1 4 -3.5 5t-9.5 1t-9.5 -1t-3.5 -5
q1 -3 4.5 -4.5t8.5 -1.5q11 0 13 6z" />
    <glyph glyph-name="l" unicode="l" horiz-adv-x="581" 
d="M40 13l13 -13h422q12 0 23.5 20.5t21 46t15.5 47.5t6 25v6q-1 4 -5.5 8t-7.5 5q-18 -46 -46 -69t-64 -32t-78.5 -8t-88.5 4q-7 -15 -26 -21t-34 -6h-6l13 14q-3 116 1 231t12 231q1 13 3 33l4 39t4 32.5l2 13.5l14 14q-12 -71 -14 -148.5t-2 -153.5v-92q0 -16 0.5 -41
t0.5 -53q0 -25 0.5 -44t0.5 -23l14 -13q-4 133 1 273t12 268q6 19 15 29.5t22 15t29.5 5.5t38.5 3l-13 13l-23 2t-54.5 4l-65.5 4t-55 3h-37q-4 0 -10.5 1t-13.5 0t-12 -4t-6 -10q3 -10 14.5 -13t26 -5t29 -5.5t22.5 -15.5v-27q0 -19 0.5 -39.5t0.5 -39.5v-26v-99
q0 -34 -0.5 -66t-2 -65.5t-4.5 -70.5t-7 -82q-2 -27 -8 -47.5t-17.5 -33.5t-31 -19t-48.5 -6zM172 224v-184l-27 -14q2 2 4 7.5t4 12t3.5 12t1.5 8.5q2 9 4.5 31.5t4.5 47.5t3.5 47.5t1.5 31.5zM277 40q11 0 11 -14q0 -13 -11 -13t-11 13q0 14 11 14zM409 40q11 0 11 -14
q0 -13 -11 -13t-11 13q0 14 11 14zM475 40q11 0 11 -14q0 -13 -11 -13t-11 13q0 14 11 14zM475 66q0 -1 0.5 -3t0.5 -4q0 -11 -8 -16t-19 -5q-4 0 -8 1t-5 1zM185 383q11 0 11 -13q0 -14 -11 -14t-11 14q0 13 11 13zM185 620q3 -11 4 -44t1 -68t-1 -68t-4 -44q-4 -8 -5 7.5
t-1 43.5v60v62q0 28 1 43.5t5 7.5zM224 660q-4 -7 -19 -7q-17 0 -20 7q-4 3 4 4t16 1t14.5 -1t4.5 -4z" />
    <glyph glyph-name="m" unicode="m" horiz-adv-x="905" 
d="M34 13v-13h238v13q-32 -6 -48.5 2t-24 24t-8 37t-0.5 41q0 95 8.5 185.5t19.5 185.5q2 -2 7 -2q1 -2 4 1t6 8t5.5 11t3.5 9q-5 -25 -3.5 -51t7.5 -51.5t15.5 -50t20.5 -45.5l26 13q-9 -49 3.5 -90t36.5 -82v14q0 23 -6.5 45t-6.5 45v-11l26 13v-7v-6q0 -3 -1.5 -8.5
t-3.5 -12t-4.5 -12t-3.5 -7.5l26 13v-6q0 -24 -7 -47t-7 -47q0 -32 12 -65t29 -59q15 9 24.5 23t16.5 30.5t13 33.5t12 32l19.5 45l30.5 70.5l35.5 82.5l35.5 82.5l30 70t20 45.5q1 -10 2.5 -30.5t3 -47l3 -55t2.5 -54.5t1.5 -46.5t0.5 -30.5v-93v-92q-3 -12 -15 -21.5
t-24.5 -17l-22.5 -14t-10 -13.5h284v13q-32 4 -54 10.5t-35.5 19.5t-20 34t-9.5 55q-2 8 -4 36t-4.5 67.5t-5 85.5l-5 90l-4.5 82t-3 61v29q0 47 30.5 68.5t74.5 21.5v13h-172l-6.5 -13.5l-15 -32.5l-17 -39t-13.5 -33l-39.5 -100.5l-40 -100.5t-43 -99t-49.5 -96
q-36 60 -58 125.5t-41 132t-41 132t-58 124.5q-9 2 -29.5 3.5l-43 3t-43 2t-30.5 0.5h-22h-19q-11 0 -12 -13q9 -19 22.5 -23.5t28.5 -4t30 1.5t26.5 -6.5t19 -27.5t7.5 -62v-14q0 -10 -0.5 -19.5t-0.5 -17.5v-7q-1 -16 -4 -48l-7 -72.5l-8.5 -85l-8.5 -85l-7 -72.5t-4 -47
q-5 -38 -30 -58t-63 -21zM179 40q11 0 11 -14q0 -13 -11 -13q-10 0 -10 13q0 14 10 14zM707 40q11 0 11 -14q0 -13 -11 -13q-10 0 -10 13q0 14 10 14zM166 158q3 -6 4.5 -23t1.5 -37q0 -19 -1.5 -35.5t-4.5 -22.5q-2 -5 -3.5 3t-1.5 23v33v33q0 15 2 23t3 3zM681 317v-277
h-13zM721 145q4 -25 9.5 -53.5t16.5 -51.5q-1 0 -3.5 -1t-3.5 -1t-3.5 1l-2.5 1q-3 3 -8 6t-5 7v92zM404 79q16 -7 16 -26h-16v26zM140 79q11 0 11 -13t-11 -13q-10 0 -10 13t10 13zM391 106q6 -2 6 -7q0 -4 -6.5 -6.5t-6.5 5.5q0 10 7 8zM430 106q11 0 11 -14
q0 -13 -11 -13q-10 0 -10 13q0 14 10 14zM377 145q7 -1 7 -13t-7 -13q-2 -1 -4 3.5t-2 9.5t2 9.5t4 3.5zM457 158v-6v-7q-2 -3 -6 -13t-8 -13v6v7q1 3 6 13t8 13zM391 185v13q11 -11 12.5 -21t1.5 -25q0 -4 -0.5 -10.5t-0.5 -9.5q-2 2 -4 7.5t-4 12t-3.5 12t-1.5 8.5v13z
M707 330q4 -9 5 -31.5t1 -47.5t-1 -47.5t-5 -31.5q-2 -5 -4 8t-2 37v34v33t1 27.5t2 17t3 1.5zM483 224q11 0 11 -13t-11 -13q-10 0 -10 13t10 13zM496 264q11 0 11 -13t-11 -13q-10 0 -10 13t10 13zM179 277q7 -1 7 -6t-6.5 -6.5t-6.5 6.5t6 6zM324 290q7 -1 7 -6
t-6.5 -6.5t-6.5 6.5t6 6zM522 304q0 -2 1 -4t1 -3t-1 -4l-1 -3q-1 -3 -5 -7.5t-8 -5.5zM337 330q0 3 0.5 7.5t0.5 5.5q9 -11 11.5 -19.5t2.5 -19.5q0 -4 -0.5 -8.5t-0.5 -5.5q-9 11 -11.5 20t-2.5 20zM298 370q7 -2 7 -7t-7 -6.5t-7 6.5q0 9 7 7zM324 383q4 -1 5.5 -4.5
t1.5 -8.5q0 -11 -7 -14q-2 -1 -4 4t-2 10t2 9.5t4 3.5zM549 370q11 0 11 -14q0 -13 -11 -13q-10 0 -10 13q0 14 10 14zM285 409q6 -2 6 -13q0 -12 -6 -13q-2 -1 -4.5 3.5t-2.5 9.5t2.5 9.5t4.5 3.5zM694 647h13l-13 -264v264zM311 409q7 -1 7 -6t-6.5 -6.5t-6.5 6.5t6 6z
M562 409q11 0 11 -13t-11 -13q-10 0 -10 13t10 13zM668 515q3 -7 4 -21.5t1 -31.5t-1 -32.5t-4 -20.5q-3 -7 -5 11.5t-2 41.5t2 40.5t5 12.5zM272 436q6 -2 6 -7q0 -4 -6.5 -6.5t-6.5 6.5t7 7zM575 436q11 0 11 -14q0 -13 -11 -13q-10 0 -10 13q0 14 10 14zM298 449
q7 -2 7 -7q0 -4 -7 -6.5t-7 6.5t7 7zM258 475q7 -1 7 -13t-7 -13q-2 -1 -4 3.5t-2 9.5t2 9.5t4 3.5zM588 462q11 0 11 -13t-11 -13q-9 0 -9 13t9 13zM285 488q6 -2 6 -6q0 -5 -6.5 -7t-6.5 7q0 5 2.5 6.5t4.5 -0.5zM615 502q3 -7 -1 -12t-12 -2q-3 2 -2 5.5t4 6t6.5 4
t4.5 -1.5zM272 528q6 -2 6 -13q0 -12 -6 -13q-3 -1 -5 3.5t-2 9.5t2 9.5t5 3.5zM206 541q6 -2 6 -13q0 -12 -6 -13q-3 -1 -5 3.5t-2 9.5t2 9.5t5 3.5zM232 554q7 -1 7 -13q0 -5 -1.5 -8.5t-5.5 -4.5q-2 -1 -4 3.5t-2 9.5t2 9.5t4 3.5zM258 554q11 0 11 -13t-11 -13
q-9 0 -9 13t9 13zM641 554q4 -6 -0.5 -11t-12.5 -2q-3 2 -2 5.5t4 6t6.5 3.5t4.5 -2zM668 568q6 -3 6 -7q0 -5 -6.5 -7t-6.5 7t7 7zM219 581q7 -2 7 -7q0 -4 -7 -6.5t-7 6.5t7 7zM245 594q7 -1 7 -7q0 -4 -6.5 -6.5t-6.5 6.5t6 7zM628 594q11 0 11 -13t-11 -13q-10 0 -10 13
t10 13zM193 620q6 -2 6 -13q0 -5 -1.5 -8.5t-4.5 -4.5t-5 3.5t-2 9.5t2 9.5t5 3.5zM219 634q0 3 5.5 8t7.5 5v-40q-2 4 -7.5 13t-5.5 14zM641 620q11 0 11 -13t-11 -13q-10 0 -10 13t10 13zM179 647q11 0 11 -13q0 -14 -11 -14q-10 0 -10 14q0 13 10 13zM654 647
q11 0 11 -13q0 -14 -11 -14q-9 0 -9 14q0 13 9 13zM166 660q11 0 11 -13t-11 -13q-10 0 -10 13t10 13zM206 660q-2 -7 -7 -7t-6.5 7t6.5 7q9 0 7 -7zM681 673q11 0 11 -13t-11 -13q-10 0 -10 13t10 13z" />
    <glyph glyph-name="n" unicode="n" horiz-adv-x="825" 
d="M153 389v-57q0 -35 -0.5 -69.5t-0.5 -62.5v-28q-1 -46 -9 -74.5t-19 -45t-23.5 -23.5t-23 -11t-17.5 -7t-7 -11h244v13q-35 15 -51.5 32.5t-23 39.5t-6 50t0.5 64v78q0 27 0.5 52t2 51.5t4.5 56t7 65.5l106 -106q0 1 0.5 3.5t0.5 3.5q0 10 -7 20.5t-16 21l-18 21
t-13 22.5l26 14v-40l27 13v-26h39v13l-18 23l-43.5 54.5l-52.5 65l-44 55.5q-5 7 -15 16.5t-12 9.5h-151q0 -2 16 -12.5l36 -24l38 -26t22 -16.5v-44q0 -31 0.5 -65.5t0.5 -66.5v-42zM614 92q-4 -9 -2.5 -24.5t7 -30.5t14.5 -26t20 -11h14q3 79 5 156.5t4.5 154t6 153.5
t10.5 156q6 18 13.5 27.5t19 15t26 7l33.5 3.5v13h-264v-13q27 -2 46.5 -4.5t33 -10.5t20 -24.5t6.5 -45.5v-7q0 -16 -0.5 -48t-1.5 -72.5t-2.5 -85t-3 -84.5t-3 -72t-2.5 -47l-13 13.5t-14 12.5l-2.5 0.5t-3.5 0.5t-4 -0.5l-3 -0.5q-4 -3 -13.5 -12.5t-12.5 -13.5
q3 4 7.5 19t5.5 20v7v6q-1 4 -5.5 13.5t-7.5 13.5q-5 8 -13.5 19t-17.5 21.5l-15.5 18l-6.5 7.5h-13v-27q-2 2 -7.5 6t-12 8l-12 7.5l-8.5 5.5h-13q-3 1 -8 6.5t-5 6.5q0 4 5 13.5t8 12.5l40 -26q0 1 0.5 3t0.5 4l-9 14.5l-20.5 32.5l-22.5 34t-15 18q-4 1 -13.5 -5.5
t-13.5 -8.5q-1 0 -6.5 -1t-6.5 -1v-24l26 13q-1 -1 -1 -6q-3 -5 4 -10t11 -10q0 -5 -5 -14t-9 -13l-26 14q0 -1 -0.5 -3.5t-0.5 -3.5t0.5 -4l0.5 -3q5 -8 13.5 -19l16.5 -21.5t14.5 -18t8.5 -7.5h28v-19q0 -15 6 -31.5t25 -16.5q1 0 4 0.5l3 0.5q3 2 7.5 6t5.5 8
q-3 0 -8 4.5t-5 8.5t5 13.5t8 12.5q5 -3 14 -12.5t12 -13.5v-7q0 -11 -5.5 -24.5t-20.5 -13.5v-8l92 -119l2 -0.5t5 -0.5q1 0 4 0.5l3 0.5q3 1 7.5 5.5t5.5 7.5zM178 40q11 0 11 -14q0 -13 -11 -13t-11 13q0 14 11 14zM165 79q0 -1 0.5 -5.5t0.5 -7.5q0 -8 -1.5 -15
t-12.5 -11zM190 79q0 4 0.5 13.5t0.5 13.5q2 -3 4 -10.5t4.5 -16t4 -16t1.5 -10.5v-7v-6q-7 1 -10.5 6.5t-4.5 11.5t-0.5 12t0.5 9zM653 53q-1 -7 -6 -7t-7 6.5t7 6.5q7 0 6 -6zM627 79q11 0 11 -13t-11 -13t-11 13t11 13zM614 119q3 -7 -2 -12t-11 -1q-3 1 -2 4.5t3.5 6.5
t6 4t5.5 -2zM587 132q11 0 11 -13t-11 -13t-11 13t11 13zM640 224q4 -6 5 -20.5t1 -31.5t-1 -32.5t-5 -20.5q-3 -7 -4.5 11.5t-1.5 41.5t1.5 40t4.5 12zM587 158l14 -13l-27 -13zM191 172q7 -3 7 -14q0 -5 -1.5 -8.5t-5.5 -4.5q-3 -1 -4.5 3.5t-1.5 9.5t1.5 10t4.5 4z
M574 185q11 0 11 -13q0 -14 -11 -14t-11 14q0 13 11 13zM535 198q11 0 11 -13t-11 -13t-11 13t11 13zM191 211q7 -1 7 -6t-6.5 -6.5t-6.5 6.5q0 7 6 6zM521 211q11 0 11 -13t-11 -13t-11 13t11 13zM548 224q11 0 11 -13t-11 -13t-11 13t11 13zM535 238q11 0 11 -14
q0 -13 -11 -13t-11 13q0 14 11 14zM508 251q-11 0 -11 -13q0 -14 11 -14t11 14q0 13 -11 13zM191 277q11 0 11 -13t-11 -13t-11 13t11 13zM469 277q11 0 11 -13t-11 -13t-11 13t11 13zM455 290q11 0 11 -13t-11 -13t-11 13t11 13zM191 304q7 -3 7 -7q0 -5 -6.5 -6.5
t-6.5 6.5t6 7zM403 356q11 0 11 -13t-11 -13t-11 13t11 13zM416 383q11 0 11 -13q0 -14 -11 -14t-11 14q0 13 11 13zM350 396q-11 0 -11 -13t11 -13t11 13t-11 13zM350 449q-11 0 -11 -13q0 -14 11 -14t11 14q0 13 -11 13zM323 502q11 0 11 -14q0 -13 -11 -13t-11 13
q0 14 11 14zM271 515q11 0 11 -13q0 -14 -11 -14t-11 14q0 13 11 13zM230 548q0 1 0.5 3t0.5 3q3 -3 12.5 -8t13.5 -5q5 0 14 5t13 8q3 -3 7.5 -13t5.5 -13v-7v-6q-3 3 -12.5 8t-13.5 5q-5 0 -14 -5t-13 -8h13q-4 3 -13.5 12.5t-12.5 13.5l-0.5 3t-0.5 4zM205 568
q6 -8 6 -20q0 -14 -6 -20q-4 -3 -5.5 4t-1.5 16t1.5 16t5.5 4zM178 634q1 3 5.5 7.5t7.5 5.5l3 0.5t4 0.5t3.5 -0.5t3.5 -0.5q3 -3 10.5 -12.5l16 -20l16 -20t9.5 -13.5l0.5 -3t0.5 -4t-0.5 -3t-0.5 -3l-13.5 10.5l-19.5 15.5l-19.5 15.5l-13.5 10.5q-3 1 -7.5 5.5t-5.5 8.5
zM165 647q11 0 11 -13q0 -14 -11 -14t-11 14q0 13 11 13zM653 647q11 0 11 -13q0 -14 -11 -14t-11 14q0 13 11 13zM640 660q11 0 11 -13t-11 -13t-11 13t11 13zM680 660q11 0 11 -13t-11 -13t-11 13t11 13zM165 673q11 0 11 -13t-11 -13t-11 13t11 13z" />
    <glyph glyph-name="o" unicode="o" 
d="M40 350q0 -70 27.5 -133.5t74.5 -111.5t109.5 -76.5t131.5 -28.5q71 0 123.5 37.5t87 94t51 123.5t16.5 126q0 63 -20 121t-56.5 102t-89.5 70.5t-119 26.5q-69 0 -130 -29t-106.5 -78t-72.5 -112t-27 -132zM144 348q0 48 10.5 103t35 101.5t65 77.5t101.5 31t104 -27.5
t70 -71.5t39 -98t12 -108q0 -48 -12 -103.5t-38 -103t-67.5 -79.5t-100.5 -32q-60 0 -102 30t-68 75.5t-37.5 100t-11.5 104.5zM145 145q11 0 11 -13t-11 -13t-11 13t11 13zM132 158q11 0 11 -13t-11 -13t-11 13t11 13zM620 502q15 -35 21.5 -72t6.5 -74q0 -18 -4 -49.5
t-12.5 -64.5t-21 -60.5t-29.5 -36.5l7 21.5l13 40t13 42t6 28.5q0 12 0.5 44.5t0.5 67.5q0 36 -0.5 68.5t-0.5 44.5zM119 172q6 -3 6 -7q0 -5 -6.5 -6.5t-6.5 6.5t7 7zM106 198q6 -2 6 -7t-6.5 -6.5t-6.5 6.5t7 7zM145 198q11 0 11 -13t-11 -13t-11 13t11 13zM581 211
q11 0 11 -13t-11 -13t-11 13t11 13zM132 224q11 0 11 -13t-11 -13t-11 13t11 13zM65 350v23t1.5 19.5t4.5 19.5t8 24q2 -11 4 -37t4 -55.5t3.5 -56t1.5 -36.5v-13v-14q-20 27 -23.5 61t-3.5 65zM105 350q0 9 -1 29.5t0.5 42.5t7.5 41t20 25v-6v-7q0 -3 -2 -14.5l-4.5 -25
l-4.5 -25t-2 -14.5q0 -11 -0.5 -34t-0.5 -52q0 -28 0.5 -52t0.5 -34q-14 33 -14 62v64zM594 264q11 0 11 -13t-11 -13t-11 13t11 13zM607 409q4 -5 5 -18t1 -28t-1 -28t-5 -18q-3 -5 -4.5 10.5t-1.5 35.5t1.5 35.5t4.5 10.5zM92 475q7 -1 7 -6t-6.5 -7t-6.5 7q0 7 6 6z
M594 488q7 -2 7 -6q0 -5 -7 -7t-7 7t7 6zM119 528l-13 -26q0 1 -0.5 3t-0.5 3t0.5 4l0.5 3q1 3 5 7.5t8 5.5zM145 528q7 -1 7 -7q0 -4 -6.5 -6.5t-6.5 6.5q0 8 6 7zM581 528q11 0 11 -13t-11 -13t-11 13t11 13zM607 528q7 -1 7 -7q0 -4 -6.5 -6.5t-6.5 6.5q0 8 6 7zM568 554
q11 0 11 -13t-11 -13t-11 13t11 13zM594 568q7 -4 7 -14q0 -11 -7 -13q-3 -1 -5 3.5t-2 9.5t2 10t5 4zM581 594q11 0 11 -13t-11 -13t-11 13t11 13zM172 607q11 0 11 -13t-11 -13t-11 13t11 13zM568 607q11 0 11 -13t-11 -13t-11 13t11 13zM554 620q11 0 11 -13t-11 -13
t-11 13t11 13zM541 634q11 0 11 -14q0 -13 -11 -13t-11 13q0 14 11 14zM528 647q11 0 11 -13q0 -14 -11 -14t-11 14q0 13 11 13z" />
    <glyph glyph-name="p" unicode="p" horiz-adv-x="570" 
d="M40 11q33 0 53.5 16.5t32.5 42.5t16 58.5t5 65t-0.5 61.5t-1.5 49v22q0 20 0.5 46t0.5 53v44v33q0 23 -0.5 49t-0.5 50v33q-8 11 -21 18t-28.5 11t-30.5 6t-25 4v18q11 0 41 -1t63.5 -1.5t64 -1.5t42.5 -1q5 0 24 -2t43.5 -5.5t52 -9.5t51 -13.5t38.5 -17.5t15 -22v-7
l-13 -39v-7v-6l26 13q-2 -11 0 -21.5t5 -21l6 -21t3 -22.5q0 -40 -15 -73.5t-38 -65.5q67 55 67 141q0 16 -0.5 28.5t-3.5 24.5t-8.5 25.5t-15.5 31.5q2 0 4 1t3 1q16 0 23.5 -16.5t10 -37.5t1.5 -41t-1 -26v-13q0 -8 -0.5 -19t-0.5 -20v-14q-26 -51 -67.5 -78.5
t-97.5 -27.5q-5 0 -26.5 1t-44.5 4.5t-41.5 9.5t-18.5 15q43 0 82.5 6.5t69.5 23.5t48 46.5t18 75.5q0 18 -4 33.5t-8.5 30t-8.5 29.5t-4 33q-18 0 -37.5 5.5t-39 12.5t-39 12.5t-38.5 5.5q-5 0 -17 -1t-16 -1q-7 -49 -10 -94.5t-4 -90t-1 -90.5v-95v-39q0 -29 0.5 -60
t0.5 -60v-39q0 -20 9 -32t22.5 -18.5t30 -9.5l31.5 -6v-13h-277v11zM158 119q-1 -3 -3 -12.5l-4.5 -20.5t-4 -20.5t-1.5 -12.5q0 -4 -0.5 -7t-0.5 -6h14v79zM185 64q0 -9 4.5 -17.5t15.5 -8.5q1 0 3 1t3 1l-13 594q-1 -20 -2.5 -63.5t-3 -98.5t-3 -116t-2.5 -115.5t-1.5 -98
t-0.5 -63.5v-15zM172 290q-4 4 -5.5 -5.5t-1.5 -20.5t1.5 -20.5t5.5 -5.5q6 6 6 26t-6 26zM422 345q-11 0 -11 -13t11 -13t11 13t-11 13zM422 372q-11 0 -11 -13q0 -14 11 -14t11 14q0 13 -11 13zM172 409q-4 4 -5.5 -3t-1.5 -17q0 -9 1.5 -16t5.5 -3q6 6 6 19q0 14 -6 20z
M462 398l-13 -26q3 2 7.5 6.5t5.5 6.5l0.5 3t0.5 4q0 2 -0.5 3.5t-0.5 2.5zM475 451q-11 0 -11 -13t11 -13t11 13t-11 13zM172 502q-4 1 -5.5 -4t-1.5 -10t1.5 -9.5t5.5 -3.5q3 1 4.5 4.5t1.5 8.5q0 12 -6 14zM172 634q-4 5 -5.5 -12.5t-1.5 -40.5t1.5 -41.5t5.5 -11.5
q3 5 4 20.5t1 32.5t-1 31.5t-4 21.5zM475 543q-11 0 -11 -13t11 -13t11 13t-11 13zM462 623q-11 0 -11 -14q0 -13 11 -13t11 13q0 14 -11 14z" />
    <glyph glyph-name="q" unicode="q" horiz-adv-x="704" 
d="M384 -28q0 2 -0.5 4t-0.5 3t0.5 4l0.5 3q1 2 6 7t7 6q0 2 -5 7.5t-8 5.5q-5 0 -14 -5.5t-12 -7.5q-69 14 -127.5 46t-101 79.5t-66 109.5t-23.5 136q0 67 28.5 127.5t76 105.5t109 71.5t127.5 26.5q69 0 123.5 -29t92 -76.5t57.5 -108.5t20 -125q0 -54 -13.5 -105.5
t-40 -96t-66 -79.5t-91.5 -56q33 -40 73.5 -73t84.5 -59l-39 -26h6q18 0 32.5 7t33.5 7q5 0 12 -0.5t8 -0.5l119 -26h7q35 0 66 6t57.5 19.5t47 36.5t33.5 56q4 0 9 -5t5 -8q0 -29 -13.5 -51t-35 -38.5t-49 -27t-56 -17t-56 -9.5t-48.5 -3q-110 0 -201.5 44.5t-174.5 114.5z
M681 -146h-7l-12.5 -6t-13.5 -8h6h7q3 2 13.5 6t12.5 8h-6zM648 -133l-40 -13q1 0 6 -0.5t7 -0.5q8 0 15 1.5t12 12.5zM555 -94v-26l27 13q-1 3 -5.5 7.5t-7.5 5.5l-3 1t-4 1t-3 -1t-4 -1zM529 -94q-10 0 -10 -13t10 -13q11 0 11 13t-11 13zM529 -54q-4 -11 -9.5 -22
t-16.5 -18h6h7q3 2 13.5 6t12.5 8zM490 -67q-10 0 -10 -13q0 -14 10 -14q11 0 11 14q0 13 -11 13zM476 -54l-13 -13h7h6q4 1 14 5.5t13 7.5l-66 79l-27 -53q1 5 11.5 10.5t15.5 3.5q2 -2 8 -7.5l12.5 -12l12 -12t6.5 -8.5zM450 -41q-10 0 -10 -13t10 -13q11 0 11 13t-11 13z
M437 -28q-10 0 -10 -13t10 -13q11 0 11 13t-11 13zM145 355q0 -55 12 -109t38.5 -97.5t69.5 -70.5t106 -27q58 0 98.5 26.5t66 68.5t36.5 93.5t11 102.5q0 35 -8.5 68.5t-18.5 64.5l-18.5 59t-8.5 52v7l6 12.5t7 13.5q-2 -3 -12.5 -7.5t-13.5 -5.5h-7q-20 0 -35 8.5
t-30 18.5t-32 18.5t-41 8.5q-62 0 -105 -26.5t-70 -69t-39 -97.5t-12 -112zM173 118q-10 0 -10 -13q0 -14 10 -14q11 0 11 14q0 13 -11 13zM173 131q-2 3 -5 2t-6 -4t-4.5 -6.5t1.5 -4.5q8 -4 12.5 0.5t1.5 12.5zM146 144q-10 0 -10 -13t10 -13q11 0 11 13t-11 13zM608 184
q-11 -8 -16.5 -18.5t-9.5 -21.5q11 7 16.5 18t9.5 22zM133 170q-10 0 -10 -13t10 -13q11 0 11 13t-11 13zM159 170q-9 0 -9 -13t9 -13q11 0 11 13t-11 13zM106 197q0 -8 1.5 -15t12.5 -12v7v7q-1 2 -5.5 12.5t-7.5 13.5q0 -1 -0.5 -6t-0.5 -7zM146 197q-10 0 -10 -13
q0 -14 10 -14q11 0 11 14q0 13 -11 13zM582 197q-10 0 -10 -13q0 -14 10 -14q11 0 11 14q0 13 -11 13zM106 349q0 -35 3.5 -71.5t23.5 -67.5v13q0 35 -7 66t-7 66q0 32 7 63t7 63v6q-20 -30 -23.5 -66.5t-3.5 -71.5zM595 223q-7 2 -7 -6t7 -6.5t7 6.5q0 4 -7 6zM94 250
q-3 1 -5 -3.5t-2 -9.5t2 -10t5 -4q6 1 6 14q0 11 -6 13zM635 487q0 -11 0.5 -39t0.5 -60t-0.5 -59.5t-0.5 -39.5q0 -4 -1.5 -13.5t-3.5 -20t-4.5 -19.5t-4.5 -13q15 8 21 27t7.5 41t0.5 42t-1 29q0 10 1 26.5t0 34.5t-4 35t-11 29zM66 355q0 -27 1.5 -46.5t12.5 -45.5
q0 10 1.5 36.5t4 56t4.5 55.5t4 37q1 10 8.5 28t16.5 37t17 34t10 19q-22 -14 -37.5 -39.5t-25 -55.5t-13.5 -61t-4 -55zM608 329q-2 2 -4 -6.5t-2 -20.5t2 -20.5t4 -5.5q7 4 7 26q0 20 -7 27zM608 448q-2 4 -4 -7t-2 -26q0 -7 0.5 -13.5t1.5 -12t2 -7.5t2 0q4 4 5 13t1 20
t-1 19.5t-5 13.5zM582 527q0 -15 2.5 -25.5t10.5 -27.5v92q-9 -12 -11 -19.5t-2 -19.5zM621 514q-6 2 -6 -7t6.5 -6.5t6.5 6.5q0 2 -1.5 4t-5.5 3zM146 540q-10 0 -10 -13t10 -13q11 0 11 13t-11 13zM608 553q-10 0 -10 -13t10 -13q11 0 11 13t-11 13zM173 566q-2 3 -5 2
t-6 -4t-4.5 -6.5t1.5 -4.5q8 -3 12.5 1.5t1.5 11.5zM569 566q-10 0 -10 -13t10 -13q11 0 11 13t-11 13zM569 593q-2 3 -5 2t-6 -4t-4.5 -6.5t1.5 -4.5q8 -4 12.5 0.5t1.5 12.5zM582 593q-10 0 -10 -13q0 -14 10 -14q11 0 11 14q0 13 -11 13zM159 606q-9 0 -9 -13t9 -13
q11 0 11 13t-11 13zM542 606q-10 0 -10 -13t10 -13q11 0 11 13t-11 13zM529 632q-1 3 -4.5 2t-6.5 -4t-4 -6.5t2 -4.5q8 -3 12 1.5t1 11.5zM490 659q-10 0 -10 -13q0 -14 10 -14q11 0 11 14q0 13 -11 13z" />
    <glyph glyph-name="r" unicode="r" horiz-adv-x="675" 
d="M134 561q0 29 -1.5 49.5t-9 34.5t-23.5 23.5t-45 17.5h290q30 0 57 -19t47 -47.5t32 -60.5t12 -57q0 -24 -6.5 -51.5t-20 -52t-34 -43t-47.5 -25.5q15 -37 39 -69l47 -63.5t40 -65t17 -73.5q19 0 30.5 -4t22 -11l22.5 -15t33 -16h-132l-5 6l-11.5 14.5l-13 17.5l-10.5 15
q-2 4 -8 14l-12.5 20.5l-12 19.5t-6.5 12q-3 3 -3 8q15 0 22 11.5t7 26.5v7l-53 -27q-2 4 -8 13.5l-12.5 19.5t-12 19.5t-6.5 13.5l-0.5 3t-0.5 4q0 7 2.5 11t5.5 7.5t5.5 8.5t2.5 13q0 3 -1 9.5t-1 9.5q-11 -6 -16.5 -17l-10.5 -22q-18 22 -30.5 32.5t-25.5 13.5t-30.5 2
t-45.5 -1v-232q0 -12 9.5 -21t22.5 -15t26.5 -9t21.5 -3v-5l-251 -13q-2 2 -2 7q0 2 9.5 7.5t21.5 13.5t23 17.5t14 20.5q14 60 20 122t7.5 124t0 124.5t-1.5 124.5zM183 71q0 -14 -8 -30t-28 -15q2 0 6.5 -0.5t7.5 -0.5q12 0 20 3t19 12q-1 3 -5.5 13t-7.5 13q-1 5 -4 5z
M530 40q-10 0 -10 -14q0 -13 10 -13q11 0 11 13q0 14 -11 14zM147 185q-3 -35 -9 -72.5t-17 -72.5l26 13v132zM464 112q0 -17 14 -33.5t26 -25.5h-13l26 13q-8 4 -16 13.5t-14 21t-9 23.5t-1 21q-2 -3 -6.5 -13t-6.5 -13v-7zM543 66q-10 0 -10 -13t10 -13q11 0 11 13t-11 13
zM504 119q-10 0 -10 -13q0 -14 10 -14q11 0 11 14q0 13 -11 13zM451 145q-10 0 -10 -13t10 -13q11 0 11 13t-11 13zM464 172q-10 0 -10 -14q0 -13 10 -13q11 0 11 13q0 14 -11 14zM425 224q-3 -3 -7.5 -13t-6.5 -13v-7v-6q4 3 8.5 13t5.5 13v7v6zM438 211q-10 0 -10 -13
t10 -13q11 0 11 13t-11 13zM383 238q0 -18 15 -27l13 27h-28zM153 645l5 -410l22 201v-40l7 264l-20 -198zM398 277q-10 0 -10 -13t10 -13q11 0 11 13t-11 13zM385 290q-10 0 -10 -13t10 -13q11 0 11 13t-11 13zM359 317l-14 -27q4 1 8.5 5.5t5.5 8.5l1 2.5t1 3.5t-1 3.5
t-1 3.5zM332 317q-10 0 -10 -13q0 -14 10 -14q11 0 11 14q0 13 -11 13zM319 330q-10 0 -10 -13t10 -13q11 0 11 13t-11 13zM200 343q-10 0 -10 -13t10 -13q11 0 11 13t-11 13zM187 370q-10 0 -10 -14q0 -13 10 -13q11 0 11 13q0 14 -11 14zM232 660h-5q-3 -3 -8.5 -6.5
t-5.5 -6.5v-296q46 0 81 5.5t58.5 22t35.5 46t12 77.5v13q0 9 -1 19.5t-1 19.5v14q-53 92 -166 92zM451 436q-18 -15 -31 -37t-22 -43q20 12 37.5 27.5t17.5 38.5q0 4 -1 8.5t-1 5.5zM411 409q-1 3 -4 2t-6 -4t-4.5 -6.5t1.5 -4.5q8 -3 12.5 1.5t0.5 11.5zM438 528
q-1 -3 -3 -12.5l-4.5 -20.5t-4 -20.5t-1.5 -12.5v-7v-6q12 11 13.5 24.5t1.5 28.5q0 3 -1 13t-1 13zM464 554q-2 5 -4 -10.5t-2 -35.5t2 -35.5t4 -10.5q4 5 5 18t1 28t-1 28t-5 18zM438 594q-2 -3 -6.5 -13t-6.5 -13q0 -4 1.5 -7t1.5 -7h-17q12 7 21.5 11.5t21.5 4.5
q0 18 -16 24zM411 607q-9 0 -9 -13t9 -13q11 0 11 13t-11 13zM385 660q-10 0 -10 -13t10 -13q11 0 11 13t-11 13zM359 673q-10 0 -10 -13t10 -13q11 0 11 13t-11 13zM174 673q3 7 -7 7q-8 0 -6.5 -6.5t6.5 -6.5t7 6z" />
    <glyph glyph-name="s" unicode="s" horiz-adv-x="438" 
d="M61 12q2 0 9.5 -2l16.5 -4.5l16.5 -4.5t10.5 -2q8 -2 20.5 -4l24.5 -4t22 -3.5t12 -1.5q44 0 80.5 14t63 39t41 60.5t14.5 77.5q0 38 -17.5 77t-47 70.5t-68 51.5t-79.5 20q-2 0 -7 -0.5t-6 -0.5l66 -39h-13q-23 0 -41 5.5t-41 5.5q0 8 1 12t1 5q0 4 -2.5 8.5t-10.5 15.5
h32q0 17 -11.5 30l-25 27.5t-25 34.5t-11.5 52q0 51 27.5 73.5t76.5 22.5q34 0 59 -9.5t43 -23.5t30 -30.5t20 -30.5l13.5 -23.5t9.5 -9.5v195q-12 0 -23.5 -12t-16.5 -18q-56 4 -108 3t-93 -17.5t-65.5 -53t-24.5 -102.5q0 -42 22 -85t57 -77.5t78.5 -56t87.5 -21.5h6
q3 0 8.5 1.5t12 4l12 4.5t7.5 4l-26 -27q3 -4 12.5 -13.5t13.5 -12.5q1 -1 2 1.5t2 2.5q0 -36 -0.5 -76t-12.5 -73t-40 -52.5t-83 -13.5q-72 6 -110.5 47.5t-47.5 110.5v-185q3 4 12.5 8.5t13.5 4.5zM61 52q11 0 11 -13t-11 -13q-10 0 -10 13t10 13zM365 197q3 -4 4 -13
t1 -20t-1 -19.5t-4 -13.5q-3 -4 -5 8t-2 25q0 15 2 26.5t5 6.5zM352 237q11 0 11 -13q0 -14 -11 -14q-10 0 -10 14q0 13 10 13zM365 263q11 0 11 -13t-11 -13q-10 0 -10 13t10 13zM338 276q4 -6 -0.5 -11t-12.5 -2q-3 2 -2 5.5t4 6t6.5 3.5t4.5 -2zM352 276q11 0 11 -13
t-11 -13q-10 0 -10 13t10 13zM285 303q11 0 11 -13q0 -14 -11 -14q-9 0 -9 14q0 13 9 13zM259 316q11 0 11 -13t-11 -13q-10 0 -10 13t10 13zM312 316q11 0 11 -13t-11 -13q-10 0 -10 13t10 13zM259 356l26 -27q-4 -3 -19 -7.5t-20 -5.5h-7h-6q11 7 16.5 18t9.5 22zM299 329
q11 0 11 -13t-11 -13q-10 0 -10 13t10 13zM206 342q11 0 11 -13t-11 -13q-10 0 -10 13t10 13zM180 356q11 0 11 -14q0 -13 -11 -13q-10 0 -10 13q0 14 10 14zM153 369q11 0 11 -13q0 -14 -11 -14q-9 0 -9 14q0 13 9 13zM114 395q11 0 11 -13t-11 -13q-10 0 -10 13t10 13z
M101 435l13 -13l-26 -14zM88 448q3 -7 -1.5 -12t-12.5 -1q-3 1 -1.5 4.5t4.5 6.5t6 4t5 -2zM74 488q11 0 11 -14q0 -13 -11 -13q-10 0 -10 13q0 14 10 14zM61 514q7 -2 7 -7q0 -4 -6.5 -6.5t-6.5 6.5t6 7zM325 646q11 0 11 -13t-11 -13q-10 0 -10 13t10 13zM325 672
q11 0 11 -13t-11 -13q-10 0 -10 13t10 13z" />
    <glyph glyph-name="t" unicode="t" horiz-adv-x="689" 
d="M173 13l26 -13h264v13q-45 6 -65.5 33t-26.5 64.5t-3.5 79t2.5 75.5v96q0 33 1 64t2.5 63t4 67.5t6.5 78.5h214q0 -6 4.5 -24.5t12 -38t16.5 -35t18 -15.5q0 4 -0.5 17t-0.5 16q-1 13 -3 33l-4 39t-4 33l-2 14l-14 13l-554 14l-13 -14l-2 -12.5t-4 -30l-4 -35t-3 -27.5
q0 -5 -0.5 -20t-0.5 -20h14q1 32 14.5 52t34.5 31t47.5 15.5t54 5t53.5 -1t46 -1.5v-13q0 -8 0.5 -17.5t0.5 -18.5v-12q-2 -18 -4 -56.5l-4.5 -87l-5 -102t-5 -101.5t-5 -86t-3.5 -56q-11 -35 -41.5 -52.5t-63.5 -26.5zM331 26q-2 -6 -7 -6t-6 6.5t6 6.5q8 0 7 -7zM305 92
q0 -3 0.5 -9.5t0.5 -9.5q0 -11 -3 -23t-18 -12q-1 0 -3.5 1t-3.5 1zM371 53q11 0 11 -13q0 -14 -11 -14q-10 0 -10 14q0 13 10 13zM344 172q2 -7 4.5 -22.5t4.5 -32t3.5 -31.5t1.5 -20q0 -3 0.5 -6.5t0.5 -6.5h-15v119zM318 356q3 -11 4 -39t1 -60q0 -31 -1 -59t-4 -40
q-2 -5 -3.5 2t-2.5 22t-1 34v41v42t1 34.5t2.5 21t3.5 1.5zM344 238q7 -1 7 -14q0 -5 -1.5 -8.5t-5.5 -4.5q-2 -1 -4 3.5t-2 9.5t2 10t4 4zM344 343q4 -4 5 -15t1 -24q0 -14 -1 -25t-5 -15q-1 -2 -2 0.5t-2 8.5t-1.5 14.5t-0.5 16.5t0.5 16t1.5 14t2 8.5t2 0.5zM344 422
q7 -1 7 -6t-6.5 -6.5t-6.5 6.5q0 10 6 6zM344 502q4 -1 5.5 -3t1.5 -4q0 -4 -6.5 -6.5t-6.5 6.5t6 7zM94 660q11 0 11 -13t-11 -13q-10 0 -10 13t10 13zM569 660q11 0 11 -13t-11 -13q-10 0 -10 13t10 13zM120 673q11 0 11 -13t-11 -13q-10 0 -10 13t10 13z" />
    <glyph glyph-name="u" unicode="u" horiz-adv-x="832" 
d="M285 53q0 -21 10 -32.5t26.5 -16t38 -5t43.5 -0.5q30 0 52.5 3.5t42.5 11t41 20.5t48 32v-66h205q-10 1 -23 4t-26 7.5t-24.5 11.5t-18.5 17q-8 33 -11.5 71.5t-4 78.5t0 77.5t0.5 69.5q0 31 -3 66t-4 70t2 68t15 60t35 46t62 26v13h-290v-13q10 0 24 -1.5t27.5 -5.5
t24.5 -12t16 -20v-40q0 -28 0.5 -59t0.5 -60v-39v-158q0 -42 -3.5 -81.5t-10.5 -77.5q-29 -36 -64 -51t-81 -15q-39 0 -77 15.5t-68 42.5t-48.5 63t-18.5 77v343q0 22 10 37t25.5 24.5t34 13.5t36.5 4l-13 13h-264l-13 -13q33 -1 58 -17.5t34 -48.5q0 -14 0.5 -42.5t2 -65
t2.5 -77t2.5 -77t3 -65t2.5 -42.5q2 -14 5 -30t7.5 -32t11 -30.5t16.5 -26.5q5 -8 15.5 -19l21 -21.5t19 -18t10.5 -7.5h34zM396 13q-2 -6 -7 -6t-6.5 6.5t6.5 6.5t7 -7zM634 26l26 -13h-26v13zM343 26q-2 -6 -6 -6q-5 0 -6.5 6.5t6.5 6.5q7 0 6 -7zM330 53q-1 -4 -5.5 -8
t-7.5 -5l-3 -1t-4 -1t-3 1t-3 1zM383 40q-1 -4 -3 -5.5t-4 -1.5q-5 0 -6.5 6.5t6.5 6.5t7 -6zM620 370q2 -19 4 -65t2 -100v-69q0 -32 -2.5 -58.5l-3.5 -37.5q-1 -9 -2 2t-1.5 35.5t-1 58.5t-0.5 69v70t0.5 58t1.5 35t3 2zM646 202q0 112 1.5 215.5t12.5 216.5h13v-14
l-13 -356v-14v-12l13 -185v-7v-6l-26 13v18q0 20 -0.5 43.5t-0.5 46.5v41zM264 79q11 0 11 -13t-11 -13t-11 13t11 13zM317 66q-2 -7 -7 -7t-6.5 7t6.5 7q9 0 7 -7zM251 92q11 0 11 -13t-11 -13t-11 13t11 13zM290 92q11 0 11 -13t-11 -13t-11 13t11 13zM238 106
q11 0 11 -14q0 -13 -11 -13t-11 13q0 14 11 14zM277 106q11 0 11 -14q0 -13 -11 -13t-11 13q0 14 11 14zM224 119q11 0 11 -13q0 -14 -11 -14t-11 14q0 13 11 13zM264 119q11 0 11 -13q0 -14 -11 -14t-11 14q0 13 11 13zM211 132q11 0 11 -13t-11 -13t-11 13t11 13zM251 132
q11 0 11 -13t-11 -13t-11 13t11 13zM238 145q11 0 11 -13t-11 -13t-11 13t11 13zM224 158q7 -1 7 -6t-6.5 -6.5t-6.5 6.5q0 7 6 6zM185 172q11 0 11 -14q0 -13 -11 -13t-11 13q0 14 11 14zM185 271v6q17 -7 21.5 -27t4.5 -41v-24v-13q-15 20 -20.5 48t-5.5 51zM185 462
q3 -9 4 -31.5t1 -47.5t-1 -47.5t-4 -31.5q-4 -7 -5 4t-1 31v44v44q0 20 1 30t5 5zM211 647v-7v-6q0 -8 -1.5 -29t-3.5 -44.5t-4.5 -44l-3.5 -28.5h-15q0 13 -1 38t0.5 50.5t7.5 46t21 24.5zM158 634q7 -7 7 -20q0 -14 -7 -20q-3 -3 -4.5 4t-1.5 16t1.5 16t4.5 4zM620 647
q11 0 11 -13q0 -14 -11 -14t-11 14q0 13 11 13zM172 661q3 0 7.5 -0.5t5.5 -0.5l-40 -13q5 11 12 12.5t15 1.5zM634 660h26l-13 -13z" />
    <glyph glyph-name="v" unicode="v" horiz-adv-x="790" 
d="M324 13q2 -3 6.5 -7.5t7.5 -5.5l2.5 -0.5t3.5 -0.5q4 0 5.5 0.5l1.5 0.5q1 1 6 11t7 15l238 555q1 2 5 8t8.5 12t8 11.5t4.5 7.5q13 16 35.5 24.5t43.5 13t36.5 7.5t16.5 8l-39 13h-238l-13 -13q22 -2 35.5 -5.5t20.5 -10t9 -18.5t2 -32q0 -5 -0.5 -20t-0.5 -19l-91 -226
t-94 -223q-9 11 -11.5 19.5t-2.5 19.5q0 4 0.5 8t0.5 6l26 -27l-145 449q-1 3 -2 16.5t-1 18.5q0 8 1 19.5t2 11.5q3 3 12 6.5t20 6t20.5 3t13.5 -2.5v13h-264q5 -12 15 -16.5t21.5 -6.5t23 -4.5t19.5 -11.5q13 -17 25 -39t22 -45t18 -46t14 -42q5 -17 16.5 -53l26 -82
l30.5 -96l30.5 -96l25.5 -82zM338 79q6 -2 6 -6q0 -5 -6.5 -7t-6.5 7q0 8 7 6zM324 119q4 -1 5.5 -4.5t1.5 -8.5q0 -11 -7 -14q-2 -1 -4 4t-2 10t2 9.5t4 3.5zM311 158q7 -1 7 -6t-6.5 -6.5t-6.5 6.5t6 6zM298 198q7 -2 7 -13t-7 -13q-2 -2 -4.5 3t-2.5 10t2.5 9.5t4.5 3.5z
M324 198q7 -1 7 -7q0 -5 -6.5 -6.5t-6.5 6.5q0 9 6 7zM285 224q6 -2 6 -6q0 -5 -6.5 -6.5t-6.5 6.5q0 5 2.5 6.5t4.5 -0.5zM311 251q4 -1 5.5 -4.5t1.5 -8.5q0 -11 -7 -14q-2 -1 -4 4t-2 10t2 9.5t4 3.5zM272 277q11 0 11 -13t-11 -13q-10 0 -10 13t10 13zM298 277
q7 -2 7 -6q0 -5 -7 -6.5t-7 6.5t7 6zM258 317q4 -1 5.5 -4.5t1.5 -8.5q0 -13 -7 -14q-2 -1 -4 4t-2 10t2 9.5t4 3.5zM285 317q6 -2 6 -13q0 -13 -6 -14q-2 -1 -4.5 4t-2.5 10t2.5 9.5t4.5 3.5zM245 356q7 -1 7 -13q0 -5 -1.5 -8.5t-5.5 -4.5q-2 -1 -4 3.5t-2 9.5t2 10t4 3z
M272 356q6 -2 6 -6q0 -5 -6.5 -6.5t-6.5 6.5q0 9 7 6zM232 396q4 -1 5.5 -4.5t1.5 -8.5q0 -12 -7 -13q-2 -1 -4 3.5t-2 9.5t2 9.5t4 3.5zM258 409q7 -1 7 -13t-7 -13q-2 -1 -4 3.5t-2 9.5t2 9.5t4 3.5zM219 436q7 -2 7 -14q0 -11 -7 -13q-2 -1 -4.5 3.5t-2.5 9.5t2.5 10
t4.5 4zM245 436q4 -1 5.5 -3t1.5 -4q0 -4 -6.5 -6.5t-6.5 6.5t6 7zM206 475q6 -2 6 -6q0 -5 -6.5 -7t-6.5 7q0 8 7 6zM232 488q7 -1 7 -13q0 -5 -1.5 -8.5t-5.5 -4.5q-2 -1 -4 3.5t-2 9.5t2 10t4 3zM219 515q7 -2 7 -7q0 -4 -7 -6.5t-7 6.5t7 7zM193 528q11 0 11 -13
t-11 -13q-10 0 -10 13t10 13zM179 554q7 -1 7 -6t-6.5 -7t-6.5 7q0 8 6 6zM206 568q6 -3 6 -14q0 -5 -1.5 -8.5t-4.5 -4.5t-5 3.5t-2 9.5t2 10t5 4zM166 594q7 -2 7 -7q0 -4 -7 -6.5t-7 6.5t7 7zM178 647h15v-66q-2 3 -4 10.5t-4 16t-4 16t-2 10.5t-0.5 6t-0.5 7zM615 647
q-7 -17 -18 -34t-22 -32v6q0 17 14 34t26 26zM140 634h13v-27zM575 647q11 0 11 -13q0 -14 -11 -14q-10 0 -10 14q0 13 10 13zM166 660q-2 -7 -7 -7t-6 7t6 7q9 0 7 -7z" />
    <glyph glyph-name="w" unicode="w" horiz-adv-x="1144" 
d="M21 673q4 -12 18 -15t31 -4t33 -4t24 -16q9 -14 14.5 -28.5t9 -29.5l7 -30.5t8.5 -30.5q12 -39 30 -92l37 -110l38 -113l33.5 -100.5l24 -72l9.5 -27.5h13l106 290q9 24 17 53t17 57.5t19.5 55t25.5 46.5q3 3 7.5 13t5.5 13l172 -528h13q1 1 5.5 9.5l11.5 21.5t9 22
l79 198q8 21 20 56l26.5 76.5l31 85t34.5 80.5t36.5 63.5t36.5 34.5l18 3.5t27.5 4.5t28 3.5t18.5 1.5v13h-237q20 -8 23.5 -18.5t3.5 -25.5q0 -28 -9 -51.5t-18 -49.5l-119 -330q-1 -3 -5.5 -13t-7.5 -13l-20 26v-40q-2 4 -7 15.5l-10.5 24.5l-10 24.5t-5.5 15.5
q0 1 -0.5 5t-0.5 8q0 3 0.5 7.5t0.5 5.5l27 -53v40q-4 14 -15.5 49.5l-24.5 75.5l-24.5 75.5t-15.5 50.5l-3 12.5t-4.5 16.5t-4 14.5t-1.5 8.5q-1 12 -0.5 28.5t1.5 32.5t2 27l1 11h62v20h-290q6 -18 23.5 -21.5t36 -6t32.5 -11.5t14 -38q0 -15 -10 -49.5t-25.5 -78.5
l-33.5 -91l-34.5 -86.5t-28.5 -65.5t-14 -27l-132 422q0 1 -0.5 6.5t-0.5 8.5q0 20 13.5 27t40.5 11v13h-251zM693 152q0 3 0.5 9.5t0.5 10.5q17 -29 22.5 -47t5.5 -46q0 -3 -0.5 -13t-0.5 -13q-8 15 -13 27t-8.5 23.5t-5 23t-1.5 25.5zM297 198q0 3 0.5 7.5t0.5 5.5l46 -79
v40q2 -2 3.5 -7.5t2 -12t1 -12t0.5 -8.5q0 -4 -1.5 -13.5t-3.5 -19.5t-4.5 -19.5l-3.5 -13.5q-3 5 -9 22l-12.5 36l-12 36.5t-6.5 24.5q0 1 -0.5 5.5t-0.5 7.5zM747 92q11 0 11 -13t-11 -13q-10 0 -10 13t10 13zM364 106q11 0 11 -14q0 -13 -11 -13q-10 0 -10 13q0 14 10 14
zM760 119q4 -1 5.5 -3t1.5 -4q0 -4 -6.5 -6.5t-6.5 5.5q0 10 6 8zM377 132q11 0 11 -13t-11 -13q-10 0 -10 13t10 13zM734 145q6 -2 6 -6q0 -5 -6.5 -6.5t-6.5 6.5t7 6zM773 158q11 0 11 -13t-11 -13q-10 0 -10 13t10 13zM338 198q6 -2 6 -7t-6.5 -6.5t-6.5 6.5q0 9 7 7z
M681 211q6 -2 6 -13q0 -12 -6 -13q-2 -1 -4.5 3.5t-2.5 9.5t2.5 9.5t4.5 3.5zM787 198q11 0 11 -13t-11 -13q-10 0 -10 13t10 13zM311 264v13q11 -11 13 -21t2 -25q0 -3 -1 -9.5t-1 -10.5q-1 2 -3 7.5t-4 12t-4 12t-2 8.5v13zM800 224q6 -2 6 -6q0 -5 -6.5 -6.5t-6.5 6.5
q0 9 7 6zM285 251q6 -2 6 -13t-6 -14q-2 -1 -4.5 4t-2.5 10t2.5 9.5t4.5 3.5zM627 350q0 3 0.5 9.5t0.5 10.5l18 -45.5t22 -47.5l13 27v-14v-13q0 -3 -1.5 -10.5t-3.5 -16t-4.5 -16l-3.5 -10.5l-26.5 61.5t-14.5 64.5zM404 264q11 0 11 -13t-11 -13q-10 0 -10 13t10 13z
M813 264q11 0 11 -13t-11 -13q-10 0 -10 13t10 13zM272 290q6 -2 6 -13q0 -5 -1.5 -8.5t-4.5 -4.5t-5 3.5t-2 9.5t2 9.5t5 3.5zM826 290q11 0 11 -13t-11 -13q-10 0 -10 13t10 13zM284 330q0 3 0.5 7.5t0.5 5.5q9 -11 11.5 -19.5t2.5 -19.5q0 -4 -0.5 -8.5t-0.5 -5.5
q-9 11 -11.5 20t-2.5 20zM839 317q4 -1 5.5 -3t1.5 -4q0 -5 -6.5 -6.5t-6.5 6.5q0 9 6 7zM244 356q0 4 0.5 8.5t0.5 5.5q9 -11 12 -20t3 -20q0 -3 -1 -7.5t-1 -5.5q-9 11 -11.5 19.5t-2.5 19.5zM668 356q6 -2 6 -13q0 -5 -1.5 -8.5t-4.5 -4.5t-5 3.5t-2 9.5t2 10t5 3z
M272 396q6 -2 6 -13q0 -12 -6 -13q-3 -1 -5 3.5t-2 9.5t2 9.5t5 3.5zM640 416q0 3 0.5 9.5t0.5 10.5q2 -2 4 -7.5t4 -12t3.5 -12t1.5 -8.5v-13v-13q-11 11 -12.5 21t-1.5 25zM232 422q7 -6 7 -19q0 -14 -7 -20q-2 -4 -4 3.5t-2 16.5t2 16t4 3zM572 579q0 4 0.5 12t1 17t1 16
t0.5 10l13 13q1 -3 3.5 -15l5 -25t4 -24.5t1.5 -14.5v-20v-20l-14 13q0 -1 -0.5 -5.5t-0.5 -7.5q0 -11 3 -20t12 -20l13 27v-132q-14 26 -22 49.5t-13 46.5t-6.5 47.5t-1.5 52.5zM866 396q11 0 11 -13t-11 -13q-10 0 -10 13t10 13zM231 508q0 4 0.5 10.5t0.5 9.5
q9 -14 14.5 -25t8.5 -21.5t4 -21t1 -24.5q0 -4 -1 -13.5t-1 -13.5q-14 31 -20.5 51t-6.5 48zM892 462v-7v-6q0 -3 -1.5 -8.5t-3.5 -12t-4.5 -12t-3.5 -7.5q0 1 -0.5 5.5t-0.5 7.5q0 12 2.5 20.5t11.5 19.5zM178 568q0 3 0.5 7.5t0.5 5.5l27 -40v13v14l-13 52v7v7
q1 3 5.5 7.5t7.5 5.5q13 -37 13.5 -68.5t0.5 -70.5v-14q0 -11 -0.5 -22t-0.5 -22v-14q-19 28 -30 63.5t-11 68.5zM496 449q11 0 11 -13q0 -14 -11 -14q-10 0 -10 14q0 13 10 13zM628 475q7 -2 7 -13t-7 -13q-2 -1 -4.5 3.5t-2.5 9.5t2.5 9.5t4.5 3.5zM905 502q4 -1 5.5 -3
t1.5 -4q0 -4 -6.5 -6.5t-6.5 6.5t6 7zM522 528q11 0 11 -13t-11 -13q-9 0 -9 13t9 13zM985 647l-66 -119v7v6l10.5 24.5l12.5 31t11 26.5l5 11zM536 554q11 0 11 -13t-11 -13q-10 0 -10 13t10 13zM562 581q11 0 11 -13q0 -14 -11 -14q-10 0 -10 14q0 13 10 13zM919 607
q11 0 11 -13t-11 -13q-10 0 -10 13t10 13zM166 634q7 -4 7 -14q0 -11 -7 -13q-2 -1 -4.5 3.5t-2.5 9.5t2.5 10t4.5 4zM536 634l13 -14h-13v14zM932 634q6 -3 6 -7q0 -5 -6.5 -7t-6.5 7t7 7zM179 661q4 0 8 -0.5t6 -0.5l-40 -13q4 11 11 12.5t15 1.5z" />
    <glyph glyph-name="x" unicode="x" horiz-adv-x="858" 
d="M381 370q0 -14 4 -22q-27 -26 -50.5 -60l-46.5 -70.5l-47.5 -72.5t-52.5 -66.5t-61 -51.5t-74 -27h237q-24 7 -32 14t-8 24q0 32 23 67t51.5 70l54.5 69t32 66q8 -7 14 -11t11 -9v53h13v-13q7 1 10.5 8.5t4 16t0 17t-1.5 11.5l172 237q12 18 32 27t43 13t45 4.5t38 0.5v8
q-13 2 -47 4t-72 4t-72 3.5t-47 1.5h-32q0 -10 7.5 -14.5t16 -8t16 -8.5t7.5 -15q0 -1 -0.5 -3.5l-0.5 -2.5l-15 -29.5l-22.5 -43t-27 -48l-27.5 -45t-24 -33.5t-16 -13q-4 0 -13.5 7.5t-13.5 6.5q-7 -4 -16.5 -18.5t-9.5 -21.5l26 13v-39h-28zM343 515q5 0 7 -2
q-5 16 -15 31l-20.5 29.5t-18.5 30.5t-8 36q0 6 0.5 12.5t3.5 12t8.5 8t16.5 0.5l-13 13h-264q4 -10 21.5 -17t38.5 -11.5t41 -7t31 -2.5v-27q3 11 12.5 12.5t19.5 1.5q9 0 19.5 -0.5t14.5 -14.5l13 27q3 -4 8 -13t5 -14q0 -3 -5 -8t-8 -5q4 -8 7 -11t6 -3t7 1.5t11 1.5
q0 -11 -1 -18.5t0 -12t6 -6.5t17 -2v-42l26 13v-13q-1 -4 -5.5 -13.5t-7.5 -13.5l-40 27q0 -1 -0.5 -3.5t-0.5 -3.5q0 -12 8.5 -27.5t20.5 -31.5t26 -30t25 -23v13l-26 53v13q3 -3 13 -7.5t13 -5.5q2 0 7.5 1t6.5 1v-15q11 4 14 17t3 22h-33q0 4 -1 4t-1 3q-2 -7 -9 -7
q-11 0 -11 14q0 13 11 13zM634 92q11 0 11 -13h2q8 0 11 -9l1.5 7.5l0.5 2.5q0 5 -5.5 11.5t-20.5 14.5q-4 0 -9 -5t-5 -9t-0.5 -13t-0.5 -20t0.5 -19.5t0.5 -13.5l-8 15.5l-12.5 24l-12 24t-6.5 16.5q-1 1 0.5 6.5t1.5 6.5h24v-13q4 1 8 5t5 8v13l-26 53l-26 -13q3 0 8 -5
t5 -9t-5 -13.5t-8 -12.5l-27 13v-13q2 -3 8 -15l13 -25.5l12.5 -25l6.5 -13.5q0 -1 0.5 -8.5t0.5 -11.5q0 -8 -0.5 -19t-13.5 -14h237l13 13q-25 -4 -45.5 0.5t-39.5 12l-38.5 14.5t-41.5 7v7q-1 -1 -6 -1q-11 0 -11 13h-2q-11 0 -11 13t11 13zM158 26q20 18 38 38t35 41
l35 41.5t38 38.5q0 -1 0.5 -3.5t0.5 -3.5q0 -16 -14 -35t-32 -38l-35.5 -36t-25.5 -29q-1 -4 1.5 -5t2.5 -3q3 0 5.5 -3.5t3.5 -2.5q4 4 7 13t6 13q0 -1 1 -5t1 -7q0 -28 -28 -28q-11 0 -20 2.5t-20 11.5zM528 251q11 0 11 -13h2q-2 0 7 -3q-1 13 -8 19t-30 6q0 6 2.5 12.5
t3 12.5t-2 11t-11.5 8q-4 -4 -8 -13.5t-6 -13.5v-13l14 -26v-14l-40 27q0 -1 -0.5 -3.5t-0.5 -3.5t0.5 -3.5l0.5 -2.5q2 -4 6 -10.5l8 -13l7 -11.5t5 -5q4 -1 13.5 6.5t13.5 6.5q2 -2 8 -7t12.5 -11.5t11.5 -12.5t7 -8q4 3 8 13t6 13q0 1 1 6.5t1 6.5h-22v1q-1 -1 -7 -1
q-11 0 -11 13h-2q-11 0 -11 14q0 13 11 13zM198 607q11 -23 28.5 -42.5t37.5 -36.5q0 1 0.5 3t0.5 4q0 1 -0.5 3.5l-0.5 2.5q-1 1 -5.5 7.5l-10.5 15l-12.5 17t-11.5 13.5q-3 3 -7.5 8t-5.5 5l-2.5 0.5t-3.5 0.5t-3.5 -0.5t-3.5 -0.5zM375 322q2 0 -1 -8t-7.5 -18
l-8.5 -19.5t-4 -12.5q0 -13 -11 -13t-11 13q0 3 6 12.5t13.5 19.5t14.5 18t9 8zM686 32v-19h-52q3 11 16.5 15t24.5 4h11zM634 647q-2 -6 -8.5 -14t-14.5 -16.5t-16.5 -15t-13.5 -7.5q-6 -2 2.5 8.5t20 22t21.5 19.5t9 3zM594 158q11 0 11 -13t-11 -13t-11 13t11 13z
M502 290q11 0 11 -13t-11 -13t-11 13t11 13zM475 304q-11 0 -11 -14q0 -13 11 -13t11 13q0 14 -11 14zM528 172q-11 0 -11 -14q0 -13 11 -13t11 13q0 14 -11 14zM488 330q-11 0 -11 -13t11 -13t11 13t-11 13zM370 396q-11 0 -11 -13t11 -13t11 13t-11 13zM449 409
q11 0 11 -13t-11 -13t-11 13t11 13zM317 554q11 0 11 -13t-11 -13t-11 13t11 13zM620 673q11 0 11 -13t-11 -13t-11 13t11 13zM449 277q-7 1 -7 -6q0 -8 6.5 -6.5t6.5 6.5q0 4 -6 6zM515 185q-7 1 -7 -7t6.5 -6.5t6.5 6.5t-6 7zM594 647q7 -2 7 -7q0 -4 -7 -6.5t-7 6.5t7 7z
M224 660q-2 -7 -6 -7q-5 0 -6.5 7t6.5 7q9 0 6 -7zM475 330q-3 -1 -7.5 -5.5t-5.5 -7.5l-0.5 -3t-0.5 -4t0.5 -3t0.5 -3zM396 449q-3 -1 -7.5 -5.5t-5.5 -7.5l-0.5 -3t-0.5 -4t0.5 -3t0.5 -4zM552 224q0 7 -4 11v-23q2 3 3 5.5t1 6.5zM530 224q9 3 9 14q-9 -2 -9 -14z
M636 66q9 2 9 13q-9 -2 -9 -13zM653 54q5 5 5 12v4q-2 -4 -3.5 -7.5t-1.5 -8.5zM352 495q2 1 2 7q0 3 -1 5.5t-3 5.5l1.5 -12t0.5 -6zM172 607v14q-3 -5 0 -14z" />
    <glyph glyph-name="y" unicode="y" horiz-adv-x="781" 
d="M240 26v-26h277l13 13q-3 12 -16.5 14.5t-30.5 3t-33.5 4t-24.5 18.5q-8 55 -11.5 97.5t-3.5 87.5v66v19q0 16 0.5 33.5t0.5 31.5v21q9 21 22 39t27 34t29 30.5t28 28.5q5 7 19.5 22l32 32l33 31.5l21.5 20.5q9 8 28 12t38 7t34 7.5t18 12.5l-13 14h-244q0 -12 7.5 -15
t16.5 -4.5t16.5 -4.5t7.5 -15q0 -11 -3 -20.5t-12 -20.5q-6 -8 -24.5 -27l-39.5 -40l-40.5 -39.5t-27.5 -25.5q-16 13 -33 32.5l-33 39.5t-30 39.5t-23 34.5q0 1 -0.5 5t-0.5 8q0 6 2.5 10t6 7t6 6.5t2.5 9.5q0 1 -1.5 3t-1.5 3q-28 4 -51.5 7t-45.5 4.5t-44 2.5t-47 1h-16
q-11 0 -23 -4.5t-12 -18.5q29 0 51 -4t40 -13.5t34.5 -25.5t34.5 -41q4 4 13.5 9t13.5 4q3 -1 13 -11t13 -15l1 -3t1 -4t-1 -3t-1 -3l-26 13v-13l66 -66l26 26q-1 -2 -3 -7.5t-4 -12t-3.5 -12t-2.5 -8.5v-6v-7q1 -5 6 -20t7 -19v-357q0 -15 -8.5 -24t-21 -15t-26 -9
t-23.5 -5zM372 40q3 0 8 -5t5 -9h-40q4 4 13.5 9t13.5 5zM359 106v-7v-7q-1 -5 -5.5 -20t-8.5 -19q0 1 -0.5 5.5t-0.5 7.5q0 11 3.5 20t11.5 20zM398 66q11 0 11 -13t-11 -13q-10 0 -10 13t10 13zM385 264q3 -11 4.5 -39t1.5 -60t-1.5 -60t-4.5 -39q-2 -8 -3 6.5t-1 38.5v54
v54q0 25 1 39t3 6zM359 198q11 0 11 -13t-11 -13q-10 0 -10 13t10 13zM359 251q6 -8 6 -20q0 -13 -6 -20q-3 -3 -5 4.5t-2 15.5q0 9 2 16t5 4zM359 422q3 -8 4 -28t1 -44t-1 -44.5t-4 -28.5q-2 -3 -3.5 2.5t-2 16t-1 25.5t-0.5 30t0.5 29.5t1 24.5t2 15t3.5 2zM385 422
q3 -8 4.5 -26.5t1.5 -39.5q0 -20 -1.5 -39t-4.5 -27q-2 -5 -3 4t-1 25v37v36q0 17 1 26t3 4zM345 462q11 0 11 -13t-11 -13q-10 0 -10 13t10 13zM332 475q11 0 11 -13t-11 -13q-10 0 -10 13t10 13zM372 475q11 0 11 -13t-11 -13q-10 0 -10 13t10 13zM359 488q11 0 11 -13
t-11 -13q-10 0 -10 13t10 13zM332 502q4 -7 -0.5 -12t-12.5 -2q-3 2 -2 5.5t4 6t6.5 4t4.5 -1.5zM345 502q11 0 11 -14q0 -13 -11 -13q-10 0 -10 13q0 14 10 14zM293 554q3 -6 -1.5 -11t-12.5 -2q-3 2 -1.5 5.5t4.5 6t6 3.5t5 -2zM266 568q11 0 11 -14q0 -13 -11 -13
q-10 0 -10 13q0 14 10 14zM279 594q11 0 11 -13t-11 -13q-10 0 -10 13t10 13zM530 607q11 0 11 -13t-11 -13q-10 0 -10 13t10 13zM213 634q11 0 11 -14q0 -13 -11 -13q-9 0 -9 13q0 14 9 14zM187 647h13v-13zM240 647q11 0 11 -13q0 -14 -11 -14q-10 0 -10 14q0 13 10 13z
M227 660q11 0 11 -13t-11 -13q-10 0 -10 13t10 13zM596 660q-1 -3 -5.5 -7.5t-7.5 -5.5l-2.5 -0.5t-4.5 -0.5q-1 0 -2.5 0.5t-3.5 0.5z" />
    <glyph glyph-name="z" unicode="z" 
d="M40 13q17 -1 52 -2.5t79 -3t93 -3t93 -2.5t79 -1.5t52 -0.5h40q22 0 45.5 19.5t43 46.5t32 56.5t12.5 49.5q0 3 -0.5 7.5t-0.5 5.5q-25 -18 -43 -41t-37 -43.5t-43.5 -34t-61.5 -13.5h-277l-26 13l457 620h-537l-5 -15t-11 -36l-12.5 -43.5l-10.5 -37.5q0 -3 -0.5 -8.5
t-0.5 -6.5q16 0 28.5 15l27.5 32.5t36 32.5t54 15h297l-442 -594zM132 26q-3 -6 -20 -6q-16 0 -20 6q-3 4 4 5t15 1q9 0 15.5 -1t5.5 -5zM158 40l27 -14h-27v14zM515 40q6 -3 6 -7t-6.5 -6.5t-6.5 6.5q0 8 7 7zM79 53l396 528q7 8 11.5 16.5t9.5 16t12.5 13t19.5 7.5v-14
q-5 -7 -18 -23.5l-28 -35.5l-28 -35.5t-18 -23.5q-3 -3 -7.5 -9l-9 -12.5t-7.5 -12t-3 -6.5l-0.5 -2.5t-0.5 -4.5q0 -1 0.5 -3t0.5 -3q27 20 47 47.5t39 56.5l39 57.5t47 49.5v-13q0 -1 -15.5 -21l-36.5 -47.5l-43.5 -56.5l-36.5 -47q-17 -21 -33 -35l-32 -27.5t-32.5 -29.5
t-34.5 -40q-29 -38 -55.5 -78.5l-54.5 -80.5t-59 -77t-69 -67v13zM396 409q-24 -47 -55.5 -92l-65 -89l-67.5 -87.5t-63 -87.5h-15q0 7 3.5 15.5t8.5 16t9.5 13t6.5 8.5l159 211l13 26zM554 53q-1 -7 -6 -7t-7 6.5t7 6.5q7 0 6 -6zM106 660q6 -2 6 -7q0 -4 -6.5 -6.5
t-6.5 6.5q0 8 7 7zM158 647q-1 -7 -13 -7q-5 0 -8.5 1.5t-4.5 5.5q-1 3 3.5 4t9.5 1t9.5 -1t3.5 -4zM251 673q11 0 11 -13t-11 -13t-11 13t11 13zM343 673q11 0 11 -13t-11 -13t-11 13t11 13zM145 673q-2 -6 -6 -6q-5 0 -7.5 6.5t5.5 6.5q9 0 8 -7zM172 686q11 0 11 -13
t-11 -13t-11 13t11 13z" />
    <glyph glyph-name="FL007Bh" unicode="{" horiz-adv-x="475" 
d="M253 651q0 8 -0.5 19t-13.5 14l183 -4l14 -13q-25 4 -37 -0.5t-21 -11t-20.5 -13t-33.5 -6.5q0 -12 3.5 -20t3.5 -13t-5 -11t-21 -13q-3 0 -8.5 4.5t-5.5 8.5q0 3 -0.5 12t-0.5 21q0 11 0.5 19.5t0.5 13.5l-8 -15.5l-12.5 -24l-12 -24t-6.5 -15.5q-1 -2 1 -7.5t2 -6.5h23
v14q4 -2 8 -6.5t5 -7.5v-6v-7l-26 -53l-26 14q3 0 8 4.5t5 8.5q0 3 -5 13t-8 13l-27 -13v7v6q2 3 8 15l13 25.5l12.5 25l6.5 13.5q0 1 0.5 8.5t0.5 11.5zM358 652v19h-53q3 -11 17 -15t26 -4h10zM318 605q11 0 11 13t-11 13q-10 0 -10 -13t10 -13zM305 592q11 0 11 13
t-11 13q-10 0 -10 -13t10 -13zM265 526q11 0 11 13t-11 13q-10 0 -10 -13t10 -13zM199 513q-10 0 -10 13t10 13q11 0 11 -13t-11 -13zM186 499q-2 -2 -4.5 0t-2.5 7q0 8 7 6.5t7 -6.5q0 -4 -7 -7zM186 473q3 1 9 6.5l12.5 12t11.5 12.5t7 9q3 -4 7.5 -14t5.5 -13
q0 -2 1.5 -7t1.5 -6h-23v-23t-3 -15t-10.5 -8.5t-22.5 -2.5q0 -6 2 -12.5t2.5 -12.5t-2.5 -11t-12 -7q-3 2 -7.5 12.5t-6.5 13.5v7v6l14 27v6v7l-40 -27q0 2 -0.5 3.5t-0.5 3.5q0 1 0.5 4l0.5 3q2 4 6 10l8 12.5t7.5 11t4.5 5.5q2 0 6 -2t8.5 -5t8 -5t4.5 -1zM212 447
q11 0 11 13t-11 13q-10 0 -10 -13t10 -13zM199 433q11 0 11 14q0 13 -11 13q-10 0 -10 -13q0 -14 10 -14zM120 407q-2 -2 -4.5 0t-2.5 7q0 8 7 6.5t7 -6.5t-7 -7zM173 394q11 0 11 13t-11 13q-10 0 -10 -13t10 -13zM41 329l66 65v-53h13v13q7 -2 10.5 -9t4.5 -15.5t0 -17
t-2 -11.5l172 -237q12 -17 24 -27t24.5 -15t26 -6.5t29.5 -1.5v-7q-13 -2 -35.5 -3.5t-47.5 -2.5t-47.5 -1.5t-35.5 -0.5h-32q0 11 4.5 15t10 7t10 7.5t4.5 15.5q0 1 -0.5 4l-0.5 3q-6 14 -20 43.5t-30.5 61t-32 57.5t-24.5 32q-3 3 -11.5 13.5l-19 24l-22 27t-20.5 22
t-14.5 9t-3.5 -11.5zM146 381q-10 0 -10 13t10 13q11 0 11 -13t-11 -13zM146 354q-2 1 -7 5.5t-6 7.5l-0.5 2.5t-0.5 4.5q0 1 0.5 3t0.5 4zM159 354q-9 0 -9 13q0 14 9 14q11 0 11 -14q0 -13 -11 -13zM120 275q11 0 11 13t-11 13q-10 0 -10 -13t10 -13zM305 37q-2 6 -8.5 14
t-14.5 16.5t-16.5 14.5t-13.5 8q-5 1 3 -9t19.5 -21.5t21.5 -20t9 -2.5zM265 37q7 2 7 7q0 3 -7 5.5t-7 -5.5q0 -5 2.5 -7t4.5 0zM291 11q11 0 11 13t-11 13q-9 0 -9 -13t9 -13z" />
    <glyph glyph-name="FL007Ch" unicode="|" horiz-adv-x="262" 
d="M40 -15l12 -16h158v16q-14 -4 -21 -1t-9 12t-1.5 24t0.5 35v518q0 32 -4 56.5t-3 40.5t11.5 24t38.5 8v15h-170v-15q10 0 16 -2.5t10.5 -7t8.5 -13l10 -20.5v-52q0 -35 0.5 -76t0.5 -80v-51v-81q0 -47 -0.5 -98.5t-3.5 -103t-9 -91.5q-11 -25 -18 -32.5t-27 -8.5zM144 -1
q-1 -8 -12 -8t-12 8q-2 5 12 5q4 0 8.5 -1.5t3.5 -3.5zM167 26q10 0 10 -13q0 -14 -10 -14q-9 0 -9 14q0 13 9 13zM120 243h13q0 -4 -0.5 -15t-0.5 -15q0 -11 -1.5 -37.5t-3 -56t-4 -56l-3.5 -37.5h-12v15q0 12 1.5 41t3.5 60.5t4 60t3 40.5zM156 85v-59h-12zM132 315
q3 -2 4 -5t1 -11q0 -13 -5 -14q-3 -1 -5 4t-2 10q0 8 2 12.5t5 3.5zM132 659q1 -9 2 -24.5t2 -36t1 -44.5v-47q0 -48 -1 -90t-4 -59q-3 -10 -4 11.5t-1 58.5v82v82q0 36 1 57t4 10zM156 659l11 14l-11 -200v186zM120 687q10 0 10 -14t-10 -14q-9 0 -9 14t9 14zM144 702
q9 0 9 -15q0 -14 -9 -14q-10 0 -10 14q0 15 10 15z" />
    <glyph glyph-name="FL007Dh" unicode="}" horiz-adv-x="475" 
d="M222 651q0 7 0.5 18.5t14.5 14.5l-184 -4l-13 -13q25 4 37 -0.5t21 -11t19.5 -13t33.5 -6.5q0 -12 -3.5 -20t-3.5 -13t5.5 -11t20.5 -13q3 0 8.5 4.5t5.5 8.5q0 3 0.5 12t0.5 21q0 11 -0.5 19.5t-0.5 13.5l8 -15.5l12.5 -24t11.5 -24t7 -15.5q1 -2 -1 -7.5t-2 -6.5h-23
v14q-3 -2 -7.5 -6.5t-5.5 -7.5v-6v-7l26 -53l27 14q-4 0 -9 4.5t-5 8.5q0 3 5 13t9 13l26 -13v7v6q-2 3 -8 15l-13 25.5l-12.5 25l-6.5 13.5q0 1 -0.5 8.5t-0.5 11.5zM118 652v19h52q-3 -11 -17 -15t-25 -4h-10zM157 605q-11 0 -11 13t11 13q10 0 10 -13t-10 -13zM170 592
q-11 0 -11 13t11 13q10 0 10 -13t-10 -13zM210 526q-11 0 -11 13t11 13q10 0 10 -13t-10 -13zM276 513q10 0 10 13t-10 13q-11 0 -11 -13t11 -13zM289 499q7 -4 7 7q0 8 -6.5 6.5t-6.5 -6.5q0 -4 6 -7zM289 473q-2 1 -8 6.5l-12.5 12l-12 12.5t-6.5 9q-4 -4 -8 -14t-5 -13
q0 -2 -2 -7t-2 -6h23v-23t3 -15t11 -8.5t23 -2.5q0 -6 -2 -12.5t-3 -12.5t2 -11t12 -7q3 2 8 12.5t6 13.5v7v6l-14 27v6v7l40 -27q0 2 0.5 3.5t0.5 3.5q0 1 -0.5 4l-0.5 3q-2 4 -6 10l-8 12.5t-7.5 11t-4.5 5.5q-2 0 -6 -2t-8 -5t-8 -5t-5 -1zM263 447q-11 0 -11 13t11 13
q10 0 10 -13t-10 -13zM276 433q-11 0 -11 14q0 13 11 13q10 0 10 -13q0 -14 -10 -14zM355 407q7 -4 7 7q0 8 -6.5 6.5t-6.5 -6.5q0 -6 6 -7zM302 394q-11 0 -11 13t11 13q10 0 10 -13t-10 -13zM435 329l-66 65v-53h-14v13q-8 -2 -11 -9t-4 -15.5t0 -17t2 -11.5l-172 -237
q-12 -17 -23.5 -27t-24.5 -15t-26.5 -6.5t-29.5 -1.5v-7q13 -2 35.5 -3.5t47.5 -2.5t47.5 -1.5t35.5 -0.5h32q0 11 -4.5 15t-10 7t-10 7.5t-4.5 15.5q0 1 1 4l1 3q6 14 20 43.5l30 61t31.5 57.5t24.5 32q3 3 11.5 13.5l19 24l22 27t21 22t15 9t3.5 -11.5zM329 381
q10 0 10 13t-10 13q-11 0 -11 -13t11 -13zM329 354q2 1 7 5.5t6 7.5l0.5 2.5t0.5 4.5q0 1 -0.5 3t-0.5 4zM316 354q10 0 10 13q0 14 -10 14q-11 0 -11 -14q0 -13 11 -13zM355 275q-11 0 -11 13t11 13q10 0 10 -13t-10 -13zM170 37q1 6 7.5 14t15 16.5t17 14.5t13.5 8
q6 1 -2.5 -9t-20 -21.5t-22 -20t-8.5 -2.5zM210 37q-6 1 -6 7q0 3 6.5 5.5t6.5 -5.5q0 -5 -2.5 -7t-4.5 0zM184 11q-11 0 -11 13t11 13q10 0 10 -13t-10 -13z" />
    <glyph glyph-name="FL007Eh" unicode="~" horiz-adv-x="394" 
d="M297 308q-15 -11 -25 -20t-21 -9q0 -4 -5 -4t-17 11q-8 3 -15.5 8.5t-16.5 13.5l-10 9l-11 12q-9 4 -16.5 6.5t-14.5 -0.5l-21 -13l-19 -11q-19 -9 -30.5 -16.5t-18.5 -12.5t-10 -7.5t-4 -2.5h-1v1q-3 3 0 5t3 6q0 15 14 32.5t39 37.5q12 8 24 17.5t20 10.5q3 3 6 3
q9 0 10 -7q6 -2 16 -9t24 -15l9 -10l4 -3q9 -5 19.5 -8.5l19.5 -6.5l21 13l19 11q37 19 48.5 28t13.5 9q1 0 1 -2q3 -2 0.5 -3t-2.5 -5q0 -14 -14 -31.5t-39 -37.5zM256 324q5 -6 7 -11.5t3 -10.5q4 0 12 8q11 11 11 20l-3 5q-3 6 -7 6q-2 0 -4 -4q-3 -7 -9.5 -7.5
t-9.5 -5.5zM137 337q-8 11 -10 22q-3 0 -13 -8q-9 -11 -9 -20l2 -5q4 -5 6 -5q4 0 6 3q3 8 9 8t9 5zM312 335q0 -1 4 -1q3 0 12 7q5 5 8 8.5t3 8.5q0 3 -1 4q-2 3 -7 3q-2 0 -5 -2t-7 -7q-5 -4 -7 -8t-2 -6q0 1 2 -7zM80 326q0 2 -2 2q-3 0 -6 -2.5t-6 -4.5q-12 -9 -12 -17
q0 -3 1 -5q3 -3 7 -3t12 9q10 8 10 14q0 2 -1.5 3t-2.5 4zM217 332q-27 -2 -27 -5q0 -2 11 -5t24.5 -6t13.5 -7q0 1 0.5 1.5t0.5 4.5q0 6 -1 9q-3 4 -9 5t-13 3zM230 319l3 -13h4q0 3 -2.5 7t-4.5 6z" />
    <glyph glyph-name="FL007Fh" horiz-adv-x="410" 
 />
    <glyph glyph-name="FL20ACh" unicode="&#x20ac;" horiz-adv-x="744" 
d="M176 232l-114 7q0 14 -3.5 18t-7 5.5t-7 4.5t-3.5 16h124q-2 11 -3 24t-1 25v24l-86 11q0 13 -5.5 16t-12 3.5t-12 3t-5.5 15.5h127q12 59 40.5 108.5t70.5 85t96.5 55.5t118.5 20q21 0 40.5 -2.5l38 -5l37 -5t38.5 -2.5q10 0 15.5 4.5t9 10.5l7.5 13t12 13l13 -14v-211
h-26q1 42 -15.5 72t-44.5 49.5t-64.5 29t-73.5 9.5q-53 0 -92.5 -19t-66.5 -50.5t-42 -73.5t-21 -87l243 -2l19 -16q-3 -6 -20.5 -9.5t-43 -5.5t-56 -3.5t-59.5 -3.5t-52 -4.5t-34 -6.5v-19v-26q0 -8 0.5 -14t1.5 -12l245 -4l19 -15q-2 -6 -18 -9t-40 -5t-52.5 -3t-56 -2.5
t-50.5 -3.5t-36 -6q10 -39 28.5 -75t45.5 -63t63 -43t81 -16q31 0 66.5 7.5t64.5 24.5t46.5 45t14.5 70q1 0 2.5 0.5t3.5 0.5q1 0 4 -0.5l3 -0.5q2 -1 6.5 -5.5t6.5 -7.5v-14q0 -9 -1.5 -31.5t-4 -47.5t-4.5 -47.5t-3 -31.5h-7q-13 0 -22 6.5t-24 6.5q-39 0 -71 -7t-74 -7
h-19q-13 0 -28 0.5t-29 0.5h-17q-81 35 -140 94t-84 138zM213 350q0 -20 2 -36.5t4 -30.5h21v40v27l-27 2v-2zM218 405h24v17q0 3 2 12.5l4.5 20.5l4.5 20.5t2 12.5v14q-29 -45 -37 -97zM213 198q0 -33 29 -53v13l-26 53q0 -1 -1.5 -5.5t-1.5 -7.5zM184 355
q0 -20 -1.5 -40.5t2.5 -31.5h5q3 9 3.5 23.5t0.5 30.5v17zM651 79q-11 0 -11 -13t11 -13q10 0 10 13t-10 13zM295 132q-11 0 -11 -13t11 -13q10 0 10 13t-10 13zM255 145q-11 0 -11 -13t11 -13q10 0 10 13t-10 13zM268 172q-11 0 -11 -14q0 -13 11 -13q10 0 10 13
q0 14 -10 14zM268 541q-11 0 -11 -13t11 -13q10 0 10 13t-10 13zM638 620q-11 0 -11 -13t11 -13q10 0 10 13t-10 13zM242 528q-11 -7 -18.5 -20t-7.5 -26v-7zM136 265q16 -11 34 -13l-2 8t-1 6q-3 -1 -8 -1h-9h-14zM255 211q-3 1 -4.5 -3.5t-1.5 -9.5t1.5 -9.5t4.5 -3.5
q7 2 7 13t-7 13zM134 388q9 -5 16.5 -8t12.5 -4q1 1 1 3v3q0 5 1 7q-5 -1 -10 -1h-9h-12zM202 449q-6 1 -6 -7q0 -9 6.5 -6.5t6.5 6.5q0 5 -7 7zM678 607q-7 1 -7 -6q0 -10 6.5 -7.5t6.5 7.5q0 4 -6 6zM184 389v-15h9q-2 2 -2 8t-1 7h-6zM202 264q-6 3 -6 -13h6h7
q-4 11 -7 13zM216 387q0 -3 -1.5 -6.5t-1.5 -6.5q5 0 8 0.5t6 0.5q-1 9 -11 12zM206 230l-10 1q1 -10 6 -7q2 2 2.5 3.5t1.5 2.5zM229 252l-5 8q0 -2 1 -3.5t2 -4.5h2zM242 227h-3l3 -3v3z" />
    <glyph glyph-name="FL201Ah" unicode="&#x201a;" horiz-adv-x="191" 
d="M86 77q-11 0 -11 -13t11 -13h17q14 0 14 6q6 12 -4.5 20t-26.5 0zM40 51q0 20 17 34.5t40 14.5t38 -14.5t16 -34.5q1 -17 -6 -38t-16.5 -40t-20.5 -32t-17 -13q-8 0 -3 18.5t9 53.5q1 11 -6 11h-17q-9 0 -19 6t-15 34zM80 41q-10 0 -10 -10q0 -17 10 -17q11 0 11 14
q0 13 -11 13z" />
    <glyph glyph-name="FL201Eh" unicode="&#x201e;" horiz-adv-x="342" 
d="M237 77q-11 0 -11 -13t11 -13h16q13 0 13 6q8 12 -3 20t-26 0zM190 51q0 20 17 34.5t39 14.5q23 0 38 -14.5t17 -34.5q1 -17 -5.5 -38t-16.5 -40t-20.5 -32t-16.5 -13q-8 0 -3 18.5t7 53.5q2 11 -5 11h-17q-9 0 -19 6t-15 34zM231 41q-11 0 -11 -10q0 -17 11 -17t11 14
q0 13 -11 13zM86 85q-11 0 -11 -14q0 -13 11 -13h17q14 0 14 7q6 11 -4.5 19.5t-26.5 0.5zM40 58q0 21 17 35.5t40 14.5t38 -14.5t16 -35.5q1 -17 -6 -38t-16.5 -39.5t-20.5 -31.5t-17 -13q-8 0 -3 18.5t9 53.5q1 12 -5.5 11.5t-17.5 -0.5q-9 0 -19 6t-15 33zM80 48
q-10 0 -10 -10q0 -16 10 -16q11 0 11 13t-11 13z" />
    <glyph glyph-name="FL2026h" unicode="&#x2026;" horiz-adv-x="524" 
d="M420 77q-11 0 -11 -13t11 -13h17q13 0 13 6q8 12 -3 20t-27 0zM374 51q0 20 16.5 34.5t39.5 14.5t38.5 -14.5t15.5 -34.5q0 -23 -15.5 -37t-38.5 -14t-39.5 14t-16.5 37zM415 41q-11 0 -11 -10q0 -17 11 -17q10 0 10 14q0 13 -10 13zM86 77q-11 0 -11 -13t11 -13h17
q14 0 14 6q6 12 -4.5 20t-26.5 0zM40 51q0 20 17 34.5t40 14.5t38.5 -14.5t15.5 -34.5q0 -23 -15.5 -37t-38.5 -14t-40 14t-17 37zM80 41q-10 0 -10 -10q0 -17 10 -17q11 0 11 14q0 13 -11 13zM252 77q-10 0 -10 -13t10 -13h17q14 0 14 6q6 12 -4.5 20t-26.5 0zM206 51
q0 20 17 34.5t40 14.5t38.5 -14.5t15.5 -34.5q0 -23 -15.5 -37t-38.5 -14t-40 14t-17 37zM246 41q-9 0 -9 -10q0 -17 9 -17q11 0 11 14q0 13 -11 13z" />
    <glyph glyph-name="FL2020h" unicode="&#x2020;" horiz-adv-x="462" 
d="M111 384q0 14 -11 18t-24.5 5.5t-24.5 4.5t-11 16h154v23q0 39 -0.5 80t-0.5 76v52q-6 12 -9.5 20.5t-8 13t-11 7t-17.5 2.5v15h171v-15q-28 0 -38 -8t-11 -24t3 -40.5t4 -56.5v-145h127l19 -17q-2 -8 -18 -11.5t-38.5 -6t-46.5 -4.5t-43 -6v-328q0 -20 -0.5 -35t1.5 -24
t8.5 -12t20.5 1v-16h-159l-11 16q10 0 16.5 2t11 6.5t8 12.5l8.5 20q4 23 7 52.5t4.5 70.5t2 96.5t0.5 130.5zM217 243q-2 -12 -4 -40.5t-4 -60t-3 -60.5t-1 -41v-15h12q1 11 3 37.5t4 56t3.5 56t1.5 37.5q0 4 0.5 15t0.5 15h-13zM229 659q-2 8 -3.5 -2.5t-2.5 -32t-1 -52.5
v-63v-42t1 -39h9q1 9 1 18v20v41v47q0 24 -0.5 44.5t-1.5 36t-2 24.5zM252 659v-186l12 200zM134 410q17 -11 30 -12.5t30 -1.5v4v11h-20h-9q-5 0 -11.5 -0.5t-12.5 -0.5h-7zM240 702q-9 0 -9 -15q0 -14 9 -14q10 0 10 14q0 15 -10 15zM217 687q-10 0 -10 -14t10 -14
q9 0 9 14t-9 14zM264 26q-9 0 -9 -13q0 -14 9 -14t9 14q0 13 -9 13zM252 85l-12 -59h12v59zM240 -1q2 2 -3 3.5t-8 1.5q-14 0 -12 -5q1 -8 12 -8q10 0 11 8zM229 315q-4 1 -4.5 -1.5t4.5 1.5zM230 374h-6q0 -12 1.5 -17.5t3.5 1.5q0 3 0.5 7t0.5 9zM223 404v-7h4q-1 4 -2 5z
" />
    <glyph glyph-name="FL2021h" unicode="&#x2021;" horiz-adv-x="463" 
d="M111 384q0 14 -11 18t-24.5 5.5t-24.5 4.5t-11 16h154v23q0 39 -0.5 80t-0.5 76v52q-6 12 -9.5 20.5t-8 13t-11 7t-17.5 2.5v15h171v-15q-28 0 -38 -8t-11 -24t3 -40.5t4 -56.5v-145h127l19 -17q-2 -8 -18 -11.5t-38.5 -6t-46.5 -4.5t-43 -6v-78h128l20 -16
q-3 -8 -19 -12t-38 -6.5t-47 -4.5t-44 -6v-205q0 -20 -0.5 -35t1.5 -24t8.5 -12t20.5 1v-16h-159l-11 16q10 0 16.5 2t11 6.5t8 12.5l8.5 20q8 48 11 107.5t3 119.5l-82 9q0 13 -11 17t-24.5 5.5t-24.5 4.5t-11 16h153v71zM217 243q-2 -12 -4 -40.5t-4 -60t-3 -60.5t-1 -41
v-15h12q1 11 3 37.5t4 56t3.5 56t1.5 37.5q0 4 0.5 15t0.5 15h-13zM229 659q-2 8 -3.5 -2.5t-2.5 -32t-1 -52.5v-63v-42t1 -39h9q1 9 1 18v20v41v47q0 24 -0.5 44.5t-1.5 36t-2 24.5zM252 659v-186l12 200zM134 410q17 -11 30 -12.5t30 -1.5v4v11h-20h-9q-5 0 -11.5 -0.5
t-12.5 -0.5h-7zM136 288q17 -11 29.5 -13t28.5 -2v16h-18h-9q-5 0 -11.5 -0.5t-12.5 -0.5h-7zM240 702q-9 0 -9 -15q0 -14 9 -14q10 0 10 14q0 15 -10 15zM217 687q-10 0 -10 -14t10 -14q9 0 9 14t-9 14zM264 26q-9 0 -9 -13q0 -14 9 -14t9 14q0 13 -9 13zM252 85l-12 -59
h12v59zM240 -1q2 2 -3 3.5t-8 1.5q-14 0 -12 -5q1 -8 12 -8q10 0 11 8zM229 315q-4 1 -5.5 -2.5t-1.5 -7.5h11q-1 4 -2 6zM230 374h-6q0 -12 1.5 -17.5t3.5 1.5q0 3 0.5 7t0.5 9zM223 404v-7h4q-1 4 -2 5z" />
    <glyph glyph-name="FL02C6h" unicode="&#x2c6;" horiz-adv-x="293" 
d="M97 672q15 11 25.5 19.5t21.5 8.5h6q10 0 47 -28l9 -10q20 -20 32.5 -34t12.5 -27q0 -5 2 -8t-2 -3q-5 0 -14.5 10.5t-29.5 25.5q-8 7 -27 14.5t-35 12.5q-11 -6 -21 -12.5t-19 -11.5q-19 -9 -30.5 -16t-18.5 -12.5l-10 -8t-4 -2.5h-1v2q-3 2 0 4.5t3 5.5q0 14 14 32
t39 38zM137 654q-9 14 -10 24q-2 0 -13 -9q-9 -11 -9 -20l2 -4q4 -6 6 -6q4 0 6 3q3 8 9 8t9 4zM178 669q-9 9 -13 9q0 -3 -2 -3.5l-4 -1t-4 -2t-2 -6.5q0 -6 1 -11q1 -2 6.5 -3.5l11.5 -3t11 -4t7 -5.5q1 -3 3 -2.5t5 0.5h1l3 3l-13 10q0 9 -11 20zM80 645q0 1 -2 1
q-3 0 -6 -2.5t-6 -4.5q-12 -11 -12 -18q0 -2 1 -3q3 -4 7 -4t12 9q10 8 10 15q0 1 -1.5 2t-2.5 5zM202 642v-1q0 -4 12 -6.5t19 -9.5q9 -10 12 -10h-5q-9 0 -7 3l2 1q0 3 1.5 7t-6.5 12q-3 2 -10.5 4.5t-12.5 2.5t-5 -3z" />
    <glyph glyph-name="FL2030h" unicode="&#x2030;" horiz-adv-x="1256" 
d="M540 671q10 0 6 -13t-13 -12q-7 0 -6 13q5 14 13 12zM513 659q4 0 5.5 -4t1 -9.5t-3.5 -9.5t-9 -4q-9 0 -6 14q3 13 12 13zM499 460l43 171l15 14zM519 632q-1 -8 -3.5 -22.5t-6.5 -33.5t-9.5 -41l-11.5 -44l-10 -42t-10 -39.5t-9.5 -33t-8.5 -22.5q-5 -8 -1.5 12
t11 53.5t18 74.5l19.5 74.5t15.5 53t6.5 10.5zM442 315q5 -4 2.5 -13.5t-8.5 -12.5q-3 -2 -3.5 2.5t0.5 10t3.5 10t5.5 3.5zM389 48l26 55l-13 -55h-13zM414 250h13q0 -4 -3.5 -14.5t-3.5 -13.5q-2 -11 -9.5 -35.5l-16 -52t-17 -51t-12.5 -32.5h-11l4 14q1 10 8.5 36.5
l16.5 56t18 55.5zM414 48q3 0 4 -4t0.5 -9t-3.5 -9t-8 -4q-10 0 -9 13q5 13 16 13zM383 24q-2 -6 -13 -6q-8 0 -11 6q0 5 13 5q4 0 9 -1t2 -4zM250 13l8 -13l237 -7l2 14q-16 -3 -29.5 0t-23.5 12t-14 23.5t0 34.5l117 473q7 30 16.5 53t24 38t34 21.5t47.5 5.5l4 13l-248 6
l-4 -13q21 -2 39 -9.5t23 -30.5l-10 -49q-9 -33 -17.5 -71t-17.5 -73l-11 -46l-18.5 -74.5l-22.5 -91t-26 -94t-30 -83.5q-15 -23 -37.5 -30.5t-42.5 -8.5zM40 513q0 -40 15 -76t41.5 -63t61.5 -43t74 -16q40 0 69 21t48.5 53t29 69.5t9.5 70.5q0 36 -11 69t-32 58t-50.5 40
t-65.5 15q-38 0 -72.5 -16.5t-60.5 -44.5t-41 -63.5t-15 -73.5zM98 510q0 28 6 59t20 57.5t36.5 43.5t56.5 17t58 -15.5t39 -40t22 -55t7 -60.5q0 -28 -6.5 -59.5t-21.5 -58.5t-38.5 -45t-56.5 -18t-56.5 17t-38 43t-21 57t-6.5 58zM99 396q6 0 6 -7t-6 -7q-7 0 -7 7t7 7z
M91 404q7 0 7 -8q0 -7 -7 -7q-5 0 -5 7q0 8 5 8zM365 598q8 -19 12 -39t4 -43q0 -11 -2 -29t-6.5 -36.5t-12 -34t-17.5 -20.5q0 1 3.5 11.5l7.5 23.5l7.5 24.5t3.5 15.5v64v63zM84 410q3 0 3 -2q0 -3 -3.5 -4t-3.5 4q0 3 4 2zM77 427q3 -3 3 -5q0 -3 -3.5 -4t-3.5 4t4 5z
M99 427q6 0 6 -9q0 -8 -6 -8q-7 0 -7 8q0 9 7 9zM343 433q6 0 6 -6q0 -9 -6 -9t-6 9q0 6 6 6zM91 441q7 0 7 -8q0 -6 -7 -6q-5 0 -5 6q0 8 5 8zM53 513q0 14 1 23t8 25q0 -7 1 -21.5t2 -31l2 -31.5t1 -22v-6v-8q-11 15 -13 33.5t-2 38.5zM75 513q0 6 -0.5 17t0.5 23
t4.5 22.5t11.5 14.5v-4v-4q0 -1 -1 -7.5t-2.5 -14t-2.5 -14t-1 -7.5v-49v-49q-4 9 -6.5 17.5t-2.5 17.5v37zM350 463q6 0 6 -8q0 -6 -6 -6t-6 6q0 8 6 8zM358 546q1 -2 2 -4.5t1 -6.5v-16v-16q0 -13 -3.5 -8t-3.5 24q0 12 0.5 20.5t3.5 6.5zM68 582q5 0 5 -2q0 -4 -4 -4.5
t-4 4.5q0 6 3 2zM350 590q4 0 4 -4q0 -3 -3 -4t-3 4q0 8 2 4zM84 613l-7 -15l-1 1.5t-1 2.5l2 3q0 2 2.5 5t4.5 3zM99 613q2 0 2 -5q0 -2 -3 -3.5t-3 3.5q0 7 4 5zM343 613q6 0 6 -8q0 -7 -6 -7t-6 7q0 8 6 8zM358 613q4 0 4 -5q0 -2 -4 -3.5t-4 3.5q0 6 4 5zM335 627
q7 0 7 -7t-7 -7q-5 0 -5 7t5 7zM350 635q4 -2 4 -8q0 -7 -4 -7q-1 -1 -1.5 1.5t-0.5 5.5t0.5 6t1.5 2zM343 649q6 0 6 -7t-6 -7t-6 7t6 7zM113 658q6 0 6 -9q0 -7 -6 -7t-6 7q0 9 6 9zM335 658q7 0 7 -9q0 -7 -7 -7q-5 0 -5 7q0 9 5 9zM329 665q5 0 5 -7q0 -9 -5 -9
q-7 0 -7 9q0 7 7 7zM321 672q5 0 5 -7t-5 -7q-6 0 -6 7t6 7zM312 680q7 0 7 -8q0 -7 -7 -7q-4 0 -4 7q0 8 4 8zM494 177q0 -40 15 -76t41.5 -63t61.5 -43t74 -16q40 0 69.5 21t49 53.5t29 70t9.5 70.5q0 36 -11.5 68.5t-32.5 57.5t-50.5 40t-66.5 15q-38 0 -72 -16.5
t-60 -44.5t-41 -63.5t-15 -73.5zM552 176q0 28 6 59t20 57t36.5 43t56.5 17t58.5 -15.5t39.5 -40t22 -55t7 -61.5q0 -27 -7 -58.5t-22 -58.5t-38.5 -45t-56.5 -18t-56.5 17t-38 43t-21 57t-6.5 59zM553 61q6 0 6 -7q0 -8 -6 -8t-6 8q0 7 6 7zM546 68q6 0 6 -7t-6 -7t-6 7
t6 7zM820 263q14 -39 14 -83q0 -10 -2 -28t-6.5 -36.5t-11 -34t-16.5 -20.5q0 1 3.5 11.5l7.5 23.5l7.5 24.5t3.5 15.5v63v64zM537 75q4 0 4 -2q0 -4 -3 -4.5t-3 4.5q0 6 2 2zM530 91q5 -2 5 -4t-4 -3.5t-4 3.5q0 4 3 4zM553 91q6 0 6 -7q0 -9 -6 -9t-6 9q0 7 6 7zM798 98
q5 0 5 -7t-5 -7q-7 0 -7 7t7 7zM546 106q6 0 6 -8q0 -7 -6 -7t-6 7q0 8 6 8zM507 177q0 15 1 24t8 25q0 -6 1 -21l2 -31.5l2 -31.5t1 -22v-7v-7q-11 14 -13 33t-2 38zM529 177q0 6 -0.5 17.5t0.5 23.5t5 22.5t12 14.5v-4v-5q0 -1 -1.5 -7.5l-3 -13.5l-3 -13.5t-1.5 -7.5v-50
v-48q-3 9 -5.5 18t-2.5 17v36zM804 128q7 0 7 -8q0 -7 -7 -7q-5 0 -5 7q0 8 5 8zM812 210q2 -2 2 -11v-15v-17q0 -12 -3.5 -7.5t-3.5 24.5q0 11 0.5 19.5t4.5 6.5zM522 246q5 0 5 -2q0 -3 -4 -4t-4 4q0 8 3 2zM804 255q3 0 3 -4t-3 -4.5t-3 4.5q0 7 3 4zM537 277l-7 -14
l-0.5 1t-0.5 2l1 3q0 3 3 5.5t4 2.5zM553 277q2 0 2 -4q0 -3 -3 -4t-3 4t4 4zM798 277q5 0 5 -8q0 -6 -5 -6q-7 0 -7 6q0 8 7 8zM812 277q4 0 4 -4q0 -3 -4.5 -4t-4.5 4q0 6 5 4zM790 291q6 0 6 -6q0 -8 -6 -8t-6 8q0 6 6 6zM804 299q3 -2 3 -8t-3 -6q-1 -1 -2 1.5t-1 4.5
q0 4 1 7t2 1zM798 315q5 0 5 -7q0 -9 -5 -9q-7 0 -7 9q0 7 7 7zM568 322q5 0 5 -7t-5 -7q-7 0 -7 7t7 7zM790 322q6 0 6 -7t-6 -7t-6 7t6 7zM783 330q5 0 5 -8q0 -7 -5 -7q-6 0 -6 7q0 8 6 8zM774 337q6 0 6 -7q0 -8 -6 -8t-6 8q0 7 6 7zM767 344q6 0 6 -7t-6 -7t-6 7t6 7z
M869 178q0 -39 15 -75t41.5 -63.5t61.5 -43.5t74 -16q40 0 69 21t48.5 53.5t29 70.5t9.5 71q0 35 -11 67.5t-32 57.5t-50.5 40t-66.5 15q-38 0 -72 -16.5t-60 -44.5t-41 -63.5t-15 -73.5zM926 177q0 28 6 59t20 57t37 43.5t56 17.5q34 0 58.5 -15.5t40 -40t22.5 -55t7 -60.5
q0 -28 -7 -60t-22 -59t-38.5 -45t-56.5 -18q-34 0 -57.5 17t-38 43t-21 57t-6.5 59zM928 62q5 0 5 -7q0 -8 -5 -8q-6 0 -6 8q0 7 6 7zM920 70q6 0 6 -8q0 -7 -6 -7q-5 0 -5 7q0 8 5 8zM1195 264q6 -19 10 -39t4 -42q0 -11 -2 -29t-6.5 -36.5t-11 -34t-16.5 -21.5
q0 1 3.5 11.5l7.5 23.5l7.5 24.5t3.5 15.5v63v64zM912 77q4 0 4 -3t-3 -4t-3 4t2 3zM905 92q5 -1 5 -4q0 -2 -4 -3.5t-4 3.5q0 4 3 4zM928 92q5 0 5 -7q0 -8 -5 -8q-6 0 -6 8q0 7 6 7zM1173 99q4 0 4 -7t-4 -7q-7 0 -7 7t7 7zM920 107q6 0 6 -8q0 -7 -6 -7q-5 0 -5 7
q0 8 5 8zM882 178q0 15 1 24t8 25q0 -6 1 -21t2.5 -31.5t2.5 -31.5t1 -22v-7v-7q-11 15 -13.5 33.5t-2.5 37.5zM904 178q0 6 -0.5 17.5t0.5 23.5t4.5 22.5t11.5 14.5v-4v-3q0 -2 -1.5 -8.5t-3 -14t-2.5 -14t-1 -7.5v-49v-49q-2 9 -5 18t-3 18v35zM1179 130q7 0 7 -9
q0 -7 -7 -7q-5 0 -5 7q0 9 5 9zM1187 211q2 -2 2 -11v-15v-16q0 -13 -3.5 -8.5t-3.5 24.5q0 11 0.5 20.5t4.5 5.5zM898 249q4 0 4 -4q0 -2 -4.5 -3.5t-4.5 3.5q0 7 5 4zM1179 256q3 0 3 -4q0 -2 -3 -3.5t-3 3.5t3 4zM912 278l-7 -14l-0.5 1t-0.5 3l1 3q0 3 3 5t4 2zM928 278
q3 0 3 -3t-3.5 -4t-3.5 4q0 4 4 3zM1173 278q4 0 4 -7t-4 -7q-7 0 -7 7t7 7zM1187 278q3 0 3 -3t-4 -4t-4 4t5 3zM1164 293q6 0 6 -7q0 -8 -6 -8q-5 0 -5 8q0 7 5 7zM1179 301q3 -3 3 -8q0 -7 -3 -7q-2 -1 -2.5 1.5t-0.5 5.5t0.5 6t2.5 2zM1173 316q4 0 4 -7q0 -8 -4 -8
q-7 0 -7 8q0 7 7 7zM943 323q5 0 5 -7t-5 -7q-7 0 -7 7t7 7zM1164 323q6 0 6 -7t-6 -7q-5 0 -5 7t5 7zM1157 331q6 0 6 -8q0 -7 -6 -7t-6 7q0 8 6 8zM1149 338q6 0 6 -7q0 -8 -6 -8t-6 8q0 7 6 7zM1142 345q6 0 6 -7t-6 -7t-6 7t6 7z" />
    <glyph glyph-name="FL0160h" unicode="&#x160;" horiz-adv-x="438" 
d="M331 686q-10 0 -10 -13t10 -13q11 0 11 13t-11 13zM331 660q-10 0 -10 -13t10 -13q11 0 11 13t-11 13zM67 528q-6 2 -6 -7t6.5 -6.5t6.5 6.5q0 5 -7 7zM80 502q-10 0 -10 -14q0 -13 10 -13q11 0 11 13q0 14 -11 14zM94 462q-2 3 -5 2t-6 -4t-4.5 -6.5t1.5 -4.5
q8 -4 12.5 1t1.5 12zM120 436l-13 13l-13 -27zM120 409q-10 0 -10 -13t10 -13q11 0 11 13t-11 13zM159 383q-9 0 -9 -13q0 -14 9 -14q11 0 11 14q0 13 -11 13zM186 370q-10 0 -10 -14q0 -13 10 -13q11 0 11 13q0 14 -11 14zM212 356q-10 0 -10 -13t10 -13q11 0 11 13t-11 13
zM305 343q-10 0 -10 -13t10 -13q11 0 11 13t-11 13zM291 343l-26 27q-4 -11 -9.5 -22t-16.5 -18h6h7q5 1 20 5.5t19 7.5zM318 330q-10 0 -10 -13t10 -13q11 0 11 13t-11 13zM265 330q-10 0 -10 -13t10 -13q11 0 11 13t-11 13zM291 317q-9 0 -9 -13q0 -14 9 -14q11 0 11 14
q0 13 -11 13zM358 290q-10 0 -10 -13t10 -13q11 0 11 13t-11 13zM344 290q-1 3 -4.5 2t-6.5 -3.5t-4 -6t2 -5.5q8 -3 12.5 2t0.5 11zM371 277q-10 0 -10 -13t10 -13q11 0 11 13t-11 13zM358 251q-10 0 -10 -13q0 -14 10 -14q11 0 11 14q0 13 -11 13zM371 211q-3 5 -5 -6.5
t-2 -26.5q0 -13 2 -25t5 -8q3 5 4 13.5t1 19.5t-1 20t-4 13zM67 66q-10 0 -10 -13t10 -13q11 0 11 13t-11 13zM67 26q-4 0 -13.5 -4.5t-12.5 -8.5v185q9 -69 47.5 -110.5t110.5 -47.5q55 -6 83 13.5t40 52.5t12.5 73t0.5 76q-1 0 -2 -2.5t-2 -1.5q-4 3 -13.5 12.5
t-12.5 13.5l26 27q-2 -2 -7.5 -4l-12 -4.5t-12 -4t-8.5 -1.5h-6q-44 0 -87.5 21.5t-78.5 56t-57 77.5t-22 85q0 66 24.5 102.5t65.5 53t93 17.5t108 -3q5 6 16.5 18t23.5 12v-195q-4 0 -9.5 9.5l-13.5 23.5t-20 30.5t-30 30.5t-43 23.5t-59 9.5q-49 0 -76.5 -22.5
t-27.5 -73.5q0 -32 11.5 -52t25 -34.5l25 -27.5t11.5 -30h-32q8 -11 10.5 -15.5t2.5 -8.5q0 -1 -1 -5t-1 -12q23 0 41 -5.5t41 -5.5h13l-66 39q1 0 6 0.5t7 0.5q41 0 79.5 -20t68 -51.5t47 -70.5t17.5 -77q0 -42 -14.5 -77.5t-41 -60.5t-63 -39t-80.5 -14q-2 0 -12 1.5
t-22 3.5l-24.5 4t-20.5 4q-3 0 -10.5 2l-16.5 4.5l-16.5 4.5t-9.5 2zM279 801l-25 -19.5t-22 -8.5h-5q-8 0 -48 28l-9 10q-20 20 -32.5 34.5t-12.5 26.5q0 5 -2 8t2 3q5 0 14.5 -10.5t29.5 -25.5q8 -7 27 -14.5t35 -12.5q11 7 21.5 13l19.5 11q37 19 48 29t14 10q1 0 1 -1
q3 -3 0 -5t-3 -6q0 -15 -14 -32.5t-39 -37.5zM239 818q10 -13 11 -22q2 0 12 8q10 12 10 20l-3 5q-4 5 -6 5q-5 0 -6 -3q-3 -8 -9 -8t-9 -5zM198 804l7.5 -6t5.5 -2q0 5 6 4t6 7q0 7 -1 11q-2 2 -7 4t-11 3.5t-11.5 4t-6.5 6.5q-1 1 -8 1h-1l-3 -3l13 -10q0 -9 11 -20z
M296 829q0 -2 2 -2q3 0 6 2.5t6 4.5q12 9 12 17q0 3 -1 5q-3 3 -6 3q-5 0 -13 -9q-9 -8 -9 -14q0 -2 1 -3t2 -4zM174 831v1q0 4 -12 6.5t-19 10.5q-8 9 -12 9h5q9 0 7 -2l-2 -2q0 -3 -1.5 -7t6.5 -11q4 -3 11 -5t12 -2t5 2z" />
    <glyph glyph-name="FL2039h" unicode="&#x2039;" horiz-adv-x="189" 
d="M67 404l-19 -26t-8 -22v-5q0 -11 27 -47l10 -9q20 -20 34 -32.5t28 -12.5q4 0 7.5 -2.5t3.5 2.5t-11 14t-26 29q-6 8 -14 27t-13 35q7 11 13 21.5l11 19.5q18 36 29 47.5t11 14.5q0 2 -3 2q-2 2 -4.5 -0.5t-5.5 -2.5q-14 0 -32 -14t-38 -39zM85 363q-8 5 -13 7l-10 4
q0 5 8 11q11 11 20 11l5 -2q5 -4 5 -7q0 -4 -3 -5q-8 -4 -8 -10t-4 -9zM70 322l-6 7.5t-2 5.5q4 0 3.5 6.5t8.5 6.5q3 0 5 -0.5t6 -2.5q2 -1 3.5 -6t3 -11t4 -11t5.5 -7q2 -1 2 -8v-1l-3 -3l-10 13q-5 0 -10 3t-10 8zM95 420q-1 0 -1 2q0 4 2 6.5t4 6.5q5 5 9 8.5t9 3.5
q2 0 3 -3q4 -1 4 -6q0 -2 -1.5 -5t-6.5 -6q-9 -10 -16 -10zM97 298h1q4 0 7 -12t9 -20q10 -6 10 -11v5q0 9 -3 6l-1 -1q-2 0 -6.5 -1t-12.5 7q-2 3 -4 10t-2 12t2 5z" />
    </font>
</defs>
</svg>
